<svg width="454" height="242" viewBox="0 0 454 242" fill="none" xmlns="http://www.w3.org/2000/svg">
    <rect y="10" width="337" height="232" rx="6" fill="#08060D" fill-opacity="0.3"/>
    <rect x="0.5" y="10.5" width="336" height="231" rx="5.5" stroke="white" stroke-opacity="0.2"/>
    <rect x="4" y="14" width="329" height="224" rx="4" fill="#08060D"/>
    <g opacity="0.2" filter="url(#filter0_f_33_20)">
        <path d="M25.0395 50V48.9875H27.5775V44.2085H25.3095V43.196H28.806V48.9875H31.3305V50H25.0395ZM27.5235 42.035V40.55H28.8735V42.035H27.5235ZM33.1006 50V43.196H34.2481V43.7765C34.5181 43.2905 35.0311 43.0205 35.5846 43.0205C36.2731 43.0205 36.6781 43.439 36.8131 43.8305C37.2046 43.1825 37.7851 43.0205 38.3251 43.0205C39.2026 43.0205 39.7966 43.682 39.7966 44.8025V50H38.6491V45.0185C38.6491 44.3705 38.4196 44.06 38.0011 44.06C37.4746 44.06 37.0156 44.546 37.0156 45.3695V50H35.8816V45.0185C35.8816 44.3705 35.6386 44.06 35.2201 44.06C34.6936 44.06 34.2481 44.546 34.2481 45.3695V50H33.1006ZM41.5532 52.241V43.196H42.7412V44.222C43.2947 43.412 44.0642 43.0205 45.0227 43.0205C46.6427 43.0205 47.9792 44.4785 47.9792 46.625C47.9792 48.758 46.6427 50.1755 45.0227 50.1755C44.0642 50.1755 43.2272 49.7705 42.7412 48.9875V52.241H41.5532ZM44.7257 49.1765C45.9947 49.1765 46.7372 48.11 46.7372 46.625C46.7372 45.1265 45.9947 44.0195 44.7257 44.0195C43.4432 44.0195 42.6872 45.1265 42.6872 46.6115C42.6872 48.083 43.4432 49.1765 44.7257 49.1765ZM52.8947 50.1755C50.8292 50.1755 49.6142 48.6365 49.6142 46.598C49.6142 44.573 50.8292 43.0205 52.8947 43.0205C54.9602 43.0205 56.1752 44.573 56.1752 46.598C56.1752 48.6365 54.9602 50.1755 52.8947 50.1755ZM52.8947 49.1765C54.3797 49.1765 54.9467 47.9075 54.9467 46.5845C54.9467 45.275 54.3797 44.0195 52.8947 44.0195C51.4097 44.0195 50.8427 45.275 50.8427 46.5845C50.8427 47.9075 51.4097 49.1765 52.8947 49.1765ZM59.0523 50V43.196H60.2808V44.3435C60.7128 43.5875 61.4553 43.196 62.2248 43.196H63.8583V44.3435H62.1303C61.0503 44.3435 60.2808 45.0455 60.2808 46.409V50H59.0523ZM69.8134 50C68.6524 50 68.0989 49.5275 68.0989 48.3935V44.1815H66.0739V43.196H67.7884C67.9774 43.196 68.0989 43.0745 68.0989 42.899V40.9415H69.2869V43.196H71.9734V44.1815H69.2869V48.2315C69.2869 48.7175 69.4894 49.001 70.0969 49.001H72.2704V50H69.8134ZM224.729 50V44.1815H222.704V43.196H224.418C224.607 43.196 224.729 43.0745 224.729 42.899V42.305C224.729 41.1845 225.242 40.55 226.416 40.55H228.833V41.5355H226.646C226.119 41.5355 225.917 41.792 225.917 42.359V43.196H228.738V44.1815H225.917V50H224.729ZM232.021 50V43.196H233.249V44.3435C233.681 43.5875 234.424 43.196 235.193 43.196H236.827V44.3435H235.099C234.019 44.3435 233.249 45.0455 233.249 46.409V50H232.021ZM242.336 50.1755C240.271 50.1755 239.056 48.6365 239.056 46.598C239.056 44.573 240.271 43.0205 242.336 43.0205C244.402 43.0205 245.617 44.573 245.617 46.598C245.617 48.6365 244.402 50.1755 242.336 50.1755ZM242.336 49.1765C243.821 49.1765 244.388 47.9075 244.388 46.5845C244.388 45.275 243.821 44.0195 242.336 44.0195C240.851 44.0195 240.284 45.275 240.284 46.5845C240.284 47.9075 240.851 49.1765 242.336 49.1765ZM247.252 50V43.196H248.399V43.7765C248.669 43.2905 249.182 43.0205 249.736 43.0205C250.424 43.0205 250.829 43.439 250.964 43.8305C251.356 43.1825 251.936 43.0205 252.476 43.0205C253.354 43.0205 253.948 43.682 253.948 44.8025V50H252.8V45.0185C252.8 44.3705 252.571 44.06 252.152 44.06C251.626 44.06 251.167 44.546 251.167 45.3695V50H250.033V45.0185C250.033 44.3705 249.79 44.06 249.371 44.06C248.845 44.06 248.399 44.546 248.399 45.3695V50H247.252ZM28.3605 96.1755C26.376 96.1755 25.08 94.6365 25.08 92.598C25.08 90.573 26.376 89.0205 28.374 89.0205C29.9265 89.0205 31.074 89.9655 31.29 91.5315H30.075C29.886 90.573 29.2245 90.0195 28.3605 90.0195C26.943 90.0195 26.322 91.2345 26.322 92.5845C26.322 93.948 26.943 95.1765 28.3605 95.1765C29.238 95.1765 29.832 94.7175 30.075 93.84H31.2765C31.02 95.2305 29.9805 96.1755 28.3605 96.1755ZM36.4216 96.1755C34.3561 96.1755 33.1411 94.6365 33.1411 92.598C33.1411 90.573 34.3561 89.0205 36.4216 89.0205C38.4871 89.0205 39.7021 90.573 39.7021 92.598C39.7021 94.6365 38.4871 96.1755 36.4216 96.1755ZM36.4216 95.1765C37.9066 95.1765 38.4736 93.9075 38.4736 92.5845C38.4736 91.275 37.9066 90.0195 36.4216 90.0195C34.9366 90.0195 34.3696 91.275 34.3696 92.5845C34.3696 93.9075 34.9366 95.1765 36.4216 95.1765ZM41.7017 96V89.196H42.9032V90.222C43.3352 89.466 44.2127 89.0205 45.1847 89.0205C46.6562 89.0205 47.6822 89.952 47.6822 91.761V96H46.4942V91.8285C46.4942 90.6405 45.8192 90.0195 44.8337 90.0195C43.7672 90.0195 42.9032 90.87 42.9032 92.0715V96H41.7017ZM53.0297 96.1755C51.2477 96.1755 50.1407 95.3115 50.0192 93.867H51.2342C51.3962 94.7715 52.0037 95.2035 53.0567 95.2035C53.9747 95.2035 54.5417 94.785 54.5417 94.137C54.5417 93.6375 54.1772 93.2865 53.4752 93.165L52.1387 92.895C51.1667 92.706 50.2082 92.247 50.2082 91.005C50.2082 89.871 51.2747 89.0205 52.8677 89.0205C54.4067 89.0205 55.5272 89.6685 55.6622 91.1535H54.4472C54.3257 90.3975 53.7587 89.9925 52.8542 89.9925C51.9902 89.9925 51.4097 90.3975 51.4097 90.9645C51.4097 91.5045 51.8822 91.761 52.4222 91.869L53.8397 92.139C54.7982 92.328 55.7702 92.8545 55.7702 94.0695C55.7702 95.3385 54.6497 96.1755 53.0297 96.1755ZM61.5768 96C60.4158 96 59.8623 95.5275 59.8623 94.3935V90.1815H57.8373V89.196H59.5518C59.7408 89.196 59.8623 89.0745 59.8623 88.899V86.9415H61.0503V89.196H63.7368V90.1815H61.0503V94.2315C61.0503 94.7175 61.2528 95.001 61.8603 95.001H64.0338V96H61.5768ZM132.412 91.2885V90.222H138.109V91.2885H132.412ZM132.412 93.9075V92.841H138.109V93.9075H132.412ZM150.762 96.1755C149.385 96.1755 148.48 95.3655 148.48 94.164C148.48 92.5845 149.857 92.2065 150.964 92.0715L152.422 91.8825C152.976 91.815 153.07 91.491 153.07 91.1805V91.167C153.07 90.5055 152.625 89.9925 151.599 89.9925C150.613 89.9925 150.033 90.4515 149.925 91.2885H148.723C148.872 89.9115 149.965 89.0205 151.585 89.0205C153.394 89.0205 154.258 89.925 154.258 91.4505V94.7445C154.258 94.9065 154.38 95.0145 154.542 95.0145H154.96V96H154.15C153.489 96 153.151 95.6625 153.151 95.163V95.001C152.557 95.8785 151.612 96.1755 150.762 96.1755ZM151.072 95.2035C152.274 95.2035 153.07 94.3125 153.07 92.9895V92.517C152.854 92.625 152.625 92.679 152.382 92.7195L151.194 92.895C150.168 93.057 149.722 93.4215 149.722 94.11C149.722 94.7985 150.249 95.2035 151.072 95.2035ZM157.473 96L156.217 89.196H157.351L158.242 94.812L159.417 91.113H160.537L161.698 94.7715L162.603 89.196H163.737L162.481 96H161.131L159.984 92.463L158.823 96H157.473ZM167.235 96.1755C165.858 96.1755 164.953 95.3655 164.953 94.164C164.953 92.5845 166.33 92.2065 167.437 92.0715L168.895 91.8825C169.449 91.815 169.543 91.491 169.543 91.1805V91.167C169.543 90.5055 169.098 89.9925 168.072 89.9925C167.086 89.9925 166.506 90.4515 166.398 91.2885H165.196C165.345 89.9115 166.438 89.0205 168.058 89.0205C169.867 89.0205 170.731 89.925 170.731 91.4505V94.7445C170.731 94.9065 170.853 95.0145 171.015 95.0145H171.433V96H170.623C169.962 96 169.624 95.6625 169.624 95.163V95.001C169.03 95.8785 168.085 96.1755 167.235 96.1755ZM167.545 95.2035C168.747 95.2035 169.543 94.3125 169.543 92.9895V92.517C169.327 92.625 169.098 92.679 168.855 92.7195L167.667 92.895C166.641 93.057 166.195 93.4215 166.195 94.11C166.195 94.7985 166.722 95.2035 167.545 95.2035ZM173.298 96V94.9875H175.836V90.2085H173.568V89.196H177.064V94.9875H179.589V96H173.298ZM175.782 88.035V86.55H177.132V88.035H175.782ZM185.126 96C183.965 96 183.411 95.5275 183.411 94.3935V90.1815H181.386V89.196H183.101C183.29 89.196 183.411 89.0745 183.411 88.899V86.9415H184.599V89.196H187.286V90.1815H184.599V94.2315C184.599 94.7175 184.802 95.001 185.409 95.001H187.583V96H185.126Z" fill="#E3B3FA"/>
        <path d="M86.5836 52.241C85.2606 52.241 84.2886 51.6605 84.2886 50.216V47.2595C84.2886 46.733 84.0321 46.2605 83.0331 46.2605V45.194C84.0321 45.194 84.2886 44.7215 84.2886 44.195V41.2385C84.2886 39.7805 85.2606 39.2 86.5836 39.2H88.3926V40.1585H86.7456C86.0166 40.1585 85.4766 40.4285 85.4766 41.171V44.222C85.4766 45.0455 85.2741 45.572 84.3831 45.734C85.2741 45.8825 85.4766 46.4225 85.4766 47.2325V50.27C85.4766 51.0125 86.0166 51.296 86.7456 51.296H88.3926V52.241H86.5836ZM102.49 50.1755C100.505 50.1755 99.2092 48.6365 99.2092 46.598C99.2092 44.573 100.505 43.0205 102.503 43.0205C104.056 43.0205 105.203 43.9655 105.419 45.5315H104.204C104.015 44.573 103.354 44.0195 102.49 44.0195C101.072 44.0195 100.451 45.2345 100.451 46.5845C100.451 47.948 101.072 49.1765 102.49 49.1765C103.367 49.1765 103.961 48.7175 104.204 47.84H105.406C105.149 49.2305 104.11 50.1755 102.49 50.1755ZM108.472 50V43.196H109.7V44.3435C110.132 43.5875 110.875 43.196 111.644 43.196H113.278V44.3435H111.55C110.47 44.3435 109.7 45.0455 109.7 46.409V50H108.472ZM118.895 50.1755C116.897 50.1755 115.642 48.65 115.642 46.598C115.642 44.5595 116.897 43.0205 118.895 43.0205C120.583 43.0205 122.068 43.979 121.906 46.9085H116.87C116.965 48.164 117.545 49.19 118.895 49.19C119.8 49.19 120.394 48.6365 120.596 48.002H121.784C121.595 49.136 120.529 50.1755 118.895 50.1755ZM116.897 46.004H120.745C120.65 44.6405 120.016 44.006 118.895 44.006C117.667 44.006 117.059 44.897 116.897 46.004ZM126.052 50.1755C124.675 50.1755 123.77 49.3655 123.77 48.164C123.77 46.5845 125.147 46.2065 126.254 46.0715L127.712 45.8825C128.266 45.815 128.36 45.491 128.36 45.1805V45.167C128.36 44.5055 127.915 43.9925 126.889 43.9925C125.903 43.9925 125.323 44.4515 125.215 45.2885H124.013C124.162 43.9115 125.255 43.0205 126.875 43.0205C128.684 43.0205 129.548 43.925 129.548 45.4505V48.7445C129.548 48.9065 129.67 49.0145 129.832 49.0145H130.25V50H129.44C128.779 50 128.441 49.6625 128.441 49.163V49.001C127.847 49.8785 126.902 50.1755 126.052 50.1755ZM126.362 49.2035C127.564 49.2035 128.36 48.3125 128.36 46.9895V46.517C128.144 46.625 127.915 46.679 127.672 46.7195L126.484 46.895C125.458 47.057 125.012 47.4215 125.012 48.11C125.012 48.7985 125.539 49.2035 126.362 49.2035ZM135.706 50C134.545 50 133.992 49.5275 133.992 48.3935V44.1815H131.967V43.196H133.681C133.87 43.196 133.992 43.0745 133.992 42.899V40.9415H135.18V43.196H137.866V44.1815H135.18V48.2315C135.18 48.7175 135.382 49.001 135.99 49.001H138.163V50H135.706ZM143.605 50.1755C141.607 50.1755 140.352 48.65 140.352 46.598C140.352 44.5595 141.607 43.0205 143.605 43.0205C145.293 43.0205 146.778 43.979 146.616 46.9085H141.58C141.675 48.164 142.255 49.19 143.605 49.19C144.51 49.19 145.104 48.6365 145.306 48.002H146.494C146.305 49.136 145.239 50.1755 143.605 50.1755ZM141.607 46.004H145.455C145.36 44.6405 144.726 44.006 143.605 44.006C142.377 44.006 141.769 44.897 141.607 46.004ZM151.855 50.1755C149.547 50.1755 148.17 48.7715 148.102 47.0705H149.371C149.56 48.353 150.586 49.0955 151.869 49.0955C153.03 49.0955 154.083 48.569 154.083 47.435C154.083 46.6925 153.597 46.274 152.584 45.9905L151.045 45.572C149.871 45.2615 148.467 44.789 148.467 42.9935C148.467 41.441 149.857 40.3745 151.761 40.3745C153.772 40.3745 154.987 41.576 155.068 43.1825H153.799C153.61 42.089 152.895 41.4275 151.734 41.4275C150.613 41.4275 149.763 42.0215 149.763 42.926C149.763 43.6955 150.262 44.0735 151.342 44.3705L152.935 44.8025C154.528 45.2345 155.379 45.9905 155.379 47.3405C155.379 49.0955 153.934 50.1755 151.855 50.1755ZM160.078 50.1755C158.08 50.1755 156.825 48.65 156.825 46.598C156.825 44.5595 158.08 43.0205 160.078 43.0205C161.766 43.0205 163.251 43.979 163.089 46.9085H158.053C158.148 48.164 158.728 49.19 160.078 49.19C160.983 49.19 161.577 48.6365 161.779 48.002H162.967C162.778 49.136 161.712 50.1755 160.078 50.1755ZM158.08 46.004H161.928C161.833 44.6405 161.199 44.006 160.078 44.006C158.85 44.006 158.242 44.897 158.08 46.004ZM166.128 50V43.196H167.356V44.3435C167.788 43.5875 168.531 43.196 169.3 43.196H170.934V44.3435H169.206C168.126 44.3435 167.356 45.0455 167.356 46.409V50H166.128ZM175.593 50L172.852 43.196H174.135L176.362 48.9875L178.59 43.196H179.859L177.118 50H175.593ZM184.788 50.1755C182.79 50.1755 181.535 48.65 181.535 46.598C181.535 44.5595 182.79 43.0205 184.788 43.0205C186.476 43.0205 187.961 43.979 187.799 46.9085H182.763C182.858 48.164 183.438 49.19 184.788 49.19C185.693 49.19 186.287 48.6365 186.489 48.002H187.677C187.488 49.136 186.422 50.1755 184.788 50.1755ZM182.79 46.004H186.638C186.543 44.6405 185.909 44.006 184.788 44.006C183.56 44.006 182.952 44.897 182.79 46.004ZM190.838 50V43.196H192.066V44.3435C192.498 43.5875 193.241 43.196 194.01 43.196H195.644V44.3435H193.916C192.836 44.3435 192.066 45.0455 192.066 46.409V50H190.838ZM208.647 52.241H206.838V51.296H208.485C209.214 51.296 209.754 51.0125 209.754 50.27V47.2325C209.754 46.4225 209.957 45.8825 210.848 45.734C209.957 45.572 209.754 45.0455 209.754 44.222V41.171C209.754 40.4285 209.214 40.1585 208.485 40.1585H206.838V39.2H208.647C209.97 39.2 210.942 39.7805 210.942 41.2385V44.195C210.942 44.7215 211.199 45.194 212.198 45.194V46.2605C211.199 46.2605 210.942 46.733 210.942 47.2595V50.216C210.942 51.6605 209.97 52.241 208.647 52.241ZM301.045 98.241C299.398 96.1755 298.656 94.1235 298.656 91.7475C298.656 89.3175 299.398 87.252 301.045 85.2H302.017C300.546 87.5625 299.952 89.439 299.952 91.7475C299.952 94.029 300.532 95.892 302.017 98.241H301.045ZM308.971 98.241C307.648 98.241 306.676 97.6605 306.676 96.216V93.2595C306.676 92.733 306.42 92.2605 305.421 92.2605V91.194C306.42 91.194 306.676 90.7215 306.676 90.195V87.2385C306.676 85.7805 307.648 85.2 308.971 85.2H310.78V86.1585H309.133C308.404 86.1585 307.864 86.4285 307.864 87.171V90.222C307.864 91.0455 307.662 91.572 306.771 91.734C307.662 91.8825 307.864 92.4225 307.864 93.2325V96.27C307.864 97.0125 308.404 97.296 309.133 97.296H310.78V98.241H308.971ZM27.4425 144.241H25.6335V143.296H27.2805C28.0095 143.296 28.5495 143.013 28.5495 142.27V139.232C28.5495 138.422 28.752 137.882 29.643 137.734C28.752 137.572 28.5495 137.045 28.5495 136.222V133.171C28.5495 132.428 28.0095 132.158 27.2805 132.158H25.6335V131.2H27.4425C28.7655 131.2 29.7375 131.78 29.7375 133.238V136.195C29.7375 136.721 29.994 137.194 30.993 137.194V138.26C29.994 138.26 29.7375 138.733 29.7375 139.259V142.216C29.7375 143.661 28.7655 144.241 27.4425 144.241ZM34.3966 144.241C35.8816 141.892 36.4621 140.029 36.4621 137.747C36.4621 135.439 35.8681 133.562 34.3966 131.2H35.3686C37.0156 133.252 37.7581 135.317 37.7581 137.747C37.7581 140.123 37.0156 142.176 35.3686 144.241H34.3966Z" fill="#E1E4E8"/>
        <path d="M266.519 44.249V40.55H267.586V44.249H266.519ZM274.432 50L271.691 43.196H272.974L275.201 48.9875L277.429 43.196H278.698L275.957 50H274.432ZM280.374 50V48.9875H282.912V44.2085H280.644V43.196H284.14V48.9875H286.665V50H280.374ZM282.858 42.035V40.55H284.208V42.035H282.858ZM292.201 50C291.04 50 290.487 49.5275 290.487 48.3935V44.1815H288.462V43.196H290.176C290.365 43.196 290.487 43.0745 290.487 42.899V40.9415H291.675V43.196H294.361V44.1815H291.675V48.2315C291.675 48.7175 291.877 49.001 292.485 49.001H294.658V50H292.201ZM300.1 50.1755C298.102 50.1755 296.847 48.65 296.847 46.598C296.847 44.5595 298.102 43.0205 300.1 43.0205C301.788 43.0205 303.273 43.979 303.111 46.9085H298.075C298.17 48.164 298.75 49.19 300.1 49.19C301.005 49.19 301.599 48.6365 301.801 48.002H302.989C302.8 49.136 301.734 50.1755 300.1 50.1755ZM298.102 46.004H301.95C301.855 44.6405 301.221 44.006 300.1 44.006C298.872 44.006 298.264 44.897 298.102 46.004ZM307.702 44.249V40.55H308.769V44.249H307.702Z" fill="#9ECBFF"/>
        <path d="M77.7395 96.1755C75.9575 96.1755 74.8505 95.3115 74.729 93.867H75.944C76.106 94.7715 76.7135 95.2035 77.7665 95.2035C78.6845 95.2035 79.2515 94.785 79.2515 94.137C79.2515 93.6375 78.887 93.2865 78.185 93.165L76.8485 92.895C75.8765 92.706 74.918 92.247 74.918 91.005C74.918 89.871 75.9845 89.0205 77.5775 89.0205C79.1165 89.0205 80.237 89.6685 80.372 91.1535H79.157C79.0355 90.3975 78.4685 89.9925 77.564 89.9925C76.7 89.9925 76.1195 90.3975 76.1195 90.9645C76.1195 91.5045 76.592 91.761 77.132 91.869L78.5495 92.139C79.508 92.328 80.48 92.8545 80.48 94.0695C80.48 95.3385 79.3595 96.1755 77.7395 96.1755ZM85.9491 96.1755C83.9511 96.1755 82.6956 94.65 82.6956 92.598C82.6956 90.5595 83.9511 89.0205 85.9491 89.0205C87.6366 89.0205 89.1216 89.979 88.9596 92.9085H83.9241C84.0186 94.164 84.5991 95.19 85.9491 95.19C86.8536 95.19 87.4476 94.6365 87.6501 94.002H88.8381C88.6491 95.136 87.5826 96.1755 85.9491 96.1755ZM83.9511 92.004H87.7986C87.7041 90.6405 87.0696 90.006 85.9491 90.006C84.7206 90.006 84.1131 90.897 83.9511 92.004ZM91.9987 96V89.196H93.2272V90.3435C93.6592 89.5875 94.4017 89.196 95.1712 89.196H96.8047V90.3435H95.0767C93.9967 90.3435 93.2272 91.0455 93.2272 92.409V96H91.9987ZM101.464 96L98.7232 89.196H100.006L102.233 94.9875L104.461 89.196H105.73L102.989 96H101.464ZM110.659 96.1755C108.661 96.1755 107.405 94.65 107.405 92.598C107.405 90.5595 108.661 89.0205 110.659 89.0205C112.346 89.0205 113.831 89.979 113.669 92.9085H108.634C108.728 94.164 109.309 95.19 110.659 95.19C111.563 95.19 112.157 94.6365 112.36 94.002H113.548C113.359 95.136 112.292 96.1755 110.659 96.1755ZM108.661 92.004H112.508C112.414 90.6405 111.779 90.006 110.659 90.006C109.43 90.006 108.823 90.897 108.661 92.004ZM116.708 96V89.196H117.937V90.3435C118.369 89.5875 119.111 89.196 119.881 89.196H121.514V90.3435H119.786C118.706 90.3435 117.937 91.0455 117.937 92.409V96H116.708Z" fill="#79B8FF"/>
        <path d="M201.329 96.1755C199.344 96.1755 198.048 94.6365 198.048 92.598C198.048 90.573 199.344 89.0205 201.342 89.0205C202.895 89.0205 204.042 89.9655 204.258 91.5315H203.043C202.854 90.573 202.193 90.0195 201.329 90.0195C199.911 90.0195 199.29 91.2345 199.29 92.5845C199.29 93.948 199.911 95.1765 201.329 95.1765C202.206 95.1765 202.8 94.7175 203.043 93.84H204.245C203.988 95.2305 202.949 96.1755 201.329 96.1755ZM207.311 96V89.196H208.539V90.3435C208.971 89.5875 209.714 89.196 210.483 89.196H212.117V90.3435H210.389C209.309 90.3435 208.539 91.0455 208.539 92.409V96H207.311ZM217.734 96.1755C215.736 96.1755 214.481 94.65 214.481 92.598C214.481 90.5595 215.736 89.0205 217.734 89.0205C219.422 89.0205 220.907 89.979 220.745 92.9085H215.709C215.804 94.164 216.384 95.19 217.734 95.19C218.639 95.19 219.233 94.6365 219.435 94.002H220.623C220.434 95.136 219.368 96.1755 217.734 96.1755ZM215.736 92.004H219.584C219.489 90.6405 218.855 90.006 217.734 90.006C216.506 90.006 215.898 90.897 215.736 92.004ZM224.891 96.1755C223.514 96.1755 222.609 95.3655 222.609 94.164C222.609 92.5845 223.986 92.2065 225.093 92.0715L226.551 91.8825C227.105 91.815 227.199 91.491 227.199 91.1805V91.167C227.199 90.5055 226.754 89.9925 225.728 89.9925C224.742 89.9925 224.162 90.4515 224.054 91.2885H222.852C223.001 89.9115 224.094 89.0205 225.714 89.0205C227.523 89.0205 228.387 89.925 228.387 91.4505V94.7445C228.387 94.9065 228.509 95.0145 228.671 95.0145H229.089V96H228.279C227.618 96 227.28 95.6625 227.28 95.163V95.001C226.686 95.8785 225.741 96.1755 224.891 96.1755ZM225.201 95.2035C226.403 95.2035 227.199 94.3125 227.199 92.9895V92.517C226.983 92.625 226.754 92.679 226.511 92.7195L225.323 92.895C224.297 93.057 223.851 93.4215 223.851 94.11C223.851 94.7985 224.378 95.2035 225.201 95.2035ZM234.545 96C233.384 96 232.831 95.5275 232.831 94.3935V90.1815H230.806V89.196H232.52C232.709 89.196 232.831 89.0745 232.831 88.899V86.9415H234.019V89.196H236.705V90.1815H234.019V94.2315C234.019 94.7175 234.221 95.001 234.829 95.001H237.002V96H234.545ZM242.444 96.1755C240.446 96.1755 239.191 94.65 239.191 92.598C239.191 90.5595 240.446 89.0205 242.444 89.0205C244.132 89.0205 245.617 89.979 245.455 92.9085H240.419C240.514 94.164 241.094 95.19 242.444 95.19C243.349 95.19 243.943 94.6365 244.145 94.002H245.333C245.144 95.136 244.078 96.1755 242.444 96.1755ZM240.446 92.004H244.294C244.199 90.6405 243.565 90.006 242.444 90.006C241.216 90.006 240.608 90.897 240.446 92.004ZM250.694 96.1755C248.386 96.1755 247.009 94.7715 246.941 93.0705H248.21C248.399 94.353 249.425 95.0955 250.708 95.0955C251.869 95.0955 252.922 94.569 252.922 93.435C252.922 92.6925 252.436 92.274 251.423 91.9905L249.884 91.572C248.71 91.2615 247.306 90.789 247.306 88.9935C247.306 87.441 248.696 86.3745 250.6 86.3745C252.611 86.3745 253.826 87.576 253.907 89.1825H252.638C252.449 88.089 251.734 87.4275 250.573 87.4275C249.452 87.4275 248.602 88.0215 248.602 88.926C248.602 89.6955 249.101 90.0735 250.181 90.3705L251.774 90.8025C253.367 91.2345 254.218 91.9905 254.218 93.3405C254.218 95.0955 252.773 96.1755 250.694 96.1755ZM258.917 96.1755C256.919 96.1755 255.664 94.65 255.664 92.598C255.664 90.5595 256.919 89.0205 258.917 89.0205C260.605 89.0205 262.09 89.979 261.928 92.9085H256.892C256.987 94.164 257.567 95.19 258.917 95.19C259.822 95.19 260.416 94.6365 260.618 94.002H261.806C261.617 95.136 260.551 96.1755 258.917 96.1755ZM256.919 92.004H260.767C260.672 90.6405 260.038 90.006 258.917 90.006C257.689 90.006 257.081 90.897 256.919 92.004ZM264.967 96V89.196H266.195V90.3435C266.627 89.5875 267.37 89.196 268.139 89.196H269.773V90.3435H268.045C266.965 90.3435 266.195 91.0455 266.195 92.409V96H264.967ZM274.432 96L271.691 89.196H272.974L275.201 94.9875L277.429 89.196H278.698L275.957 96H274.432ZM283.627 96.1755C281.629 96.1755 280.374 94.65 280.374 92.598C280.374 90.5595 281.629 89.0205 283.627 89.0205C285.315 89.0205 286.8 89.979 286.638 92.9085H281.602C281.697 94.164 282.277 95.19 283.627 95.19C284.532 95.19 285.126 94.6365 285.328 94.002H286.516C286.327 95.136 285.261 96.1755 283.627 96.1755ZM281.629 92.004H285.477C285.382 90.6405 284.748 90.006 283.627 90.006C282.399 90.006 281.791 90.897 281.629 92.004ZM289.677 96V89.196H290.905V90.3435C291.337 89.5875 292.08 89.196 292.849 89.196H294.483V90.3435H292.755C291.675 90.3435 290.905 91.0455 290.905 92.409V96H289.677Z" fill="#B392F0"/>
        <path d="M41.9852 120.323L46.1432 109.55H47.3177L43.1597 120.323H41.9852ZM50.2217 120.323L54.3797 109.55H55.5542L51.3962 120.323H50.2217ZM68.9089 119.176C67.4374 119.176 66.4114 118.244 66.4114 116.435V112.196H67.6129V116.367C67.6129 117.555 68.2744 118.176 69.2734 118.176C70.3264 118.176 71.2039 117.326 71.2039 116.124V112.196H72.3919V119H71.2039V117.974C70.7584 118.73 69.8944 119.176 68.9089 119.176ZM77.7395 119.176C75.9575 119.176 74.8505 118.311 74.729 116.867H75.944C76.106 117.771 76.7135 118.203 77.7665 118.203C78.6845 118.203 79.2515 117.785 79.2515 117.137C79.2515 116.637 78.887 116.286 78.185 116.165L76.8485 115.895C75.8765 115.706 74.918 115.247 74.918 114.005C74.918 112.871 75.9845 112.02 77.5775 112.02C79.1165 112.02 80.237 112.668 80.372 114.153H79.157C79.0355 113.397 78.4685 112.992 77.564 112.992C76.7 112.992 76.1195 113.397 76.1195 113.964C76.1195 114.504 76.592 114.761 77.132 114.869L78.5495 115.139C79.508 115.328 80.48 115.854 80.48 117.069C80.48 118.338 79.3595 119.176 77.7395 119.176ZM85.9491 119.176C83.9511 119.176 82.6956 117.65 82.6956 115.598C82.6956 113.559 83.9511 112.02 85.9491 112.02C87.6366 112.02 89.1216 112.979 88.9596 115.908H83.9241C84.0186 117.164 84.5991 118.19 85.9491 118.19C86.8536 118.19 87.4476 117.636 87.6501 117.002H88.8381C88.6491 118.136 87.5826 119.176 85.9491 119.176ZM83.9511 115.004H87.7986C87.7041 113.64 87.0696 113.006 85.9491 113.006C84.7206 113.006 84.1131 113.897 83.9511 115.004ZM91.9987 119V112.196H93.2272V113.343C93.6592 112.587 94.4017 112.196 95.1712 112.196H96.8047V113.343H95.0767C93.9967 113.343 93.2272 114.045 93.2272 115.409V119H91.9987ZM110.726 119.176C108.742 119.176 107.446 117.636 107.446 115.598C107.446 113.573 108.742 112.02 110.74 112.02C112.292 112.02 113.44 112.965 113.656 114.531H112.441C112.252 113.573 111.59 113.019 110.726 113.019C109.309 113.019 108.688 114.234 108.688 115.584C108.688 116.948 109.309 118.176 110.726 118.176C111.604 118.176 112.198 117.717 112.441 116.84H113.642C113.386 118.23 112.346 119.176 110.726 119.176ZM118.787 119.176C116.722 119.176 115.507 117.636 115.507 115.598C115.507 113.573 116.722 112.02 118.787 112.02C120.853 112.02 122.068 113.573 122.068 115.598C122.068 117.636 120.853 119.176 118.787 119.176ZM118.787 118.176C120.272 118.176 120.839 116.907 120.839 115.584C120.839 114.275 120.272 113.019 118.787 113.019C117.302 113.019 116.735 114.275 116.735 115.584C116.735 116.907 117.302 118.176 118.787 118.176ZM124.067 119V112.196H125.269V113.222C125.701 112.466 126.578 112.02 127.55 112.02C129.022 112.02 130.048 112.952 130.048 114.761V119H128.86V114.828C128.86 113.64 128.185 113.019 127.199 113.019C126.133 113.019 125.269 113.87 125.269 115.071V119H124.067ZM134.127 119V113.181H132.102V112.196H133.816C134.005 112.196 134.127 112.074 134.127 111.899V111.305C134.127 110.184 134.64 109.55 135.814 109.55H138.231V110.535H136.044C135.517 110.535 135.315 110.792 135.315 111.359V112.196H138.136V113.181H135.315V119H134.127ZM140.352 119V117.987H142.89V113.208H140.622V112.196H144.118V117.987H146.643V119H140.352ZM142.836 111.035V109.55H144.186V111.035H142.836ZM151.68 121.376C149.965 121.376 148.885 120.647 148.71 119.351H149.925C150.127 120.094 150.667 120.404 151.72 120.404C152.692 120.404 153.597 119.905 153.597 118.527V117.65C153.084 118.5 152.274 118.851 151.383 118.851C149.749 118.851 148.413 117.407 148.413 115.422C148.413 113.438 149.749 112.02 151.383 112.02C152.287 112.02 153.151 112.439 153.597 113.208V112.196H154.785V118.514C154.785 120.62 153.286 121.376 151.68 121.376ZM151.639 117.879C152.854 117.879 153.664 116.826 153.664 115.409C153.664 113.978 152.854 113.019 151.639 113.019C150.424 113.019 149.628 113.978 149.628 115.409C149.628 116.826 150.424 117.879 151.639 117.879ZM168.207 119.176C166.141 119.176 164.926 117.636 164.926 115.598C164.926 113.573 166.141 112.02 168.207 112.02C170.272 112.02 171.487 113.573 171.487 115.598C171.487 117.636 170.272 119.176 168.207 119.176ZM168.207 118.176C169.692 118.176 170.259 116.907 170.259 115.584C170.259 114.275 169.692 113.019 168.207 113.019C166.722 113.019 166.155 114.275 166.155 115.584C166.155 116.907 166.722 118.176 168.207 118.176ZM173.338 121.241V112.196H174.526V113.222C175.08 112.412 175.849 112.02 176.808 112.02C178.428 112.02 179.764 113.478 179.764 115.625C179.764 117.758 178.428 119.176 176.808 119.176C175.849 119.176 175.012 118.77 174.526 117.987V121.241H173.338ZM176.511 118.176C177.78 118.176 178.522 117.11 178.522 115.625C178.522 114.126 177.78 113.019 176.511 113.019C175.228 113.019 174.472 114.126 174.472 115.611C174.472 117.083 175.228 118.176 176.511 118.176ZM185.126 119C183.965 119 183.411 118.527 183.411 117.393V113.181H181.386V112.196H183.101C183.29 112.196 183.411 112.074 183.411 111.899V109.941H184.599V112.196H187.286V113.181H184.599V117.231C184.599 117.717 184.802 118.001 185.409 118.001H187.583V119H185.126ZM189.771 119V117.987H192.309V113.208H190.041V112.196H193.538V117.987H196.062V119H189.771ZM192.255 111.035V109.55H193.605V111.035H192.255ZM201.153 119.176C199.088 119.176 197.873 117.636 197.873 115.598C197.873 113.573 199.088 112.02 201.153 112.02C203.219 112.02 204.434 113.573 204.434 115.598C204.434 117.636 203.219 119.176 201.153 119.176ZM201.153 118.176C202.638 118.176 203.205 116.907 203.205 115.584C203.205 114.275 202.638 113.019 201.153 113.019C199.668 113.019 199.101 114.275 199.101 115.584C199.101 116.907 199.668 118.176 201.153 118.176ZM206.433 119V112.196H207.635V113.222C208.067 112.466 208.944 112.02 209.916 112.02C211.388 112.02 212.414 112.952 212.414 114.761V119H211.226V114.828C211.226 113.64 210.551 113.019 209.565 113.019C208.499 113.019 207.635 113.87 207.635 115.071V119H206.433ZM217.761 119.176C215.979 119.176 214.872 118.311 214.751 116.867H215.966C216.128 117.771 216.735 118.203 217.788 118.203C218.706 118.203 219.273 117.785 219.273 117.137C219.273 116.637 218.909 116.286 218.207 116.165L216.87 115.895C215.898 115.706 214.94 115.247 214.94 114.005C214.94 112.871 216.006 112.02 217.599 112.02C219.138 112.02 220.259 112.668 220.394 114.153H219.179C219.057 113.397 218.49 112.992 217.586 112.992C216.722 112.992 216.141 113.397 216.141 113.964C216.141 114.504 216.614 114.761 217.154 114.869L218.571 115.139C219.53 115.328 220.502 115.854 220.502 117.069C220.502 118.338 219.381 119.176 217.761 119.176Z" fill="#6A737D"/>
    </g>
    <rect x="129.451" y="174.971" width="53.3564" height="17.0579" rx="2" fill="#3B3440"/>
    <path d="M27.213 188.176C25.836 188.176 24.9315 187.365 24.9315 186.164C24.9315 184.584 26.3085 184.206 27.4155 184.071L28.8735 183.882C29.427 183.815 29.5215 183.491 29.5215 183.18V183.167C29.5215 182.505 29.076 181.992 28.05 181.992C27.0645 181.992 26.484 182.451 26.376 183.288H25.1745C25.323 181.911 26.4165 181.02 28.0365 181.02C29.8455 181.02 30.7095 181.925 30.7095 183.45V186.744C30.7095 186.906 30.831 187.014 30.993 187.014H31.4115V188H30.6015C29.94 188 29.6025 187.662 29.6025 187.163V187.001C29.0085 187.878 28.0635 188.176 27.213 188.176ZM27.5235 187.203C28.725 187.203 29.5215 186.312 29.5215 184.989V184.517C29.3055 184.625 29.076 184.679 28.833 184.719L27.645 184.895C26.619 185.057 26.1735 185.421 26.1735 186.11C26.1735 186.798 26.7 187.203 27.5235 187.203ZM33.9241 188L32.6686 181.196H33.8026L34.6936 186.812L35.8681 183.113H36.9886L38.1496 186.771L39.0541 181.196H40.1881L38.9326 188H37.5826L36.4351 184.463L35.2741 188H33.9241ZM43.6862 188.176C42.3092 188.176 41.4047 187.365 41.4047 186.164C41.4047 184.584 42.7817 184.206 43.8887 184.071L45.3467 183.882C45.9002 183.815 45.9947 183.491 45.9947 183.18V183.167C45.9947 182.505 45.5492 181.992 44.5232 181.992C43.5377 181.992 42.9572 182.451 42.8492 183.288H41.6477C41.7962 181.911 42.8897 181.02 44.5097 181.02C46.3187 181.02 47.1827 181.925 47.1827 183.45V186.744C47.1827 186.906 47.3042 187.014 47.4662 187.014H47.8847V188H47.0747C46.4132 188 46.0757 187.662 46.0757 187.163V187.001C45.4817 187.878 44.5367 188.176 43.6862 188.176ZM43.9967 187.203C45.1982 187.203 45.9947 186.312 45.9947 184.989V184.517C45.7787 184.625 45.5492 184.679 45.3062 184.719L44.1182 184.895C43.0922 185.057 42.6467 185.421 42.6467 186.11C42.6467 186.798 43.1732 187.203 43.9967 187.203ZM49.7492 188V186.987H52.2872V182.208H50.0192V181.196H53.5157V186.987H56.0402V188H49.7492ZM52.2332 180.035V178.55H53.5832V180.035H52.2332ZM61.5768 188C60.4158 188 59.8623 187.527 59.8623 186.393V182.181H57.8373V181.196H59.5518C59.7408 181.196 59.8623 181.074 59.8623 180.899V178.941H61.0503V181.196H63.7368V182.181H61.0503V186.231C61.0503 186.717 61.2528 187.001 61.8603 187.001H64.0338V188H61.5768Z" fill="#E3B3FA"/>
    <path d="M77.7395 188.176C75.9575 188.176 74.8505 187.311 74.729 185.867H75.944C76.106 186.771 76.7135 187.203 77.7665 187.203C78.6845 187.203 79.2515 186.785 79.2515 186.137C79.2515 185.637 78.887 185.286 78.185 185.165L76.8485 184.895C75.8765 184.706 74.918 184.247 74.918 183.005C74.918 181.871 75.9845 181.02 77.5775 181.02C79.1165 181.02 80.237 181.668 80.372 183.153H79.157C79.0355 182.397 78.4685 181.992 77.564 181.992C76.7 181.992 76.1195 182.397 76.1195 182.964C76.1195 183.504 76.592 183.761 77.132 183.869L78.5495 184.139C79.508 184.328 80.48 184.854 80.48 186.069C80.48 187.338 79.3595 188.176 77.7395 188.176ZM85.9491 188.176C83.9511 188.176 82.6956 186.65 82.6956 184.598C82.6956 182.559 83.9511 181.02 85.9491 181.02C87.6366 181.02 89.1216 181.979 88.9596 184.908H83.9241C84.0186 186.164 84.5991 187.19 85.9491 187.19C86.8536 187.19 87.4476 186.636 87.6501 186.002H88.8381C88.6491 187.136 87.5826 188.176 85.9491 188.176ZM83.9511 184.004H87.7986C87.7041 182.64 87.0696 182.006 85.9491 182.006C84.7206 182.006 84.1131 182.897 83.9511 184.004ZM91.9987 188V181.196H93.2272V182.343C93.6592 181.587 94.4017 181.196 95.1712 181.196H96.8047V182.343H95.0767C93.9967 182.343 93.2272 183.045 93.2272 184.409V188H91.9987ZM101.464 188L98.7232 181.196H100.006L102.233 186.987L104.461 181.196H105.73L102.989 188H101.464ZM110.659 188.176C108.661 188.176 107.405 186.65 107.405 184.598C107.405 182.559 108.661 181.02 110.659 181.02C112.346 181.02 113.831 181.979 113.669 184.908H108.634C108.728 186.164 109.309 187.19 110.659 187.19C111.563 187.19 112.157 186.636 112.36 186.002H113.548C113.359 187.136 112.292 188.176 110.659 188.176ZM108.661 184.004H112.508C112.414 182.64 111.779 182.006 110.659 182.006C109.43 182.006 108.823 182.897 108.661 184.004ZM116.708 188V181.196H117.937V182.343C118.369 181.587 119.111 181.196 119.881 181.196H121.514V182.343H119.786C118.706 182.343 117.937 183.045 117.937 184.409V188H116.708ZM126.241 188V186.38H127.807V188H126.241ZM185.733 190.241C184.086 188.176 183.344 186.123 183.344 183.747C183.344 181.317 184.086 179.252 185.733 177.2H186.705C185.234 179.562 184.64 181.439 184.64 183.747C184.64 186.029 185.22 187.892 186.705 190.241H185.733ZM190.892 190.241C192.377 187.892 192.957 186.029 192.957 183.747C192.957 181.439 192.363 179.562 190.892 177.2H191.864C193.511 179.252 194.253 181.317 194.253 183.747C194.253 186.123 193.511 188.176 191.864 190.241H190.892Z" fill="#E1E4E8"/>
    <path d="M132.034 188V187.014H134.667V179.535H132.52V178.55H135.868V187.014H138.487V188H132.034ZM140.352 188V186.987H142.89V182.208H140.622V181.196H144.118V186.987H146.643V188H140.352ZM142.836 180.035V178.55H144.186V180.035H142.836ZM151.869 188.176C150.087 188.176 148.98 187.311 148.858 185.867H150.073C150.235 186.771 150.843 187.203 151.896 187.203C152.814 187.203 153.381 186.785 153.381 186.137C153.381 185.637 153.016 185.286 152.314 185.165L150.978 184.895C150.006 184.706 149.047 184.247 149.047 183.005C149.047 181.871 150.114 181.02 151.707 181.02C153.246 181.02 154.366 181.668 154.501 183.153H153.286C153.165 182.397 152.598 181.992 151.693 181.992C150.829 181.992 150.249 182.397 150.249 182.964C150.249 183.504 150.721 183.761 151.261 183.869L152.679 184.139C153.637 184.328 154.609 184.854 154.609 186.069C154.609 187.338 153.489 188.176 151.869 188.176ZM160.416 188C159.255 188 158.701 187.527 158.701 186.393V182.181H156.676V181.196H158.391C158.58 181.196 158.701 181.074 158.701 180.899V178.941H159.889V181.196H162.576V182.181H159.889V186.231C159.889 186.717 160.092 187.001 160.699 187.001H162.873V188H160.416ZM168.315 188.176C166.317 188.176 165.061 186.65 165.061 184.598C165.061 182.559 166.317 181.02 168.315 181.02C170.002 181.02 171.487 181.979 171.325 184.908H166.29C166.384 186.164 166.965 187.19 168.315 187.19C169.219 187.19 169.813 186.636 170.016 186.002H171.204C171.015 187.136 169.948 188.176 168.315 188.176ZM166.317 184.004H170.164C170.07 182.64 169.435 182.006 168.315 182.006C167.086 182.006 166.479 182.897 166.317 184.004ZM173.487 188V181.196H174.688V182.222C175.12 181.466 175.998 181.02 176.97 181.02C178.441 181.02 179.467 181.952 179.467 183.761V188H178.279V183.828C178.279 182.64 177.604 182.019 176.619 182.019C175.552 182.019 174.688 182.87 174.688 184.071V188H173.487Z" fill="#79B8FF"/>
    <g opacity="0.2" filter="url(#filter1_f_33_20)">
        <path d="M28.32 211.176C26.538 211.176 25.431 210.311 25.3095 208.867H26.5245C26.6865 209.771 27.294 210.203 28.347 210.203C29.265 210.203 29.832 209.785 29.832 209.137C29.832 208.637 29.4675 208.286 28.7655 208.165L27.429 207.895C26.457 207.706 25.4985 207.247 25.4985 206.005C25.4985 204.871 26.565 204.02 28.158 204.02C29.697 204.02 30.8175 204.668 30.9525 206.153H29.7375C29.616 205.397 29.049 204.992 28.1445 204.992C27.2805 204.992 26.7 205.397 26.7 205.964C26.7 206.504 27.1725 206.761 27.7125 206.869L29.13 207.139C30.0885 207.328 31.0605 207.854 31.0605 209.069C31.0605 210.338 29.94 211.176 28.32 211.176ZM36.5296 211.176C34.5316 211.176 33.2761 209.65 33.2761 207.598C33.2761 205.559 34.5316 204.02 36.5296 204.02C38.2171 204.02 39.7021 204.979 39.5401 207.908H34.5046C34.5991 209.164 35.1796 210.19 36.5296 210.19C37.4341 210.19 38.0281 209.636 38.2306 209.002H39.4186C39.2296 210.136 38.1631 211.176 36.5296 211.176ZM34.5316 207.004H38.3791C38.2846 205.64 37.6501 205.006 36.5296 205.006C35.3011 205.006 34.6936 205.897 34.5316 207.004ZM42.5792 211V204.196H43.8077V205.343C44.2397 204.587 44.9822 204.196 45.7517 204.196H47.3852V205.343H45.6572C44.5772 205.343 43.8077 206.045 43.8077 207.409V211H42.5792ZM52.0442 211L49.3037 204.196H50.5862L52.8137 209.987L55.0412 204.196H56.3102L53.5697 211H52.0442ZM61.2393 211.176C59.2413 211.176 57.9858 209.65 57.9858 207.598C57.9858 205.559 59.2413 204.02 61.2393 204.02C62.9268 204.02 64.4118 204.979 64.2498 207.908H59.2143C59.3088 209.164 59.8893 210.19 61.2393 210.19C62.1438 210.19 62.7378 209.636 62.9403 209.002H64.1283C63.9393 210.136 62.8728 211.176 61.2393 211.176ZM59.2413 207.004H63.0888C62.9943 205.64 62.3598 205.006 61.2393 205.006C60.0108 205.006 59.4033 205.897 59.2413 207.004ZM67.2889 211V204.196H68.5174V205.343C68.9494 204.587 69.6919 204.196 70.4614 204.196H72.0949V205.343H70.3669C69.2869 205.343 68.5174 206.045 68.5174 207.409V211H67.2889ZM76.8215 211V209.38H78.3875V211H76.8215ZM161.023 213.241C159.376 211.176 158.634 209.123 158.634 206.747C158.634 204.317 159.376 202.252 161.023 200.2H161.995C160.524 202.562 159.93 204.439 159.93 206.747C159.93 209.029 160.51 210.892 161.995 213.241H161.023ZM166.182 213.241C167.667 210.892 168.247 209.029 168.247 206.747C168.247 204.439 167.653 202.562 166.182 200.2H167.154C168.801 202.252 169.543 204.317 169.543 206.747C169.543 209.123 168.801 211.176 167.154 213.241H166.182Z" fill="#E1E4E8"/>
        <path d="M82.7361 213.241V204.196H83.9241V205.222C84.4776 204.412 85.2471 204.02 86.2056 204.02C87.8256 204.02 89.1621 205.478 89.1621 207.625C89.1621 209.758 87.8256 211.176 86.2056 211.176C85.2471 211.176 84.4101 210.77 83.9241 209.987V213.241H82.7361ZM85.9086 210.176C87.1776 210.176 87.9201 209.11 87.9201 207.625C87.9201 206.126 87.1776 205.019 85.9086 205.019C84.6261 205.019 83.8701 206.126 83.8701 207.611C83.8701 209.083 84.6261 210.176 85.9086 210.176ZM91.9987 211V204.196H93.2272V205.343C93.6592 204.587 94.4017 204.196 95.1712 204.196H96.8047V205.343H95.0767C93.9967 205.343 93.2272 206.045 93.2272 207.409V211H91.9987ZM99.1687 211V209.987H101.707V205.208H99.4387V204.196H102.935V209.987H105.46V211H99.1687ZM101.653 203.035V201.55H103.003V203.035H101.653ZM107.594 211V204.196H108.796V205.222C109.228 204.466 110.105 204.02 111.077 204.02C112.549 204.02 113.575 204.952 113.575 206.761V211H112.387V206.828C112.387 205.64 111.712 205.019 110.726 205.019C109.66 205.019 108.796 205.87 108.796 207.071V211H107.594ZM119.233 211C118.072 211 117.518 210.527 117.518 209.393V205.181H115.493V204.196H117.208C117.397 204.196 117.518 204.074 117.518 203.899V201.941H118.706V204.196H121.393V205.181H118.706V209.231C118.706 209.717 118.909 210.001 119.516 210.001H121.69V211H119.233ZM127.024 211.176C125.161 211.176 123.73 210.122 123.73 207.787V201.55H124.958V207.652C124.958 209.447 125.903 210.109 127.024 210.109C128.144 210.109 129.089 209.447 129.089 207.652V201.55H130.318V207.787C130.318 210.122 128.887 211.176 127.024 211.176ZM133.182 211V204.196H134.41V205.343C134.842 204.587 135.585 204.196 136.354 204.196H137.988V205.343H136.26C135.18 205.343 134.41 206.045 134.41 207.409V211H133.182ZM140.271 211V210.014H142.903V202.535H140.757V201.55H144.105V210.014H146.724V211H140.271ZM151.869 211.176C150.087 211.176 148.98 210.311 148.858 208.867H150.073C150.235 209.771 150.843 210.203 151.896 210.203C152.814 210.203 153.381 209.785 153.381 209.137C153.381 208.637 153.016 208.286 152.314 208.165L150.978 207.895C150.006 207.706 149.047 207.247 149.047 206.005C149.047 204.871 150.114 204.02 151.707 204.02C153.246 204.02 154.366 204.668 154.501 206.153H153.286C153.165 205.397 152.598 204.992 151.693 204.992C150.829 204.992 150.249 205.397 150.249 205.964C150.249 206.504 150.721 206.761 151.261 206.869L152.679 207.139C153.637 207.328 154.609 207.854 154.609 209.069C154.609 210.338 153.489 211.176 151.869 211.176Z" fill="#B392F0"/>
    </g>
    <rect x="129.451" width="324" height="148" rx="4" fill="#14121A"/>
    <rect x="129.951" y="0.5" width="323" height="147" rx="3.5" stroke="white" stroke-opacity="0.15"/>
    <path d="M148.853 32L145.762 22.55H147.044L149.65 30.785L152.242 22.55H153.511L150.433 32H148.853ZM154.727 32V30.9875H157.265V26.2085H154.997V25.196H158.494V30.9875H161.018V32H154.727ZM157.211 24.035V22.55H158.561V24.035H157.211ZM166.555 32C165.394 32 164.84 31.5275 164.84 30.3935V26.1815H162.815V25.196H164.53C164.719 25.196 164.84 25.0745 164.84 24.899V22.9415H166.028V25.196H168.715V26.1815H166.028V30.2315C166.028 30.7175 166.231 31.001 166.838 31.001H169.012V32H166.555ZM174.454 32.1755C172.456 32.1755 171.2 30.65 171.2 28.598C171.2 26.5595 172.456 25.0205 174.454 25.0205C176.141 25.0205 177.626 25.979 177.464 28.9085H172.429C172.523 30.164 173.104 31.19 174.454 31.19C175.358 31.19 175.952 30.6365 176.155 30.002H177.343C177.154 31.136 176.087 32.1755 174.454 32.1755ZM172.456 28.004H176.303C176.209 26.6405 175.574 26.006 174.454 26.006C173.225 26.006 172.618 26.897 172.456 28.004ZM179.383 32V22.55H181.975C184.553 22.55 186.146 24.5345 186.146 27.275C186.146 30.0155 184.553 32 181.975 32H179.383ZM181.907 30.9605C183.77 30.9605 184.85 29.489 184.85 27.275C184.85 25.061 183.77 23.5895 181.907 23.5895H180.611V30.9605H181.907ZM190.927 32.1755C188.929 32.1755 187.674 30.65 187.674 28.598C187.674 26.5595 188.929 25.0205 190.927 25.0205C192.615 25.0205 194.1 25.979 193.938 28.9085H188.902C188.997 30.164 189.577 31.19 190.927 31.19C191.832 31.19 192.426 30.6365 192.628 30.002H193.816C193.627 31.136 192.561 32.1755 190.927 32.1755ZM188.929 28.004H192.777C192.682 26.6405 192.048 26.006 190.927 26.006C189.699 26.006 189.091 26.897 188.929 28.004ZM198.205 32L195.465 25.196H196.747L198.975 30.9875L201.202 25.196H202.471L199.731 32H198.205ZM207.414 32.1755C205.105 32.1755 203.728 30.7715 203.661 29.0705H204.93C205.119 30.353 206.145 31.0955 207.427 31.0955C208.588 31.0955 209.641 30.569 209.641 29.435C209.641 28.6925 209.155 28.274 208.143 27.9905L206.604 27.572C205.429 27.2615 204.025 26.789 204.025 24.9935C204.025 23.441 205.416 22.3745 207.319 22.3745C209.331 22.3745 210.546 23.576 210.627 25.1825H209.358C209.169 24.089 208.453 23.4275 207.292 23.4275C206.172 23.4275 205.321 24.0215 205.321 24.926C205.321 25.6955 205.821 26.0735 206.901 26.3705L208.494 26.8025C210.087 27.2345 210.937 27.9905 210.937 29.3405C210.937 31.0955 209.493 32.1755 207.414 32.1755ZM215.637 32.1755C213.639 32.1755 212.383 30.65 212.383 28.598C212.383 26.5595 213.639 25.0205 215.637 25.0205C217.324 25.0205 218.809 25.979 218.647 28.9085H213.612C213.706 30.164 214.287 31.19 215.637 31.19C216.541 31.19 217.135 30.6365 217.338 30.002H218.526C218.337 31.136 217.27 32.1755 215.637 32.1755ZM213.639 28.004H217.486C217.392 26.6405 216.757 26.006 215.637 26.006C214.408 26.006 213.801 26.897 213.639 28.004ZM221.686 32V25.196H222.915V26.3435C223.347 25.5875 224.089 25.196 224.859 25.196H226.492V26.3435H224.764C223.684 26.3435 222.915 27.0455 222.915 28.409V32H221.686ZM231.151 32L228.411 25.196H229.693L231.921 30.9875L234.148 25.196H235.417L232.677 32H231.151ZM240.347 32.1755C238.349 32.1755 237.093 30.65 237.093 28.598C237.093 26.5595 238.349 25.0205 240.347 25.0205C242.034 25.0205 243.519 25.979 243.357 28.9085H238.322C238.416 30.164 238.997 31.19 240.347 31.19C241.251 31.19 241.845 30.6365 242.048 30.002H243.236C243.047 31.136 241.98 32.1755 240.347 32.1755ZM238.349 28.004H242.196C242.102 26.6405 241.467 26.006 240.347 26.006C239.118 26.006 238.511 26.897 238.349 28.004ZM246.396 32V25.196H247.625V26.3435C248.057 25.5875 248.799 25.196 249.569 25.196H251.202V26.3435H249.474C248.394 26.3435 247.625 27.0455 247.625 28.409V32H246.396ZM255.929 32V30.38H257.495V32H255.929ZM315.421 34.241C313.774 32.1755 313.031 30.1235 313.031 27.7475C313.031 25.3175 313.774 23.252 315.421 21.2H316.393C314.921 23.5625 314.327 25.439 314.327 27.7475C314.327 30.029 314.908 31.892 316.393 34.241H315.421ZM319.499 34.241V25.196H320.687V26.222C321.241 25.412 322.01 25.0205 322.969 25.0205C324.589 25.0205 325.925 26.4785 325.925 28.625C325.925 30.758 324.589 32.1755 322.969 32.1755C322.01 32.1755 321.173 31.7705 320.687 30.9875V34.241H319.499ZM322.672 31.1765C323.941 31.1765 324.683 30.11 324.683 28.625C324.683 27.1265 323.941 26.0195 322.672 26.0195C321.389 26.0195 320.633 27.1265 320.633 28.6115C320.633 30.083 321.389 31.1765 322.672 31.1765ZM330.841 32.1755C328.775 32.1755 327.56 30.6365 327.56 28.598C327.56 26.573 328.775 25.0205 330.841 25.0205C332.906 25.0205 334.121 26.573 334.121 28.598C334.121 30.6365 332.906 32.1755 330.841 32.1755ZM330.841 31.1765C332.326 31.1765 332.893 29.9075 332.893 28.5845C332.893 27.275 332.326 26.0195 330.841 26.0195C329.356 26.0195 328.789 27.275 328.789 28.5845C328.789 29.9075 329.356 31.1765 330.841 31.1765ZM336.999 32V25.196H338.227V26.3435C338.659 25.5875 339.402 25.196 340.171 25.196H341.805V26.3435H340.077C338.997 26.3435 338.227 27.0455 338.227 28.409V32H336.999ZM347.76 32C346.599 32 346.045 31.5275 346.045 30.3935V26.1815H344.02V25.196H345.735C345.924 25.196 346.045 25.0745 346.045 24.899V22.9415H347.233V25.196H349.92V26.1815H347.233V30.2315C347.233 30.7175 347.436 31.001 348.043 31.001H350.217V32H347.76ZM377.304 32V25.196H378.505V26.222C378.937 25.466 379.815 25.0205 380.787 25.0205C382.258 25.0205 383.284 25.952 383.284 27.761V32H382.096V27.8285C382.096 26.6405 381.421 26.0195 380.436 26.0195C379.369 26.0195 378.505 26.87 378.505 28.0715V32H377.304ZM388.038 32.1755C386.567 32.1755 385.541 31.244 385.541 29.435V25.196H386.742V29.3675C386.742 30.5555 387.404 31.1765 388.403 31.1765C389.456 31.1765 390.333 30.326 390.333 29.1245V25.196H391.521V32H390.333V30.974C389.888 31.73 389.024 32.1755 388.038 32.1755ZM393.413 32V25.196H394.56V25.7765C394.83 25.2905 395.343 25.0205 395.897 25.0205C396.585 25.0205 396.99 25.439 397.125 25.8305C397.517 25.1825 398.097 25.0205 398.637 25.0205C399.515 25.0205 400.109 25.682 400.109 26.8025V32H398.961V27.0185C398.961 26.3705 398.732 26.06 398.313 26.06C397.787 26.06 397.328 26.546 397.328 27.3695V32H396.194V27.0185C396.194 26.3705 395.951 26.06 395.532 26.06C395.006 26.06 394.56 26.546 394.56 27.3695V32H393.413ZM405.335 32.1755C404.376 32.1755 403.607 31.784 403.067 30.974V32H401.865V22.55H403.067V26.2085C403.553 25.4255 404.376 25.0205 405.335 25.0205C406.968 25.0205 408.291 26.438 408.291 28.571C408.291 30.7175 406.968 32.1755 405.335 32.1755ZM405.038 31.1765C406.307 31.1765 407.049 30.0695 407.049 28.571C407.049 27.086 406.307 26.0195 405.038 26.0195C403.755 26.0195 402.999 27.113 402.999 28.5845C402.999 30.0695 403.755 31.1765 405.038 31.1765ZM413.315 32.1755C411.317 32.1755 410.061 30.65 410.061 28.598C410.061 26.5595 411.317 25.0205 413.315 25.0205C415.002 25.0205 416.487 25.979 416.325 28.9085H411.29C411.384 30.164 411.965 31.19 413.315 31.19C414.219 31.19 414.813 30.6365 415.016 30.002H416.204C416.015 31.136 414.948 32.1755 413.315 32.1755ZM411.317 28.004H415.164C415.07 26.6405 414.435 26.006 413.315 26.006C412.086 26.006 411.479 26.897 411.317 28.004ZM419.364 32V25.196H420.593V26.3435C421.025 25.5875 421.767 25.196 422.537 25.196H424.17V26.3435H422.442C421.362 26.3435 420.593 27.0455 420.593 28.409V32H419.364ZM253.566 55V53.9875H256.104V49.2085H253.836V48.196H257.333V53.9875H259.857V55H253.566ZM256.05 47.035V45.55H257.4V47.035H256.05ZM265.083 55.1755C263.301 55.1755 262.194 54.3115 262.073 52.867H263.288C263.45 53.7715 264.057 54.2035 265.11 54.2035C266.028 54.2035 266.595 53.785 266.595 53.137C266.595 52.6375 266.231 52.2865 265.529 52.165L264.192 51.895C263.22 51.706 262.262 51.247 262.262 50.005C262.262 48.871 263.328 48.0205 264.921 48.0205C266.46 48.0205 267.581 48.6685 267.716 50.1535H266.501C266.379 49.3975 265.812 48.9925 264.908 48.9925C264.044 48.9925 263.463 49.3975 263.463 49.9645C263.463 50.5045 263.936 50.761 264.476 50.869L265.893 51.139C266.852 51.328 267.824 51.8545 267.824 53.0695C267.824 54.3385 266.703 55.1755 265.083 55.1755ZM269.985 55V45.55H273.59C275.237 45.55 276.465 46.5625 276.465 48.2905C276.465 49.654 275.682 50.5855 274.535 50.896L276.614 55H275.25L273.239 51.0175H271.214V55H269.985ZM273.387 49.9915C274.521 49.9915 275.183 49.357 275.183 48.2905C275.183 47.197 274.521 46.576 273.387 46.576H271.214V49.9915H273.387ZM281.529 55.1755C279.531 55.1755 278.276 53.65 278.276 51.598C278.276 49.5595 279.531 48.0205 281.529 48.0205C283.217 48.0205 284.702 48.979 284.54 51.9085H279.504C279.599 53.164 280.179 54.19 281.529 54.19C282.434 54.19 283.028 53.6365 283.23 53.002H284.418C284.229 54.136 283.163 55.1755 281.529 55.1755ZM279.531 51.004H283.379C283.284 49.6405 282.65 49.006 281.529 49.006C280.301 49.006 279.693 49.897 279.531 51.004ZM289.793 55.1755C288.011 55.1755 286.904 54.3115 286.783 52.867H287.998C288.16 53.7715 288.767 54.2035 289.82 54.2035C290.738 54.2035 291.305 53.785 291.305 53.137C291.305 52.6375 290.941 52.2865 290.239 52.165L288.902 51.895C287.93 51.706 286.972 51.247 286.972 50.005C286.972 48.871 288.038 48.0205 289.631 48.0205C291.17 48.0205 292.291 48.6685 292.426 50.1535H291.211C291.089 49.3975 290.522 48.9925 289.618 48.9925C288.754 48.9925 288.173 49.3975 288.173 49.9645C288.173 50.5045 288.646 50.761 289.186 50.869L290.603 51.139C291.562 51.328 292.534 51.8545 292.534 53.0695C292.534 54.3385 291.413 55.1755 289.793 55.1755ZM298.34 55C297.179 55 296.626 54.5275 296.626 53.3935V49.1815H294.601V48.196H296.315C296.504 48.196 296.626 48.0745 296.626 47.899V45.9415H297.814V48.196H300.5V49.1815H297.814V53.2315C297.814 53.7175 298.016 54.001 298.624 54.001H300.797V55H298.34ZM305.159 55.1755C303.782 55.1755 302.878 54.3655 302.878 53.164C302.878 51.5845 304.255 51.2065 305.362 51.0715L306.82 50.8825C307.373 50.815 307.468 50.491 307.468 50.1805V50.167C307.468 49.5055 307.022 48.9925 305.996 48.9925C305.011 48.9925 304.43 49.4515 304.322 50.2885H303.121C303.269 48.9115 304.363 48.0205 305.983 48.0205C307.792 48.0205 308.656 48.925 308.656 50.4505V53.7445C308.656 53.9065 308.777 54.0145 308.939 54.0145H309.358V55H308.548C307.886 55 307.549 54.6625 307.549 54.163V54.001C306.955 54.8785 306.01 55.1755 305.159 55.1755ZM305.47 54.2035C306.671 54.2035 307.468 53.3125 307.468 51.9895V51.517C307.252 51.625 307.022 51.679 306.779 51.7195L305.591 51.895C304.565 52.057 304.12 52.4215 304.12 53.11C304.12 53.7985 304.646 54.2035 305.47 54.2035ZM312.289 55V48.196H313.517V49.3435C313.949 48.5875 314.692 48.196 315.461 48.196H317.095V49.3435H315.367C314.287 49.3435 313.517 50.0455 313.517 51.409V55H312.289ZM323.05 55C321.889 55 321.335 54.5275 321.335 53.3935V49.1815H319.31V48.196H321.025C321.214 48.196 321.335 48.0745 321.335 47.899V45.9415H322.523V48.196H325.21V49.1815H322.523V53.2315C322.523 53.7175 322.726 54.001 323.333 54.001H325.507V55H323.05ZM355.915 55.1755C354.957 55.1755 354.187 54.784 353.647 53.974V55H352.446V45.55H353.647V49.2085C354.133 48.4255 354.957 48.0205 355.915 48.0205C357.549 48.0205 358.872 49.438 358.872 51.571C358.872 53.7175 357.549 55.1755 355.915 55.1755ZM355.618 54.1765C356.887 54.1765 357.63 53.0695 357.63 51.571C357.63 50.086 356.887 49.0195 355.618 49.0195C354.336 49.0195 353.58 50.113 353.58 51.5845C353.58 53.0695 354.336 54.1765 355.618 54.1765ZM363.787 55.1755C361.722 55.1755 360.507 53.6365 360.507 51.598C360.507 49.573 361.722 48.0205 363.787 48.0205C365.853 48.0205 367.068 49.573 367.068 51.598C367.068 53.6365 365.853 55.1755 363.787 55.1755ZM363.787 54.1765C365.272 54.1765 365.839 52.9075 365.839 51.5845C365.839 50.275 365.272 49.0195 363.787 49.0195C362.302 49.0195 361.735 50.275 361.735 51.5845C361.735 52.9075 362.302 54.1765 363.787 54.1765ZM372.024 55.1755C369.958 55.1755 368.743 53.6365 368.743 51.598C368.743 49.573 369.958 48.0205 372.024 48.0205C374.089 48.0205 375.304 49.573 375.304 51.598C375.304 53.6365 374.089 55.1755 372.024 55.1755ZM372.024 54.1765C373.509 54.1765 374.076 52.9075 374.076 51.5845C374.076 50.275 373.509 49.0195 372.024 49.0195C370.539 49.0195 369.972 50.275 369.972 51.5845C369.972 52.9075 370.539 54.1765 372.024 54.1765ZM377.034 55V54.0145H379.666V46.5355H377.52V45.55H380.868V54.0145H383.487V55H377.034ZM388.605 55.1755C386.607 55.1755 385.352 53.65 385.352 51.598C385.352 49.5595 386.607 48.0205 388.605 48.0205C390.293 48.0205 391.778 48.979 391.616 51.9085H386.58C386.675 53.164 387.255 54.19 388.605 54.19C389.51 54.19 390.104 53.6365 390.306 53.002H391.494C391.305 54.136 390.239 55.1755 388.605 55.1755ZM386.607 51.004H390.455C390.36 49.6405 389.726 49.006 388.605 49.006C387.377 49.006 386.769 49.897 386.607 51.004ZM395.762 55.1755C394.385 55.1755 393.48 54.3655 393.48 53.164C393.48 51.5845 394.857 51.2065 395.964 51.0715L397.422 50.8825C397.976 50.815 398.07 50.491 398.07 50.1805V50.167C398.07 49.5055 397.625 48.9925 396.599 48.9925C395.613 48.9925 395.033 49.4515 394.925 50.2885H393.723C393.872 48.9115 394.965 48.0205 396.585 48.0205C398.394 48.0205 399.258 48.925 399.258 50.4505V53.7445C399.258 53.9065 399.38 54.0145 399.542 54.0145H399.96V55H399.15C398.489 55 398.151 54.6625 398.151 54.163V54.001C397.557 54.8785 396.612 55.1755 395.762 55.1755ZM396.072 54.2035C397.274 54.2035 398.07 53.3125 398.07 51.9895V51.517C397.854 51.625 397.625 51.679 397.382 51.7195L396.194 51.895C395.168 52.057 394.722 52.4215 394.722 53.11C394.722 53.7985 395.249 54.2035 396.072 54.2035ZM402.014 55V48.196H403.215V49.222C403.647 48.466 404.525 48.0205 405.497 48.0205C406.968 48.0205 407.994 48.952 407.994 50.761V55H406.806V50.8285C406.806 49.6405 406.131 49.0195 405.146 49.0195C404.079 49.0195 403.215 49.87 403.215 51.0715V55H402.014ZM221.74 80.241C223.225 77.892 223.806 76.029 223.806 73.7475C223.806 71.439 223.212 69.5625 221.74 67.2H222.712C224.359 69.252 225.102 71.3175 225.102 73.7475C225.102 76.1235 224.359 78.1755 222.712 80.241H221.74ZM231.219 78V76.38H232.785V78H231.219ZM231.219 73.302V71.682H232.785V73.302H231.219ZM313.585 78L310.493 68.55H311.776L314.381 76.785L316.973 68.55H318.242L315.164 78H313.585ZM319.459 78V76.9875H321.997V72.2085H319.729V71.196H323.225V76.9875H325.75V78H319.459ZM321.943 70.035V68.55H323.293V70.035H321.943ZM331.286 78C330.125 78 329.572 77.5275 329.572 76.3935V72.1815H327.547V71.196H329.261C329.45 71.196 329.572 71.0745 329.572 70.899V68.9415H330.76V71.196H333.446V72.1815H330.76V76.2315C330.76 76.7175 330.962 77.001 331.57 77.001H333.743V78H331.286ZM339.186 78.1755C337.188 78.1755 335.932 76.65 335.932 74.598C335.932 72.5595 337.188 71.0205 339.186 71.0205C340.873 71.0205 342.358 71.979 342.196 74.9085H337.161C337.255 76.164 337.836 77.19 339.186 77.19C340.09 77.19 340.684 76.6365 340.887 76.002H342.075C341.886 77.136 340.819 78.1755 339.186 78.1755ZM337.188 74.004H341.035C340.941 72.6405 340.306 72.006 339.186 72.006C337.957 72.006 337.35 72.897 337.188 74.004ZM344.115 78V68.55H346.707C349.285 68.55 350.878 70.5345 350.878 73.275C350.878 76.0155 349.285 78 346.707 78H344.115ZM346.639 76.9605C348.502 76.9605 349.582 75.489 349.582 73.275C349.582 71.061 348.502 69.5895 346.639 69.5895H345.343V76.9605H346.639ZM355.659 78.1755C353.661 78.1755 352.405 76.65 352.405 74.598C352.405 72.5595 353.661 71.0205 355.659 71.0205C357.346 71.0205 358.831 71.979 358.669 74.9085H353.634C353.728 76.164 354.309 77.19 355.659 77.19C356.563 77.19 357.157 76.6365 357.36 76.002H358.548C358.359 77.136 357.292 78.1755 355.659 78.1755ZM353.661 74.004H357.508C357.414 72.6405 356.779 72.006 355.659 72.006C354.43 72.006 353.823 72.897 353.661 74.004ZM362.937 78L360.196 71.196H361.479L363.706 76.9875L365.934 71.196H367.203L364.462 78H362.937ZM372.145 78.1755C369.837 78.1755 368.46 76.7715 368.392 75.0705H369.661C369.85 76.353 370.876 77.0955 372.159 77.0955C373.32 77.0955 374.373 76.569 374.373 75.435C374.373 74.6925 373.887 74.274 372.874 73.9905L371.335 73.572C370.161 73.2615 368.757 72.789 368.757 70.9935C368.757 69.441 370.147 68.3745 372.051 68.3745C374.062 68.3745 375.277 69.576 375.358 71.1825H374.089C373.9 70.089 373.185 69.4275 372.024 69.4275C370.903 69.4275 370.053 70.0215 370.053 70.926C370.053 71.6955 370.552 72.0735 371.632 72.3705L373.225 72.8025C374.818 73.2345 375.669 73.9905 375.669 75.3405C375.669 77.0955 374.224 78.1755 372.145 78.1755ZM380.368 78.1755C378.37 78.1755 377.115 76.65 377.115 74.598C377.115 72.5595 378.37 71.0205 380.368 71.0205C382.056 71.0205 383.541 71.979 383.379 74.9085H378.343C378.438 76.164 379.018 77.19 380.368 77.19C381.273 77.19 381.867 76.6365 382.069 76.002H383.257C383.068 77.136 382.002 78.1755 380.368 78.1755ZM378.37 74.004H382.218C382.123 72.6405 381.489 72.006 380.368 72.006C379.14 72.006 378.532 72.897 378.37 74.004ZM386.418 78V71.196H387.647V72.3435C388.079 71.5875 388.821 71.196 389.591 71.196H391.224V72.3435H389.496C388.416 72.3435 387.647 73.0455 387.647 74.409V78H386.418ZM395.883 78L393.143 71.196H394.425L396.653 76.9875L398.88 71.196H400.149L397.409 78H395.883ZM405.078 78.1755C403.08 78.1755 401.825 76.65 401.825 74.598C401.825 72.5595 403.08 71.0205 405.078 71.0205C406.766 71.0205 408.251 71.979 408.089 74.9085H403.053C403.148 76.164 403.728 77.19 405.078 77.19C405.983 77.19 406.577 76.6365 406.779 76.002H407.967C407.778 77.136 406.712 78.1755 405.078 78.1755ZM403.08 74.004H406.928C406.833 72.6405 406.199 72.006 405.078 72.006C403.85 72.006 403.242 72.897 403.08 74.004ZM411.128 78V71.196H412.356V72.3435C412.788 71.5875 413.531 71.196 414.3 71.196H415.934V72.3435H414.206C413.126 72.3435 412.356 73.0455 412.356 74.409V78H411.128Z" fill="#F4F3EC"/>
    <path d="M261.722 32V31.0145H264.354V23.5355H262.208V22.55H265.556V31.0145H268.175V32H261.722ZM270.039 32V30.9875H272.577V26.2085H270.309V25.196H273.806V30.9875H276.33V32H270.039ZM272.523 24.035V22.55H273.873V24.035H272.523ZM281.556 32.1755C279.774 32.1755 278.667 31.3115 278.546 29.867H279.761C279.923 30.7715 280.53 31.2035 281.583 31.2035C282.501 31.2035 283.068 30.785 283.068 30.137C283.068 29.6375 282.704 29.2865 282.002 29.165L280.665 28.895C279.693 28.706 278.735 28.247 278.735 27.005C278.735 25.871 279.801 25.0205 281.394 25.0205C282.933 25.0205 284.054 25.6685 284.189 27.1535H282.974C282.852 26.3975 282.285 25.9925 281.381 25.9925C280.517 25.9925 279.936 26.3975 279.936 26.9645C279.936 27.5045 280.409 27.761 280.949 27.869L282.366 28.139C283.325 28.328 284.297 28.8545 284.297 30.0695C284.297 31.3385 283.176 32.1755 281.556 32.1755ZM290.104 32C288.943 32 288.389 31.5275 288.389 30.3935V26.1815H286.364V25.196H288.079C288.268 25.196 288.389 25.0745 288.389 24.899V22.9415H289.577V25.196H292.264V26.1815H289.577V30.2315C289.577 30.7175 289.78 31.001 290.387 31.001H292.561V32H290.104ZM298.003 32.1755C296.005 32.1755 294.749 30.65 294.749 28.598C294.749 26.5595 296.005 25.0205 298.003 25.0205C299.69 25.0205 301.175 25.979 301.013 28.9085H295.978C296.072 30.164 296.653 31.19 298.003 31.19C298.907 31.19 299.501 30.6365 299.704 30.002H300.892C300.703 31.136 299.636 32.1755 298.003 32.1755ZM296.005 28.004H299.852C299.758 26.6405 299.123 26.006 298.003 26.006C296.774 26.006 296.167 26.897 296.005 28.004ZM303.175 32V25.196H304.376V26.222C304.808 25.466 305.686 25.0205 306.658 25.0205C308.129 25.0205 309.155 25.952 309.155 27.761V32H307.967V27.8285C307.967 26.6405 307.292 26.0195 306.307 26.0195C305.24 26.0195 304.376 26.87 304.376 28.0715V32H303.175ZM354.579 28.9625C354.579 28.166 354.862 27.6125 355.888 26.87C356.55 26.411 357.535 25.9385 357.535 24.899C357.535 23.9675 356.779 23.4275 355.686 23.4275C354.363 23.4275 353.62 24.1835 353.526 25.3985H352.243C352.297 23.63 353.553 22.3475 355.753 22.3475C357.522 22.3475 358.845 23.2385 358.845 24.818C358.845 26.519 357.535 27.1265 356.982 27.491C356.212 27.9905 355.848 28.4495 355.848 29.165V29.3135H354.579V28.9625ZM354.444 32V30.38H355.996V32H354.444ZM363.004 32V30.38H364.57V32H363.004ZM363.004 27.302V25.682H364.57V27.302H363.004ZM149.15 57.241V44.2H150.136V57.241H149.15ZM165.65 55.1755C164.179 55.1755 163.153 54.244 163.153 52.435V48.196H164.354V52.3675C164.354 53.5555 165.016 54.1765 166.015 54.1765C167.068 54.1765 167.945 53.326 167.945 52.1245V48.196H169.133V55H167.945V53.974C167.5 54.73 166.636 55.1755 165.65 55.1755ZM171.389 55V48.196H172.591V49.222C173.023 48.466 173.9 48.0205 174.872 48.0205C176.344 48.0205 177.37 48.952 177.37 50.761V55H176.182V50.8285C176.182 49.6405 175.507 49.0195 174.521 49.0195C173.455 49.0195 172.591 49.87 172.591 51.0715V55H171.389ZM182.218 55.1755C180.584 55.1755 179.261 53.7175 179.261 51.571C179.261 49.438 180.584 48.0205 182.218 48.0205C183.176 48.0205 184 48.4255 184.486 49.2085V45.55H185.687V55H184.486V53.974C183.946 54.784 183.176 55.1755 182.218 55.1755ZM182.515 54.1765C183.797 54.1765 184.553 53.0695 184.553 51.5845C184.553 50.113 183.797 49.0195 182.515 49.0195C181.246 49.0195 180.503 50.086 180.503 51.571C180.503 53.0695 181.246 54.1765 182.515 54.1765ZM190.927 55.1755C188.929 55.1755 187.674 53.65 187.674 51.598C187.674 49.5595 188.929 48.0205 190.927 48.0205C192.615 48.0205 194.1 48.979 193.938 51.9085H188.902C188.997 53.164 189.577 54.19 190.927 54.19C191.832 54.19 192.426 53.6365 192.628 53.002H193.816C193.627 54.136 192.561 55.1755 190.927 55.1755ZM188.929 51.004H192.777C192.682 49.6405 192.048 49.006 190.927 49.006C189.699 49.006 189.091 49.897 188.929 51.004ZM197.922 55V49.1815H195.897V48.196H197.611C197.8 48.196 197.922 48.0745 197.922 47.899V47.305C197.922 46.1845 198.435 45.55 199.609 45.55H202.026V46.5355H199.839C199.312 46.5355 199.11 46.792 199.11 47.359V48.196H201.931V49.1815H199.11V55H197.922ZM204.147 55V53.9875H206.685V49.2085H204.417V48.196H207.913V53.9875H210.438V55H204.147ZM206.631 47.035V45.55H207.981V47.035H206.631ZM212.572 55V48.196H213.774V49.222C214.206 48.466 215.083 48.0205 216.055 48.0205C217.527 48.0205 218.553 48.952 218.553 50.761V55H217.365V50.8285C217.365 49.6405 216.69 49.0195 215.704 49.0195C214.638 49.0195 213.774 49.87 213.774 51.0715V55H212.572ZM223.873 55.1755C221.875 55.1755 220.62 53.65 220.62 51.598C220.62 49.5595 221.875 48.0205 223.873 48.0205C225.561 48.0205 227.046 48.979 226.884 51.9085H221.848C221.943 53.164 222.523 54.19 223.873 54.19C224.778 54.19 225.372 53.6365 225.574 53.002H226.762C226.573 54.136 225.507 55.1755 223.873 55.1755ZM221.875 51.004H225.723C225.628 49.6405 224.994 49.006 223.873 49.006C222.645 49.006 222.037 49.897 221.875 51.004ZM231.637 55.1755C230.004 55.1755 228.681 53.7175 228.681 51.571C228.681 49.438 230.004 48.0205 231.637 48.0205C232.596 48.0205 233.419 48.4255 233.905 49.2085V45.55H235.107V55H233.905V53.974C233.365 54.784 232.596 55.1755 231.637 55.1755ZM231.934 54.1765C233.217 54.1765 233.973 53.0695 233.973 51.5845C233.973 50.113 233.217 49.0195 231.934 49.0195C230.665 49.0195 229.923 50.086 229.923 51.571C229.923 53.0695 230.665 54.1765 231.934 54.1765ZM239.483 56.701V56.0935H239.672C240.077 56.0935 240.252 55.8505 240.252 55.513V55H239.456V53.38H241.022V55.54C241.022 56.296 240.509 56.701 239.685 56.701H239.483ZM329.869 51.9625C329.869 51.166 330.152 50.6125 331.178 49.87C331.84 49.411 332.825 48.9385 332.825 47.899C332.825 46.9675 332.069 46.4275 330.976 46.4275C329.653 46.4275 328.91 47.1835 328.816 48.3985H327.533C327.587 46.63 328.843 45.3475 331.043 45.3475C332.812 45.3475 334.135 46.2385 334.135 47.818C334.135 49.519 332.825 50.1265 332.272 50.491C331.502 50.9905 331.138 51.4495 331.138 52.165V52.3135H329.869V51.9625ZM329.734 55V53.38H331.286V55H329.734ZM338.295 55V53.38H339.861V55H338.295ZM338.295 50.302V48.682H339.861V50.302H338.295ZM420.957 57.241V44.2H421.943V57.241H420.957ZM149.177 78.1755C147.706 78.1755 146.68 77.244 146.68 75.435V71.196H147.881V75.3675C147.881 76.5555 148.543 77.1765 149.542 77.1765C150.595 77.1765 151.472 76.326 151.472 75.1245V71.196H152.66V78H151.472V76.974C151.027 77.73 150.163 78.1755 149.177 78.1755ZM154.916 78V71.196H156.118V72.222C156.55 71.466 157.427 71.0205 158.399 71.0205C159.871 71.0205 160.897 71.952 160.897 73.761V78H159.709V73.8285C159.709 72.6405 159.034 72.0195 158.048 72.0195C156.982 72.0195 156.118 72.87 156.118 74.0715V78H154.916ZM165.745 78.1755C164.111 78.1755 162.788 76.7175 162.788 74.571C162.788 72.438 164.111 71.0205 165.745 71.0205C166.703 71.0205 167.527 71.4255 168.013 72.2085V68.55H169.214V78H168.013V76.974C167.473 77.784 166.703 78.1755 165.745 78.1755ZM166.042 77.1765C167.324 77.1765 168.08 76.0695 168.08 74.5845C168.08 73.113 167.324 72.0195 166.042 72.0195C164.773 72.0195 164.03 73.086 164.03 74.571C164.03 76.0695 164.773 77.1765 166.042 77.1765ZM174.454 78.1755C172.456 78.1755 171.2 76.65 171.2 74.598C171.2 72.5595 172.456 71.0205 174.454 71.0205C176.141 71.0205 177.626 71.979 177.464 74.9085H172.429C172.523 76.164 173.104 77.19 174.454 77.19C175.358 77.19 175.952 76.6365 176.155 76.002H177.343C177.154 77.136 176.087 78.1755 174.454 78.1755ZM172.456 74.004H176.303C176.209 72.6405 175.574 72.006 174.454 72.006C173.225 72.006 172.618 72.897 172.456 74.004ZM181.448 78V72.1815H179.423V71.196H181.138C181.327 71.196 181.448 71.0745 181.448 70.899V70.305C181.448 69.1845 181.961 68.55 183.136 68.55H185.552V69.5355H183.365C182.839 69.5355 182.636 69.792 182.636 70.359V71.196H185.458V72.1815H182.636V78H181.448ZM187.674 78V76.9875H190.212V72.2085H187.944V71.196H191.44V76.9875H193.965V78H187.674ZM190.158 70.035V68.55H191.508V70.035H190.158ZM196.099 78V71.196H197.301V72.222C197.733 71.466 198.61 71.0205 199.582 71.0205C201.054 71.0205 202.08 71.952 202.08 73.761V78H200.892V73.8285C200.892 72.6405 200.217 72.0195 199.231 72.0195C198.165 72.0195 197.301 72.87 197.301 74.0715V78H196.099ZM207.4 78.1755C205.402 78.1755 204.147 76.65 204.147 74.598C204.147 72.5595 205.402 71.0205 207.4 71.0205C209.088 71.0205 210.573 71.979 210.411 74.9085H205.375C205.47 76.164 206.05 77.19 207.4 77.19C208.305 77.19 208.899 76.6365 209.101 76.002H210.289C210.1 77.136 209.034 78.1755 207.4 78.1755ZM205.402 74.004H209.25C209.155 72.6405 208.521 72.006 207.4 72.006C206.172 72.006 205.564 72.897 205.402 74.004ZM215.164 78.1755C213.531 78.1755 212.208 76.7175 212.208 74.571C212.208 72.438 213.531 71.0205 215.164 71.0205C216.123 71.0205 216.946 71.4255 217.432 72.2085V68.55H218.634V78H217.432V76.974C216.892 77.784 216.123 78.1755 215.164 78.1755ZM215.461 77.1765C216.744 77.1765 217.5 76.0695 217.5 74.5845C217.5 73.113 216.744 72.0195 215.461 72.0195C214.192 72.0195 213.45 73.086 213.45 74.571C213.45 76.0695 214.192 77.1765 215.461 77.1765ZM308.98 77.406L303.283 74.571V73.518L308.98 70.71V71.952L304.592 74.058L308.98 76.164V77.406ZM418.595 77.406V76.164L422.982 74.058L418.595 71.952V70.71L424.292 73.518V74.571L418.595 77.406Z" fill="#79B8FF"/>
    <path d="M245.276 78V68.55H249.056C250.662 68.55 251.877 69.6975 251.877 71.412C251.877 73.1265 250.662 74.2605 249.056 74.2605H246.504V78H245.276ZM248.826 73.248C249.92 73.248 250.595 72.5055 250.595 71.412C250.595 70.305 249.92 69.576 248.826 69.576H246.504V73.248H248.826ZM254.633 78V71.196H255.861V72.3435C256.293 71.5875 257.036 71.196 257.805 71.196H259.439V72.3435H257.711C256.631 72.3435 255.861 73.0455 255.861 74.409V78H254.633ZM264.948 78.1755C262.883 78.1755 261.668 76.6365 261.668 74.598C261.668 72.573 262.883 71.0205 264.948 71.0205C267.014 71.0205 268.229 72.573 268.229 74.598C268.229 76.6365 267.014 78.1755 264.948 78.1755ZM264.948 77.1765C266.433 77.1765 267 75.9075 267 74.5845C267 73.275 266.433 72.0195 264.948 72.0195C263.463 72.0195 262.896 73.275 262.896 74.5845C262.896 75.9075 263.463 77.1765 264.948 77.1765ZM269.864 78V71.196H271.011V71.7765C271.281 71.2905 271.794 71.0205 272.348 71.0205C273.036 71.0205 273.441 71.439 273.576 71.8305C273.968 71.1825 274.548 71.0205 275.088 71.0205C275.966 71.0205 276.56 71.682 276.56 72.8025V78H275.412V73.0185C275.412 72.3705 275.183 72.06 274.764 72.06C274.238 72.06 273.779 72.546 273.779 73.3695V78H272.645V73.0185C272.645 72.3705 272.402 72.06 271.983 72.06C271.457 72.06 271.011 72.546 271.011 73.3695V78H269.864ZM278.276 78V76.9875H280.814V72.2085H278.546V71.196H282.042V76.9875H284.567V78H278.276ZM280.76 70.035V68.55H282.11V70.035H280.76ZM289.793 78.1755C288.011 78.1755 286.904 77.3115 286.783 75.867H287.998C288.16 76.7715 288.767 77.2035 289.82 77.2035C290.738 77.2035 291.305 76.785 291.305 76.137C291.305 75.6375 290.941 75.2865 290.239 75.165L288.902 74.895C287.93 74.706 286.972 74.247 286.972 73.005C286.972 71.871 288.038 71.0205 289.631 71.0205C291.17 71.0205 292.291 71.6685 292.426 73.1535H291.211C291.089 72.3975 290.522 71.9925 289.618 71.9925C288.754 71.9925 288.173 72.3975 288.173 72.9645C288.173 73.5045 288.646 73.761 289.186 73.869L290.603 74.139C291.562 74.328 292.534 74.8545 292.534 76.0695C292.534 77.3385 291.413 78.1755 289.793 78.1755ZM298.003 78.1755C296.005 78.1755 294.749 76.65 294.749 74.598C294.749 72.5595 296.005 71.0205 298.003 71.0205C299.69 71.0205 301.175 71.979 301.013 74.9085H295.978C296.072 76.164 296.653 77.19 298.003 77.19C298.907 77.19 299.501 76.6365 299.704 76.002H300.892C300.703 77.136 299.636 78.1755 298.003 78.1755ZM296.005 74.004H299.852C299.758 72.6405 299.123 72.006 298.003 72.006C296.774 72.006 296.167 72.897 296.005 74.004Z" fill="#E3B3FA"/>
    <path d="M145.451 97H437.451" stroke="#F4F3EC" stroke-opacity="0.1"/>
    <path d="M149.758 125.176C147.449 125.176 146.072 123.771 146.005 122.07H147.274C147.463 123.353 148.489 124.095 149.771 124.095C150.932 124.095 151.985 123.569 151.985 122.435C151.985 121.692 151.499 121.274 150.487 120.99L148.948 120.572C147.773 120.261 146.369 119.789 146.369 117.993C146.369 116.441 147.76 115.374 149.663 115.374C151.675 115.374 152.89 116.576 152.971 118.183H151.702C151.513 117.089 150.797 116.427 149.636 116.427C148.516 116.427 147.665 117.021 147.665 117.926C147.665 118.695 148.165 119.073 149.245 119.37L150.838 119.802C152.431 120.234 153.281 120.99 153.281 122.34C153.281 124.095 151.837 125.176 149.758 125.176ZM158.318 125C157.157 125 156.604 124.527 156.604 123.393V119.181H154.579V118.196H156.293C156.482 118.196 156.604 118.074 156.604 117.899V115.941H157.792V118.196H160.478V119.181H157.792V123.231C157.792 123.717 157.994 124.001 158.602 124.001H160.775V125H158.318ZM165.137 125.176C163.76 125.176 162.856 124.365 162.856 123.164C162.856 121.584 164.233 121.206 165.34 121.071L166.798 120.882C167.351 120.815 167.446 120.491 167.446 120.18V120.167C167.446 119.505 167 118.992 165.974 118.992C164.989 118.992 164.408 119.451 164.3 120.288H163.099C163.247 118.911 164.341 118.02 165.961 118.02C167.77 118.02 168.634 118.925 168.634 120.45V123.744C168.634 123.906 168.755 124.014 168.917 124.014H169.336V125H168.526C167.864 125 167.527 124.662 167.527 124.163V124.001C166.933 124.878 165.988 125.176 165.137 125.176ZM165.448 124.203C166.649 124.203 167.446 123.312 167.446 121.989V121.517C167.23 121.625 167 121.679 166.757 121.719L165.569 121.895C164.543 122.057 164.098 122.421 164.098 123.11C164.098 123.798 164.624 124.203 165.448 124.203ZM172.267 125V118.196H173.495V119.343C173.927 118.587 174.67 118.196 175.439 118.196H177.073V119.343H175.345C174.265 119.343 173.495 120.045 173.495 121.409V125H172.267ZM183.028 125C181.867 125 181.313 124.527 181.313 123.393V119.181H179.288V118.196H181.003C181.192 118.196 181.313 118.074 181.313 117.899V115.941H182.501V118.196H185.188V119.181H182.501V123.231C182.501 123.717 182.704 124.001 183.311 124.001H185.485V125H183.028ZM199.501 125C198.34 125 197.787 124.527 197.787 123.393V119.181H195.762V118.196H197.476C197.665 118.196 197.787 118.074 197.787 117.899V115.941H198.975V118.196H201.661V119.181H198.975V123.231C198.975 123.717 199.177 124.001 199.785 124.001H201.958V125H199.501ZM204.336 125V115.55H205.537V119.222C205.969 118.466 206.847 118.02 207.819 118.02C209.29 118.02 210.316 118.952 210.316 120.761V125H209.128V120.828C209.128 119.64 208.453 119.019 207.468 119.019C206.401 119.019 205.537 119.87 205.537 121.071V125H204.336ZM215.637 125.176C213.639 125.176 212.383 123.65 212.383 121.598C212.383 119.559 213.639 118.02 215.637 118.02C217.324 118.02 218.809 118.979 218.647 121.908H213.612C213.706 123.164 214.287 124.19 215.637 124.19C216.541 124.19 217.135 123.636 217.338 123.002H218.526C218.337 124.136 217.27 125.176 215.637 125.176ZM213.639 121.004H217.486C217.392 119.64 216.757 119.006 215.637 119.006C214.408 119.006 213.801 119.897 213.639 121.004ZM232.137 125.176C230.355 125.176 229.248 124.311 229.126 122.867H230.341C230.503 123.771 231.111 124.203 232.164 124.203C233.082 124.203 233.649 123.785 233.649 123.137C233.649 122.637 233.284 122.286 232.582 122.165L231.246 121.895C230.274 121.706 229.315 121.247 229.315 120.005C229.315 118.871 230.382 118.02 231.975 118.02C233.514 118.02 234.634 118.668 234.769 120.153H233.554C233.433 119.397 232.866 118.992 231.961 118.992C231.097 118.992 230.517 119.397 230.517 119.964C230.517 120.504 230.989 120.761 231.529 120.869L232.947 121.139C233.905 121.328 234.877 121.854 234.877 123.069C234.877 124.338 233.757 125.176 232.137 125.176ZM240.347 125.176C238.349 125.176 237.093 123.65 237.093 121.598C237.093 119.559 238.349 118.02 240.347 118.02C242.034 118.02 243.519 118.979 243.357 121.908H238.322C238.416 123.164 238.997 124.19 240.347 124.19C241.251 124.19 241.845 123.636 242.048 123.002H243.236C243.047 124.136 241.98 125.176 240.347 125.176ZM238.349 121.004H242.196C242.102 119.64 241.467 119.006 240.347 119.006C239.118 119.006 238.511 119.897 238.349 121.004ZM246.396 125V118.196H247.625V119.343C248.057 118.587 248.799 118.196 249.569 118.196H251.202V119.343H249.474C248.394 119.343 247.625 120.045 247.625 121.409V125H246.396ZM255.861 125L253.121 118.196H254.403L256.631 123.987L258.858 118.196H260.127L257.387 125H255.861ZM265.056 125.176C263.058 125.176 261.803 123.65 261.803 121.598C261.803 119.559 263.058 118.02 265.056 118.02C266.744 118.02 268.229 118.979 268.067 121.908H263.031C263.126 123.164 263.706 124.19 265.056 124.19C265.961 124.19 266.555 123.636 266.757 123.002H267.945C267.756 124.136 266.69 125.176 265.056 125.176ZM263.058 121.004H266.906C266.811 119.64 266.177 119.006 265.056 119.006C263.828 119.006 263.22 119.897 263.058 121.004ZM271.106 125V118.196H272.334V119.343C272.766 118.587 273.509 118.196 274.278 118.196H275.912V119.343H274.184C273.104 119.343 272.334 120.045 272.334 121.409V125H271.106ZM280.638 125V123.38H282.204V125H280.638Z" fill="#F4F3EC"/>
    <defs>
        <filter id="filter0_f_33_20" x="23.0395" y="37.2" width="289.741" height="109.041" filterUnits="userSpaceOnUse" color-interpolation-filters="sRGB">
            <feFlood flood-opacity="0" result="BackgroundImageFix"/>
            <feBlend mode="normal" in="SourceGraphic" in2="BackgroundImageFix" result="shape"/>
            <feGaussianBlur stdDeviation="1" result="effect1_foregroundBlur_33_20"/>
        </filter>
        <filter id="filter1_f_33_20" x="23.3095" y="198.2" width="148.234" height="17.041" filterUnits="userSpaceOnUse" color-interpolation-filters="sRGB">
            <feFlood flood-opacity="0" result="BackgroundImageFix"/>
            <feBlend mode="normal" in="SourceGraphic" in2="BackgroundImageFix" result="shape"/>
            <feGaussianBlur stdDeviation="1" result="effect1_foregroundBlur_33_20"/>
        </filter>
    </defs>
</svg>
