<svg width="476" height="272" viewBox="0 0 476 272" fill="none" xmlns="http://www.w3.org/2000/svg">
    <rect width="476" height="46" rx="4" fill="#14121A"/>
    <rect x="0.5" y="0.5" width="475" height="45" rx="3.5" stroke="white" stroke-opacity="0.1"/>
    <path d="M16 23.7816L20 27.95L29.5 18.05" stroke="#22FF73" stroke-width="1.8" stroke-linecap="round" stroke-linejoin="round"/>
    <path d="M48.668 28.5L45.724 20.436H47.244L49.532 27.06L51.82 20.436H53.356L50.412 28.5H48.668ZM54.7945 28.5V20.436H56.2025V28.5H54.7945ZM54.7145 19.06V17.3H56.2985V19.06H54.7145ZM60.8217 28.5C59.5897 28.5 59.0137 27.972 59.0137 26.612V21.588H57.7337V20.436H58.6457C58.8697 20.436 59.0137 20.292 59.0137 20.084V17.764H60.4057V20.436H62.1817V21.588H60.4057V26.404C60.4057 27.092 60.5977 27.332 61.2377 27.332H62.3737V28.5H60.8217ZM67.2862 28.708C64.9182 28.708 63.4302 26.9 63.4302 24.468C63.4302 22.052 64.9182 20.228 67.2862 20.228C69.2862 20.228 71.0463 21.364 70.8542 24.836H64.8862C64.9822 26.308 65.6702 27.54 67.2862 27.54C68.3582 27.54 69.0622 26.996 69.3502 25.972H70.7582C70.4542 27.572 69.2222 28.708 67.2862 28.708ZM64.9182 23.764H69.4783C69.3822 22.148 68.6302 21.38 67.2862 21.38C65.8142 21.38 65.0942 22.436 64.9182 23.764ZM72.7451 24.436V23.14H77.0651V24.436H72.7451ZM82.7937 28.708C80.4257 28.708 78.9377 26.9 78.9377 24.468C78.9377 22.052 80.4257 20.228 82.7937 20.228C84.7937 20.228 86.5538 21.364 86.3617 24.836H80.3937C80.4897 26.308 81.1777 27.54 82.7937 27.54C83.8657 27.54 84.5697 26.996 84.8577 25.972H86.2657C85.9617 27.572 84.7297 28.708 82.7937 28.708ZM80.4257 23.764H84.9857C84.8897 22.148 84.1377 21.38 82.7937 21.38C81.3217 21.38 80.6017 22.436 80.4257 23.764ZM91.5166 28.708C89.1646 28.708 87.6446 26.884 87.6446 24.468C87.6446 22.068 89.1646 20.228 91.5326 20.228C93.3886 20.228 94.7326 21.348 94.9886 23.188H93.5646C93.3406 22.068 92.5566 21.396 91.5166 21.396C89.8366 21.396 89.1006 22.852 89.1006 24.452C89.1006 26.068 89.8366 27.54 91.5166 27.54C92.5726 27.54 93.2766 26.996 93.5646 25.94H94.9726C94.6686 27.588 93.4366 28.708 91.5166 28.708ZM100.13 28.708C97.6821 28.708 96.2421 26.884 96.2421 24.468C96.2421 22.068 97.6821 20.228 100.13 20.228C102.578 20.228 104.018 22.068 104.018 24.468C104.018 26.884 102.578 28.708 100.13 28.708ZM97.6981 24.452C97.6981 26.036 98.3541 27.54 100.13 27.54C101.89 27.54 102.562 26.036 102.562 24.452C102.562 22.884 101.89 21.396 100.13 21.396C98.3541 21.396 97.6981 22.884 97.6981 24.452ZM108.797 28.708C106.685 28.708 105.373 27.7 105.229 25.972H106.669C106.861 27.044 107.581 27.572 108.829 27.572C109.917 27.572 110.605 27.076 110.605 26.292C110.605 25.7 110.157 25.284 109.325 25.124L107.757 24.82C106.589 24.596 105.469 24.052 105.469 22.564C105.469 21.236 106.717 20.228 108.605 20.228C110.429 20.228 111.757 20.996 111.917 22.74H110.493C110.333 21.844 109.677 21.364 108.589 21.364C107.565 21.364 106.877 21.844 106.877 22.532C106.877 23.188 107.437 23.476 108.093 23.604L109.757 23.924C110.909 24.148 112.061 24.772 112.061 26.212C112.061 27.716 110.717 28.708 108.797 28.708ZM113.395 31.156V30.02H114.787C115.283 30.02 115.523 29.908 115.715 29.428L116.115 28.356L112.867 20.436H114.387L116.803 26.548L119.075 20.436H120.547L116.915 29.908C116.531 30.948 115.923 31.156 114.979 31.156H113.395ZM124.789 28.708C122.677 28.708 121.365 27.7 121.221 25.972H122.661C122.853 27.044 123.573 27.572 124.821 27.572C125.909 27.572 126.597 27.076 126.597 26.292C126.597 25.7 126.149 25.284 125.317 25.124L123.749 24.82C122.581 24.596 121.461 24.052 121.461 22.564C121.461 21.236 122.709 20.228 124.597 20.228C126.421 20.228 127.749 20.996 127.909 22.74H126.485C126.325 21.844 125.669 21.364 124.581 21.364C123.557 21.364 122.869 21.844 122.869 22.532C122.869 23.188 123.429 23.476 124.085 23.604L125.749 23.924C126.901 24.148 128.053 24.772 128.053 26.212C128.053 27.716 126.709 28.708 124.789 28.708ZM132.199 28.5C130.967 28.5 130.391 27.972 130.391 26.612V21.588H129.111V20.436H130.023C130.247 20.436 130.391 20.292 130.391 20.084V17.764H131.783V20.436H133.559V21.588H131.783V26.404C131.783 27.092 131.975 27.332 132.615 27.332H133.751V28.5H132.199ZM138.664 28.708C136.296 28.708 134.808 26.9 134.808 24.468C134.808 22.052 136.296 20.228 138.664 20.228C140.664 20.228 142.424 21.364 142.232 24.836H136.264C136.36 26.308 137.048 27.54 138.664 27.54C139.736 27.54 140.44 26.996 140.728 25.972H142.136C141.832 27.572 140.6 28.708 138.664 28.708ZM136.296 23.764H140.856C140.76 22.148 140.008 21.38 138.664 21.38C137.192 21.38 136.472 22.436 136.296 23.764ZM143.979 28.5V20.436H145.387V21.588C145.835 20.692 146.827 20.228 147.787 20.228C148.843 20.228 149.739 20.884 150.027 21.892C150.491 20.916 151.451 20.228 152.795 20.228C154.555 20.228 155.579 21.316 155.579 23.3V28.5H154.171V23.54C154.171 22.132 153.547 21.412 152.459 21.412C151.211 21.412 150.491 22.404 150.491 23.828V28.5H149.083V23.54C149.083 22.132 148.443 21.412 147.339 21.412C146.283 21.412 145.387 22.404 145.387 23.828V28.5H143.979ZM157.829 24.436V23.14H162.149V24.436H157.829ZM167.894 28.708C165.542 28.708 164.022 26.884 164.022 24.468C164.022 22.068 165.542 20.228 167.91 20.228C169.766 20.228 171.11 21.348 171.366 23.188H169.942C169.718 22.068 168.934 21.396 167.894 21.396C166.214 21.396 165.478 22.852 165.478 24.452C165.478 26.068 166.214 27.54 167.894 27.54C168.95 27.54 169.654 26.996 169.942 25.94H171.35C171.046 27.588 169.814 28.708 167.894 28.708ZM173.148 28.5V20.436H174.556V28.5H173.148ZM173.068 19.06V17.3H174.652V19.06H173.068ZM176.919 24.436V23.14H181.239V24.436H176.919ZM186.648 28.708C184.536 28.708 183.224 27.7 183.08 25.972H184.52C184.712 27.044 185.432 27.572 186.68 27.572C187.768 27.572 188.456 27.076 188.456 26.292C188.456 25.7 188.008 25.284 187.176 25.124L185.608 24.82C184.44 24.596 183.32 24.052 183.32 22.564C183.32 21.236 184.568 20.228 186.456 20.228C188.28 20.228 189.608 20.996 189.768 22.74H188.344C188.184 21.844 187.528 21.364 186.44 21.364C185.416 21.364 184.728 21.844 184.728 22.532C184.728 23.188 185.288 23.476 185.944 23.604L187.608 23.924C188.76 24.148 189.912 24.772 189.912 26.212C189.912 27.716 188.568 28.708 186.648 28.708ZM195.049 28.708C192.681 28.708 191.193 26.9 191.193 24.468C191.193 22.052 192.681 20.228 195.049 20.228C197.049 20.228 198.809 21.364 198.617 24.836H192.649C192.745 26.308 193.433 27.54 195.049 27.54C196.121 27.54 196.825 26.996 197.113 25.972H198.521C198.217 27.572 196.985 28.708 195.049 28.708ZM192.681 23.764H197.241C197.145 22.148 196.393 21.38 195.049 21.38C193.577 21.38 192.857 22.436 192.681 23.764ZM200.428 28.5V17.3H201.836V28.5H200.428ZM207.448 28.708C205.08 28.708 203.592 26.9 203.592 24.468C203.592 22.052 205.08 20.228 207.448 20.228C209.448 20.228 211.208 21.364 211.016 24.836H205.048C205.144 26.308 205.832 27.54 207.448 27.54C208.52 27.54 209.224 26.996 209.512 25.972H210.92C210.616 27.572 209.384 28.708 207.448 28.708ZM205.08 23.764H209.64C209.544 22.148 208.792 21.38 207.448 21.38C205.976 21.38 205.256 22.436 205.08 23.764ZM216.17 28.708C213.818 28.708 212.298 26.884 212.298 24.468C212.298 22.068 213.818 20.228 216.186 20.228C218.042 20.228 219.386 21.348 219.642 23.188H218.218C217.994 22.068 217.21 21.396 216.17 21.396C214.49 21.396 213.754 22.852 213.754 24.452C213.754 26.068 214.49 27.54 216.17 27.54C217.226 27.54 217.93 26.996 218.218 25.94H219.626C219.322 27.588 218.09 28.708 216.17 28.708ZM223.76 28.5C222.528 28.5 221.952 27.972 221.952 26.612V21.588H220.672V20.436H221.584C221.808 20.436 221.952 20.292 221.952 20.084V17.764H223.344V20.436H225.12V21.588H223.344V26.404C223.344 27.092 223.536 27.332 224.176 27.332H225.312V28.5H223.76ZM230.224 28.708C227.856 28.708 226.368 26.9 226.368 24.468C226.368 22.052 227.856 20.228 230.224 20.228C232.224 20.228 233.984 21.364 233.792 24.836H227.824C227.92 26.308 228.608 27.54 230.224 27.54C231.296 27.54 232 26.996 232.288 25.972H233.696C233.392 27.572 232.16 28.708 230.224 28.708ZM227.856 23.764H232.416C232.32 22.148 231.568 21.38 230.224 21.38C228.752 21.38 228.032 22.436 227.856 23.764ZM238.579 28.708C236.643 28.708 235.075 26.98 235.075 24.436C235.075 21.908 236.643 20.228 238.579 20.228C239.731 20.228 240.723 20.708 241.283 21.636V17.3H242.691V28.5H241.283V27.284C240.643 28.244 239.731 28.708 238.579 28.708ZM236.531 24.436C236.531 26.212 237.411 27.524 238.947 27.524C240.467 27.524 241.363 26.212 241.363 24.452C241.363 22.708 240.467 21.396 238.947 21.396C237.411 21.396 236.531 22.676 236.531 24.436Z" fill="white"/>
    <path d="M424.785 28L425.37 24.67H423.735L423.93 23.515H425.58L425.835 21.985H424.215L424.425 20.83H426.045L426.63 17.5H427.77L427.185 20.83H428.79L429.375 17.5H430.53L429.945 20.83H431.565L431.37 21.985H429.735L429.465 23.515H431.085L430.875 24.67H429.255L428.67 28H427.53L428.115 24.67H426.51L425.925 28H424.785ZM426.72 23.515H428.325L428.58 21.985H426.975L426.72 23.515ZM436.847 28.225C434.177 28.225 433.142 26.725 433.052 24.76H434.447C434.522 25.9 435.092 27.055 436.757 27.055C438.167 27.055 439.127 26.455 439.127 25.09C439.127 23.905 438.317 23.125 437.072 23.125H436.112V22.015H437.027C438.167 22.015 438.902 21.175 438.902 20.11C438.902 19.075 438.197 18.43 436.907 18.43C435.302 18.43 434.642 19.54 434.597 20.605H433.232C433.247 18.985 434.372 17.275 436.967 17.275C439.082 17.275 440.282 18.355 440.282 19.99C440.282 21.235 439.532 22.15 438.512 22.495C439.412 22.705 440.552 23.5 440.552 25.12C440.552 26.83 439.187 28.225 436.847 28.225ZM446.059 28.225C443.884 28.225 442.144 26.77 442.144 22.78C442.144 19.03 443.944 17.275 446.269 17.275C448.294 17.275 449.509 18.655 449.524 20.125H448.144C447.964 18.985 447.169 18.46 446.179 18.46C444.544 18.46 443.554 19.93 443.554 22.645C444.184 21.49 445.339 21.115 446.299 21.115C448.174 21.115 449.779 22.39 449.779 24.595C449.779 26.77 448.204 28.225 446.059 28.225ZM446.074 27.07C447.349 27.07 448.369 26.11 448.369 24.655C448.369 23.215 447.349 22.24 446.074 22.24C444.784 22.24 443.779 23.215 443.779 24.655C443.779 26.11 444.784 27.07 446.074 27.07ZM453.08 28L457.55 18.655H451.34V17.5H458.885V18.895L454.565 28H453.08Z" fill="#F4F3EC" fill-opacity="0.5"/>
    <rect x="0.5" y="61.5" width="475" height="272" rx="3.5" fill="#08060D"/>
    <rect x="0.5" y="61.5" width="475" height="272" rx="3.5" stroke="#3B3440"/>
    <mask id="path-7-inside-1_34_28" fill="white">
        <path d="M0 61H476V117H0V61Z"/>
    </mask>
    <path d="M476 117V116H0V117V118H476V117Z" fill="#3B3440" mask="url(#path-7-inside-1_34_28)"/>
    <path d="M20.125 85.195C17.905 85.195 16.51 83.5 16.51 81.22C16.51 78.955 17.905 77.245 20.125 77.245C22 77.245 23.65 78.31 23.47 81.565H17.875C17.965 82.945 18.61 84.1 20.125 84.1C21.13 84.1 21.79 83.59 22.06 82.63H23.38C23.095 84.13 21.94 85.195 20.125 85.195ZM17.905 80.56H22.18C22.09 79.045 21.385 78.325 20.125 78.325C18.745 78.325 18.07 79.315 17.905 80.56ZM24.0504 85L26.7054 81.07L24.2604 77.44H25.7304L27.5454 80.155L29.3454 77.44H30.8154L28.3254 81.1L30.9654 85H29.4804L27.5154 82.015L25.5354 85H24.0504ZM35.0441 85.195C32.8241 85.195 31.4291 83.5 31.4291 81.22C31.4291 78.955 32.8241 77.245 35.0441 77.245C36.9191 77.245 38.5691 78.31 38.3891 81.565H32.7941C32.8841 82.945 33.5291 84.1 35.0441 84.1C36.0491 84.1 36.7091 83.59 36.9791 82.63H38.2991C38.0141 84.13 36.8591 85.195 35.0441 85.195ZM32.8241 80.56H37.0991C37.0091 79.045 36.3041 78.325 35.0441 78.325C33.6641 78.325 32.9891 79.315 32.8241 80.56ZM43.2218 85.195C41.0168 85.195 39.5918 83.485 39.5918 81.22C39.5918 78.97 41.0168 77.245 43.2368 77.245C44.9768 77.245 46.2368 78.295 46.4768 80.02H45.1418C44.9318 78.97 44.1968 78.34 43.2218 78.34C41.6468 78.34 40.9568 79.705 40.9568 81.205C40.9568 82.72 41.6468 84.1 43.2218 84.1C44.2118 84.1 44.8718 83.59 45.1418 82.6H46.4618C46.1768 84.145 45.0218 85.195 43.2218 85.195ZM50.712 85.195C49.137 85.195 48.027 84.145 48.027 82.18V77.44H49.347V82.09C49.347 83.41 50.097 84.085 51.177 84.085C52.257 84.085 53.217 83.155 53.217 81.805V77.44H54.537V85H53.217V83.83C52.722 84.73 51.777 85.195 50.712 85.195ZM58.822 85C57.667 85 57.127 84.505 57.127 83.23V78.52H55.927V77.44H56.782C56.992 77.44 57.127 77.305 57.127 77.11V74.935H58.432V77.44H60.097V78.52H58.432V83.035C58.432 83.68 58.612 83.905 59.212 83.905H60.277V85H58.822ZM64.8824 85.195C62.6624 85.195 61.2674 83.5 61.2674 81.22C61.2674 78.955 62.6624 77.245 64.8824 77.245C66.7574 77.245 68.4074 78.31 68.2274 81.565H62.6324C62.7224 82.945 63.3674 84.1 64.8824 84.1C65.8874 84.1 66.5474 83.59 66.8174 82.63H68.1374C67.8524 84.13 66.6974 85.195 64.8824 85.195ZM62.6624 80.56H66.9374C66.8474 79.045 66.1424 78.325 64.8824 78.325C63.5024 78.325 62.8274 79.315 62.6624 80.56ZM70.0001 81.19V79.975H74.0501V81.19H70.0001ZM79.1207 85.195C77.1407 85.195 75.9107 84.25 75.7757 82.63H77.1257C77.3057 83.635 77.9807 84.13 79.1507 84.13C80.1707 84.13 80.8157 83.665 80.8157 82.93C80.8157 82.375 80.3957 81.985 79.6157 81.835L78.1457 81.55C77.0507 81.34 76.0007 80.83 76.0007 79.435C76.0007 78.19 77.1707 77.245 78.9407 77.245C80.6507 77.245 81.8957 77.965 82.0457 79.6H80.7107C80.5607 78.76 79.9457 78.31 78.9257 78.31C77.9657 78.31 77.3207 78.76 77.3207 79.405C77.3207 80.02 77.8457 80.29 78.4607 80.41L80.0207 80.71C81.1007 80.92 82.1807 81.505 82.1807 82.855C82.1807 84.265 80.9207 85.195 79.1207 85.195ZM86.9975 85.195C84.7775 85.195 83.3825 83.5 83.3825 81.22C83.3825 78.955 84.7775 77.245 86.9975 77.245C88.8725 77.245 90.5225 78.31 90.3425 81.565H84.7475C84.8375 82.945 85.4825 84.1 86.9975 84.1C88.0025 84.1 88.6625 83.59 88.9325 82.63H90.2525C89.9675 84.13 88.8125 85.195 86.9975 85.195ZM84.7775 80.56H89.0525C88.9625 79.045 88.2575 78.325 86.9975 78.325C85.6175 78.325 84.9425 79.315 84.7775 80.56ZM92.0402 85V74.5H93.3602V85H92.0402ZM98.6207 85.195C96.4007 85.195 95.0057 83.5 95.0057 81.22C95.0057 78.955 96.4007 77.245 98.6207 77.245C100.496 77.245 102.146 78.31 101.966 81.565H96.3707C96.4607 82.945 97.1057 84.1 98.6207 84.1C99.6257 84.1 100.286 83.59 100.556 82.63H101.876C101.591 84.13 100.436 85.195 98.6207 85.195ZM96.4007 80.56H100.676C100.586 79.045 99.8807 78.325 98.6207 78.325C97.2407 78.325 96.5657 79.315 96.4007 80.56ZM106.798 85.195C104.593 85.195 103.168 83.485 103.168 81.22C103.168 78.97 104.593 77.245 106.813 77.245C108.553 77.245 109.813 78.295 110.053 80.02H108.718C108.508 78.97 107.773 78.34 106.798 78.34C105.223 78.34 104.533 79.705 104.533 81.205C104.533 82.72 105.223 84.1 106.798 84.1C107.788 84.1 108.448 83.59 108.718 82.6H110.038C109.753 84.145 108.598 85.195 106.798 85.195ZM113.914 85C112.759 85 112.219 84.505 112.219 83.23V78.52H111.019V77.44H111.874C112.084 77.44 112.219 77.305 112.219 77.11V74.935H113.524V77.44H115.189V78.52H113.524V83.035C113.524 83.68 113.704 83.905 114.304 83.905H115.369V85H113.914ZM119.974 85.195C117.754 85.195 116.359 83.5 116.359 81.22C116.359 78.955 117.754 77.245 119.974 77.245C121.849 77.245 123.499 78.31 123.319 81.565H117.724C117.814 82.945 118.459 84.1 119.974 84.1C120.979 84.1 121.639 83.59 121.909 82.63H123.229C122.944 84.13 121.789 85.195 119.974 85.195ZM117.754 80.56H122.029C121.939 79.045 121.234 78.325 119.974 78.325C118.594 78.325 117.919 79.315 117.754 80.56ZM127.807 85.195C125.992 85.195 124.522 83.575 124.522 81.19C124.522 78.82 125.992 77.245 127.807 77.245C128.887 77.245 129.817 77.695 130.342 78.565V74.5H131.662V85H130.342V83.86C129.742 84.76 128.887 85.195 127.807 85.195ZM125.887 81.19C125.887 82.855 126.712 84.085 128.152 84.085C129.577 84.085 130.417 82.855 130.417 81.205C130.417 79.57 129.577 78.34 128.152 78.34C126.712 78.34 125.887 79.54 125.887 81.19ZM133.899 81.19V79.975H137.949V81.19H133.899ZM143.02 85.195C141.04 85.195 139.81 84.25 139.675 82.63H141.025C141.205 83.635 141.88 84.13 143.05 84.13C144.07 84.13 144.715 83.665 144.715 82.93C144.715 82.375 144.295 81.985 143.515 81.835L142.045 81.55C140.95 81.34 139.9 80.83 139.9 79.435C139.9 78.19 141.07 77.245 142.84 77.245C144.55 77.245 145.795 77.965 145.945 79.6H144.61C144.46 78.76 143.845 78.31 142.825 78.31C141.865 78.31 141.22 78.76 141.22 79.405C141.22 80.02 141.745 80.29 142.36 80.41L143.92 80.71C145 80.92 146.08 81.505 146.08 82.855C146.08 84.265 144.82 85.195 143.02 85.195ZM150.341 85.195C148.766 85.195 147.656 84.145 147.656 82.18V77.44H148.976V82.09C148.976 83.41 149.726 84.085 150.806 84.085C151.886 84.085 152.846 83.155 152.846 81.805V77.44H154.166V85H152.846V83.83C152.351 84.73 151.406 85.195 150.341 85.195ZM156.261 85V77.44H157.581V85H156.261ZM156.186 76.15V74.5H157.671V76.15H156.186ZM161.912 85C160.757 85 160.217 84.505 160.217 83.23V78.52H159.017V77.44H159.872C160.082 77.44 160.217 77.305 160.217 77.11V74.935H161.522V77.44H163.187V78.52H161.522V83.035C161.522 83.68 161.702 83.905 162.302 83.905H163.367V85H161.912ZM167.972 85.195C165.752 85.195 164.357 83.5 164.357 81.22C164.357 78.955 165.752 77.245 167.972 77.245C169.847 77.245 171.497 78.31 171.317 81.565H165.722C165.812 82.945 166.457 84.1 167.972 84.1C168.977 84.1 169.637 83.59 169.907 82.63H171.227C170.942 84.13 169.787 85.195 167.972 85.195ZM165.752 80.56H170.027C169.937 79.045 169.232 78.325 167.972 78.325C166.592 78.325 165.917 79.315 165.752 80.56Z" fill="#AA3BFF"/>
    <path d="M19.84 103.156C18.256 103.156 17.272 102.388 17.164 101.104H18.244C18.388 101.908 18.928 102.292 19.864 102.292C20.68 102.292 21.184 101.92 21.184 101.344C21.184 100.9 20.86 100.588 20.236 100.48L19.048 100.24C18.184 100.072 17.332 99.664 17.332 98.56C17.332 97.552 18.28 96.796 19.696 96.796C21.064 96.796 22.06 97.372 22.18 98.692H21.1C20.992 98.02 20.488 97.66 19.684 97.66C18.916 97.66 18.4 98.02 18.4 98.524C18.4 99.004 18.82 99.232 19.3 99.328L20.56 99.568C21.412 99.736 22.276 100.204 22.276 101.284C22.276 102.412 21.28 103.156 19.84 103.156ZM26.5134 103.156C25.2054 103.156 24.2934 102.328 24.2934 100.72V96.952H25.3614V100.66C25.3614 101.716 25.9494 102.268 26.8374 102.268C27.7734 102.268 28.5534 101.512 28.5534 100.444V96.952H29.6094V103H28.5534V102.088C28.1574 102.76 27.3894 103.156 26.5134 103.156ZM34.2788 103.156C32.5148 103.156 31.3628 101.788 31.3628 99.976C31.3628 98.176 32.5148 96.796 34.2908 96.796C35.6708 96.796 36.6908 97.636 36.8828 99.028H35.8028C35.6348 98.176 35.0468 97.684 34.2788 97.684C33.0188 97.684 32.4668 98.764 32.4668 99.964C32.4668 101.176 33.0188 102.268 34.2788 102.268C35.0588 102.268 35.5868 101.86 35.8028 101.08H36.8708C36.6428 102.316 35.7188 103.156 34.2788 103.156ZM41.4802 103.156C39.7162 103.156 38.5642 101.788 38.5642 99.976C38.5642 98.176 39.7162 96.796 41.4922 96.796C42.8722 96.796 43.8922 97.636 44.0842 99.028H43.0042C42.8362 98.176 42.2482 97.684 41.4802 97.684C40.2202 97.684 39.6682 98.764 39.6682 99.964C39.6682 101.176 40.2202 102.268 41.4802 102.268C42.2602 102.268 42.7882 101.86 43.0042 101.08H44.0722C43.8442 102.316 42.9202 103.156 41.4802 103.156ZM48.6216 103.156C46.8456 103.156 45.7296 101.8 45.7296 99.976C45.7296 98.164 46.8456 96.796 48.6216 96.796C50.1216 96.796 51.4416 97.648 51.2976 100.252H46.8216C46.9056 101.368 47.4216 102.28 48.6216 102.28C49.4256 102.28 49.9536 101.788 50.1336 101.224H51.1896C51.0216 102.232 50.0736 103.156 48.6216 103.156ZM46.8456 99.448H50.2656C50.1816 98.236 49.6176 97.672 48.6216 97.672C47.5296 97.672 46.9896 98.464 46.8456 99.448ZM55.823 103.156C54.047 103.156 52.931 101.8 52.931 99.976C52.931 98.164 54.047 96.796 55.823 96.796C57.323 96.796 58.643 97.648 58.499 100.252H54.023C54.107 101.368 54.623 102.28 55.823 102.28C56.627 102.28 57.155 101.788 57.335 101.224H58.391C58.223 102.232 57.275 103.156 55.823 103.156ZM54.047 99.448H57.467C57.383 98.236 56.819 97.672 55.823 97.672C54.731 97.672 54.191 98.464 54.047 99.448ZM62.6044 103.156C61.1524 103.156 59.9764 101.86 59.9764 99.952C59.9764 98.056 61.1524 96.796 62.6044 96.796C63.4564 96.796 64.1884 97.156 64.6204 97.852V94.6H65.6884V103H64.6204V102.088C64.1404 102.808 63.4564 103.156 62.6044 103.156ZM62.8684 102.268C64.0084 102.268 64.6804 101.284 64.6804 99.964C64.6804 98.656 64.0084 97.684 62.8684 97.684C61.7404 97.684 61.0804 98.632 61.0804 99.952C61.0804 101.284 61.7404 102.268 62.8684 102.268ZM70.2258 103.156C68.4498 103.156 67.3338 101.8 67.3338 99.976C67.3338 98.164 68.4498 96.796 70.2258 96.796C71.7258 96.796 73.0458 97.648 72.9018 100.252H68.4258C68.5098 101.368 69.0258 102.28 70.2258 102.28C71.0298 102.28 71.5578 101.788 71.7378 101.224H72.7938C72.6258 102.232 71.6778 103.156 70.2258 103.156ZM68.4498 99.448H71.8698C71.7858 98.236 71.2218 97.672 70.2258 97.672C69.1338 97.672 68.5938 98.464 68.4498 99.448ZM77.0073 103.156C75.5553 103.156 74.3793 101.86 74.3793 99.952C74.3793 98.056 75.5553 96.796 77.0073 96.796C77.8593 96.796 78.5913 97.156 79.0233 97.852V94.6H80.0913V103H79.0233V102.088C78.5433 102.808 77.8593 103.156 77.0073 103.156ZM77.2713 102.268C78.4113 102.268 79.0833 101.284 79.0833 99.964C79.0833 98.656 78.4113 97.684 77.2713 97.684C76.1433 97.684 75.4833 98.632 75.4833 99.952C75.4833 101.284 76.1433 102.268 77.2713 102.268ZM88.8661 102.688C88.8661 101.212 89.9101 100.336 90.9901 99.556C92.1541 98.728 93.3781 98.02 93.3781 96.868C93.3781 95.92 92.7061 95.38 91.7581 95.38C90.6661 95.38 90.0661 96.052 90.0781 97.048H88.9621C88.8901 95.464 90.1021 94.42 91.8061 94.42C93.4021 94.42 94.5181 95.404 94.5181 96.808C94.5181 97.816 93.9061 98.56 93.1501 99.196C91.8901 100.216 90.2821 100.96 90.1021 102.088H94.6141V103H88.8661V102.688ZM105.813 103.156C104.361 103.156 103.185 101.86 103.185 99.952C103.185 98.056 104.361 96.796 105.813 96.796C106.665 96.796 107.397 97.156 107.829 97.852V94.6H108.897V103H107.829V102.088C107.349 102.808 106.665 103.156 105.813 103.156ZM106.077 102.268C107.217 102.268 107.889 101.284 107.889 99.964C107.889 98.656 107.217 97.684 106.077 97.684C104.949 97.684 104.289 98.632 104.289 99.952C104.289 101.284 104.949 102.268 106.077 102.268ZM112.474 103.156C111.25 103.156 110.446 102.436 110.446 101.368C110.446 99.964 111.67 99.628 112.654 99.508L113.95 99.34C114.442 99.28 114.526 98.992 114.526 98.716V98.704C114.526 98.116 114.13 97.66 113.218 97.66C112.342 97.66 111.826 98.068 111.73 98.812H110.662C110.794 97.588 111.766 96.796 113.206 96.796C114.814 96.796 115.582 97.6 115.582 98.956V101.884C115.582 102.028 115.69 102.124 115.834 102.124H116.206V103H115.486C114.898 103 114.598 102.7 114.598 102.256V102.112C114.07 102.892 113.23 103.156 112.474 103.156ZM112.75 102.292C113.818 102.292 114.526 101.5 114.526 100.324V99.904C114.334 100 114.13 100.048 113.914 100.084L112.858 100.24C111.946 100.384 111.55 100.708 111.55 101.32C111.55 101.932 112.018 102.292 112.75 102.292ZM118.056 104.992V104.128H119.088C119.472 104.128 119.664 104.044 119.796 103.696L120.084 102.892L117.66 96.952H118.8L120.612 101.524L122.304 96.952H123.42L120.696 104.056C120.396 104.836 119.952 104.992 119.244 104.992H118.056ZM127.861 103.156C126.277 103.156 125.293 102.388 125.185 101.104H126.265C126.409 101.908 126.949 102.292 127.885 102.292C128.701 102.292 129.205 101.92 129.205 101.344C129.205 100.9 128.881 100.588 128.257 100.48L127.069 100.24C126.205 100.072 125.353 99.664 125.353 98.56C125.353 97.552 126.301 96.796 127.717 96.796C129.085 96.796 130.081 97.372 130.201 98.692H129.121C129.013 98.02 128.509 97.66 127.705 97.66C126.937 97.66 126.421 98.02 126.421 98.524C126.421 99.004 126.841 99.232 127.321 99.328L128.581 99.568C129.433 99.736 130.297 100.204 130.297 101.284C130.297 102.412 129.301 103.156 127.861 103.156ZM141.28 103.156C140.056 103.156 139.252 102.436 139.252 101.368C139.252 99.964 140.476 99.628 141.46 99.508L142.756 99.34C143.248 99.28 143.332 98.992 143.332 98.716V98.704C143.332 98.116 142.936 97.66 142.024 97.66C141.148 97.66 140.632 98.068 140.536 98.812H139.468C139.6 97.588 140.572 96.796 142.012 96.796C143.62 96.796 144.388 97.6 144.388 98.956V101.884C144.388 102.028 144.496 102.124 144.64 102.124H145.012V103H144.292C143.704 103 143.404 102.7 143.404 102.256V102.112C142.876 102.892 142.036 103.156 141.28 103.156ZM141.556 102.292C142.624 102.292 143.332 101.5 143.332 100.324V99.904C143.14 100 142.936 100.048 142.72 100.084L141.664 100.24C140.752 100.384 140.356 100.708 140.356 101.32C140.356 101.932 140.824 102.292 141.556 102.292ZM149.297 105.112C147.773 105.112 146.813 104.464 146.657 103.312H147.737C147.917 103.972 148.397 104.248 149.333 104.248C150.197 104.248 151.001 103.804 151.001 102.58V101.8C150.545 102.556 149.825 102.868 149.033 102.868C147.581 102.868 146.393 101.584 146.393 99.82C146.393 98.056 147.581 96.796 149.033 96.796C149.837 96.796 150.605 97.168 151.001 97.852V96.952H152.057V102.568C152.057 104.44 150.725 105.112 149.297 105.112ZM149.261 102.004C150.341 102.004 151.061 101.068 151.061 99.808C151.061 98.536 150.341 97.684 149.261 97.684C148.181 97.684 147.473 98.536 147.473 99.808C147.473 101.068 148.181 102.004 149.261 102.004ZM156.547 103.156C154.711 103.156 153.631 101.788 153.631 99.976C153.631 98.176 154.711 96.796 156.547 96.796C158.383 96.796 159.463 98.176 159.463 99.976C159.463 101.788 158.383 103.156 156.547 103.156ZM156.547 102.268C157.867 102.268 158.371 101.14 158.371 99.964C158.371 98.8 157.867 97.684 156.547 97.684C155.227 97.684 154.723 98.8 154.723 99.964C154.723 101.14 155.227 102.268 156.547 102.268ZM168.154 103V102.1H170.41V97.852H168.394V96.952H171.502V102.1H173.746V103H168.154ZM170.362 95.92V94.6H171.562V95.92H170.362ZM175.523 103V96.952H176.591V97.864C176.975 97.192 177.755 96.796 178.619 96.796C179.927 96.796 180.839 97.624 180.839 99.232V103H179.783V99.292C179.783 98.236 179.183 97.684 178.307 97.684C177.359 97.684 176.591 98.44 176.591 99.508V103H175.523ZM192.314 103.18C190.694 103.18 189.722 102.076 189.71 100.9H190.814C190.958 101.812 191.594 102.232 192.386 102.232C193.694 102.232 194.486 101.056 194.486 98.884C193.982 99.808 193.058 100.108 192.29 100.108C190.79 100.108 189.506 99.088 189.506 97.324C189.506 95.584 190.766 94.42 192.482 94.42C194.222 94.42 195.614 95.584 195.614 98.776C195.614 101.776 194.174 103.18 192.314 103.18ZM192.47 99.208C193.49 99.208 194.306 98.428 194.306 97.276C194.306 96.112 193.49 95.344 192.47 95.344C191.45 95.344 190.634 96.112 190.634 97.276C190.634 98.428 191.45 99.208 192.47 99.208ZM196.803 103V96.952H197.823V97.468C198.063 97.036 198.519 96.796 199.011 96.796C199.623 96.796 199.983 97.168 200.103 97.516C200.451 96.94 200.967 96.796 201.447 96.796C202.227 96.796 202.755 97.384 202.755 98.38V103H201.735V98.572C201.735 97.996 201.531 97.72 201.159 97.72C200.691 97.72 200.283 98.152 200.283 98.884V103H199.275V98.572C199.275 97.996 199.059 97.72 198.687 97.72C198.219 97.72 197.823 98.152 197.823 98.884V103H196.803ZM211.182 103V102.088H213.63V97.108H211.686V96.184H213.33C213.498 96.184 213.63 96.052 213.63 95.896V94.6H214.71V102.088H217.146V103H211.182ZM222.127 103V100.696H218.215V99.616L221.899 94.6H223.231V99.796H224.503V100.696H223.231V103H222.127ZM219.271 99.796H222.127V95.896L219.271 99.796ZM228.681 103.156C227.097 103.156 226.113 102.388 226.005 101.104H227.085C227.229 101.908 227.769 102.292 228.705 102.292C229.521 102.292 230.025 101.92 230.025 101.344C230.025 100.9 229.701 100.588 229.077 100.48L227.889 100.24C227.025 100.072 226.173 99.664 226.173 98.56C226.173 97.552 227.121 96.796 228.537 96.796C229.905 96.796 230.901 97.372 231.021 98.692H229.941C229.833 98.02 229.329 97.66 228.525 97.66C227.757 97.66 227.241 98.02 227.241 98.524C227.241 99.004 227.661 99.232 228.141 99.328L229.401 99.568C230.253 99.736 231.117 100.204 231.117 101.284C231.117 102.412 230.121 103.156 228.681 103.156Z" fill="#F4F3EC" fill-opacity="0.5"/>
    <rect x="17.5" y="137.547" width="15" height="15" rx="7.5" stroke="#827A89"/>
    <path d="M21.625 145.438L23.625 147.522L28.375 142.572" stroke="#827A89" stroke-width="1.2" stroke-linecap="round" stroke-linejoin="round"/>
    <path d="M50.342 149.716C47.937 149.716 46.585 148.364 46.507 146.726H47.716C47.924 147.961 48.899 148.689 50.342 148.689C51.72 148.689 52.721 148.182 52.721 147.077C52.721 146.362 52.253 145.907 51.252 145.686L49.367 145.257C48.223 144.997 46.858 144.503 46.858 142.787C46.858 141.305 48.223 140.278 50.238 140.278C52.357 140.278 53.566 141.435 53.644 142.969H52.435C52.24 141.929 51.499 141.279 50.173 141.279C48.925 141.279 48.106 141.864 48.106 142.722C48.106 143.45 48.574 143.853 49.627 144.1L51.577 144.542C53.137 144.906 53.956 145.699 53.956 146.986C53.956 148.676 52.578 149.716 50.342 149.716ZM58.0458 149.716C56.1218 149.716 54.9128 148.247 54.9128 146.271C54.9128 144.308 56.1218 142.826 58.0458 142.826C59.6708 142.826 61.1008 143.749 60.9448 146.57H56.0958C56.1738 147.766 56.7328 148.767 58.0458 148.767C58.9168 148.767 59.4888 148.325 59.7228 147.493H60.8668C60.6198 148.793 59.6188 149.716 58.0458 149.716ZM56.1218 145.699H59.8268C59.7488 144.386 59.1378 143.762 58.0458 143.762C56.8498 143.762 56.2648 144.62 56.1218 145.699ZM64.3142 149.547C63.3132 149.547 62.8452 149.118 62.8452 148.013V143.931H61.8052V142.995H62.5462C62.7282 142.995 62.8452 142.878 62.8452 142.709V140.824H63.9762V142.995H65.4192V143.931H63.9762V147.844C63.9762 148.403 64.1322 148.598 64.6522 148.598H65.5752V149.547H64.3142ZM72.072 149.716C70.707 149.716 69.745 148.806 69.745 147.103V142.995H70.889V147.025C70.889 148.169 71.539 148.754 72.475 148.754C73.411 148.754 74.243 147.948 74.243 146.778V142.995H75.387V149.547H74.243V148.533C73.814 149.313 72.995 149.716 72.072 149.716ZM77.1506 151.705V142.995H78.2946V143.983C78.8276 143.19 79.5686 142.826 80.4786 142.826C82.0776 142.826 83.3386 144.23 83.3386 146.284C83.3386 148.338 82.0776 149.716 80.4786 149.716C79.5686 149.716 78.7626 149.313 78.2946 148.572V151.705H77.1506ZM78.2296 146.271C78.2296 147.701 78.9706 148.754 80.2056 148.754C81.4536 148.754 82.1556 147.727 82.1556 146.284C82.1556 144.854 81.4536 143.775 80.2056 143.775C78.9706 143.775 78.2296 144.854 78.2296 146.271ZM86.6678 151.705V150.769H87.1488C87.5258 150.769 87.7338 150.639 87.7338 150.21V142.995H88.8908V150.392C88.8908 151.354 88.3578 151.705 87.3438 151.705H86.6678ZM87.6688 141.877V140.447H88.9558V141.877H87.6688ZM93.5004 149.716C91.5114 149.716 90.3414 148.234 90.3414 146.271C90.3414 144.321 91.5114 142.826 93.5004 142.826C95.4894 142.826 96.6594 144.321 96.6594 146.271C96.6594 148.234 95.4894 149.716 93.5004 149.716ZM91.5244 146.258C91.5244 147.545 92.0574 148.767 93.5004 148.767C94.9304 148.767 95.4764 147.545 95.4764 146.258C95.4764 144.984 94.9304 143.775 93.5004 143.775C92.0574 143.775 91.5244 144.984 91.5244 146.258ZM101.427 149.716C100.517 149.716 99.7756 149.339 99.2426 148.559V149.547H98.0986V140.447H99.2426V143.97C99.7106 143.216 100.517 142.826 101.427 142.826C103.013 142.826 104.287 144.191 104.287 146.245C104.287 148.312 103.013 149.716 101.427 149.716ZM99.1776 146.258C99.1776 147.688 99.9186 148.754 101.154 148.754C102.389 148.754 103.104 147.688 103.104 146.245C103.104 144.815 102.389 143.775 101.154 143.775C99.9186 143.775 99.1776 144.841 99.1776 146.258Z" fill="white" fill-opacity="0.7"/>
    <path d="M448.154 150.216C446.035 150.216 444.696 148.448 444.696 145.497C444.696 142.533 446.035 140.791 448.154 140.791C450.286 140.791 451.625 142.533 451.625 145.497C451.625 148.448 450.286 150.216 448.154 150.216ZM448.154 149.202C449.662 149.202 450.39 147.837 450.39 145.497C450.39 143.144 449.662 141.805 448.154 141.805C446.659 141.805 445.918 143.144 445.918 145.497C445.918 147.837 446.659 149.202 448.154 149.202ZM456.098 150.216C454.382 150.216 453.316 149.384 453.199 147.993H454.369C454.525 148.864 455.11 149.28 456.124 149.28C457.008 149.28 457.554 148.877 457.554 148.253C457.554 147.772 457.203 147.434 456.527 147.317L455.24 147.057C454.304 146.875 453.381 146.433 453.381 145.237C453.381 144.145 454.408 143.326 455.942 143.326C457.424 143.326 458.503 143.95 458.633 145.38H457.463C457.346 144.652 456.8 144.262 455.929 144.262C455.097 144.262 454.538 144.652 454.538 145.198C454.538 145.718 454.993 145.965 455.513 146.069L456.878 146.329C457.801 146.511 458.737 147.018 458.737 148.188C458.737 149.41 457.658 150.216 456.098 150.216Z" fill="#F4F3EC" fill-opacity="0.5"/>
    <g opacity="0.75">
        <rect x="17.5" y="173.547" width="15" height="15" rx="7.5" stroke="#827A89"/>
        <path d="M21.625 181.438L23.625 183.522L28.375 178.572" stroke="#827A89" stroke-width="1.2" stroke-linecap="round" stroke-linejoin="round"/>
        <path d="M47.001 185.547V176.447H50.992C52.591 176.447 53.761 177.422 53.761 179.073C53.761 180.399 53.007 181.283 51.876 181.582L53.904 185.547H52.604L50.641 181.699H48.171V185.547H47.001ZM48.171 180.724H50.797C51.902 180.724 52.539 180.113 52.539 179.073C52.539 178.033 51.902 177.435 50.797 177.435H48.171V180.724ZM57.6537 185.716C56.2887 185.716 55.3267 184.806 55.3267 183.103V178.995H56.4707V183.025C56.4707 184.169 57.1207 184.754 58.0567 184.754C58.9927 184.754 59.8247 183.948 59.8247 182.778V178.995H60.9687V185.547H59.8247V184.533C59.3957 185.313 58.5767 185.716 57.6537 185.716ZM62.7323 185.547V178.995H63.8763V179.983C64.3053 179.255 65.1373 178.826 66.0863 178.826C67.5033 178.826 68.5043 179.723 68.5043 181.465V185.547H67.3603V181.53C67.3603 180.386 66.7103 179.788 65.7483 179.788C64.7213 179.788 63.8763 180.607 63.8763 181.764V185.547H62.7323ZM75.0206 185.716C73.6816 185.716 72.8236 184.936 72.8236 183.779C72.8236 182.245 74.1366 181.907 75.2026 181.764L76.6196 181.582C77.1396 181.504 77.2436 181.205 77.2436 180.906C77.2436 180.269 76.8146 179.749 75.8266 179.749C74.8516 179.749 74.2926 180.204 74.1886 181.01H73.0446C73.1876 179.697 74.2406 178.826 75.8006 178.826C77.5426 178.826 78.3746 179.697 78.3746 181.166V184.351C78.3746 184.494 78.4916 184.598 78.6476 184.598H79.0506V185.547H78.2706C77.6466 185.547 77.3086 185.222 77.3086 184.741V184.585C76.7366 185.43 75.8266 185.716 75.0206 185.716ZM74.0066 183.727C74.0066 184.403 74.5136 184.793 75.3066 184.793C76.4766 184.793 77.2436 183.935 77.2436 182.648V182.18C77.0226 182.297 76.8016 182.336 76.5806 182.375L75.4236 182.557C74.4356 182.713 74.0066 183.064 74.0066 183.727ZM83.0046 185.716C81.0936 185.716 79.8586 184.234 79.8586 182.271C79.8586 180.321 81.0936 178.826 83.0176 178.826C84.5256 178.826 85.6176 179.736 85.8256 181.231H84.6686C84.4866 180.321 83.8496 179.775 83.0046 179.775C81.6396 179.775 81.0416 180.958 81.0416 182.258C81.0416 183.571 81.6396 184.767 83.0046 184.767C83.8626 184.767 84.4346 184.325 84.6686 183.467H85.8126C85.5656 184.806 84.5646 185.716 83.0046 185.716ZM89.1711 185.547C88.1701 185.547 87.7021 185.118 87.7021 184.013V179.931H86.6621V178.995H87.4031C87.5851 178.995 87.7021 178.878 87.7021 178.709V176.824H88.8331V178.995H92.4601V185.547H91.3161V179.931H88.8331V183.844C88.8331 184.403 88.9891 184.598 89.5091 184.598H90.4191V185.547H89.1711ZM91.2511 177.877V176.447H92.5381V177.877H91.2511ZM97.052 185.716C95.063 185.716 93.893 184.234 93.893 182.271C93.893 180.321 95.063 178.826 97.052 178.826C99.041 178.826 100.211 180.321 100.211 182.271C100.211 184.234 99.041 185.716 97.052 185.716ZM95.076 182.258C95.076 183.545 95.609 184.767 97.052 184.767C98.482 184.767 99.028 183.545 99.028 182.258C99.028 180.984 98.482 179.775 97.052 179.775C95.609 179.775 95.076 180.984 95.076 182.258ZM101.598 185.547V178.995H102.742V179.983C103.171 179.255 104.003 178.826 104.952 178.826C106.369 178.826 107.37 179.723 107.37 181.465V185.547H106.226V181.53C106.226 180.386 105.576 179.788 104.614 179.788C103.587 179.788 102.742 180.607 102.742 181.764V185.547H101.598ZM111.588 185.716C109.872 185.716 108.806 184.897 108.689 183.493H109.859C110.015 184.364 110.6 184.793 111.614 184.793C112.498 184.793 113.057 184.39 113.057 183.753C113.057 183.272 112.693 182.934 112.017 182.804L110.743 182.557C109.794 182.375 108.884 181.933 108.884 180.724C108.884 179.645 109.898 178.826 111.432 178.826C112.914 178.826 113.993 179.45 114.123 180.867H112.966C112.836 180.139 112.303 179.749 111.419 179.749C110.587 179.749 110.028 180.139 110.028 180.698C110.028 181.231 110.483 181.465 111.016 181.569L112.368 181.829C113.304 182.011 114.24 182.518 114.24 183.688C114.24 184.91 113.148 185.716 111.588 185.716ZM115.034 186.821L119.038 176.447H120.143L116.139 186.821H115.034ZM123.432 185.716C121.521 185.716 120.286 184.234 120.286 182.271C120.286 180.321 121.521 178.826 123.445 178.826C124.953 178.826 126.045 179.736 126.253 181.231H125.096C124.914 180.321 124.277 179.775 123.432 179.775C122.067 179.775 121.469 180.958 121.469 182.258C121.469 183.571 122.067 184.767 123.432 184.767C124.29 184.767 124.862 184.325 125.096 183.467H126.24C125.993 184.806 124.992 185.716 123.432 185.716ZM127.701 185.547V176.447H128.845V179.983C129.261 179.268 130.028 178.826 130.99 178.826C132.329 178.826 133.317 179.71 133.317 181.465V185.547H132.173V181.53C132.173 180.386 131.536 179.788 130.639 179.788C129.664 179.788 128.845 180.607 128.845 181.777V185.547H127.701ZM137.796 185.716C135.872 185.716 134.663 184.247 134.663 182.271C134.663 180.308 135.872 178.826 137.796 178.826C139.421 178.826 140.851 179.749 140.695 182.57H135.846C135.924 183.766 136.483 184.767 137.796 184.767C138.667 184.767 139.239 184.325 139.473 183.493H140.617C140.37 184.793 139.369 185.716 137.796 185.716ZM135.872 181.699H139.577C139.499 180.386 138.888 179.762 137.796 179.762C136.6 179.762 136.015 180.62 135.872 181.699ZM144.884 185.716C142.973 185.716 141.738 184.234 141.738 182.271C141.738 180.321 142.973 178.826 144.897 178.826C146.405 178.826 147.497 179.736 147.705 181.231H146.548C146.366 180.321 145.729 179.775 144.884 179.775C143.519 179.775 142.921 180.958 142.921 182.258C142.921 183.571 143.519 184.767 144.884 184.767C145.742 184.767 146.314 184.325 146.548 183.467H147.692C147.445 184.806 146.444 185.716 144.884 185.716ZM149.152 185.547V176.447H150.296V182.076L153.182 178.995H154.612L152.233 181.491L155.054 185.547H153.676L151.44 182.336L150.296 183.532V185.547H149.152ZM158.436 185.716C156.447 185.716 155.277 184.234 155.277 182.271C155.277 180.321 156.447 178.826 158.436 178.826C160.425 178.826 161.595 180.321 161.595 182.271C161.595 184.234 160.425 185.716 158.436 185.716ZM156.46 182.258C156.46 183.545 156.993 184.767 158.436 184.767C159.866 184.767 160.412 183.545 160.412 182.258C160.412 180.984 159.866 179.775 158.436 179.775C156.993 179.775 156.46 180.984 156.46 182.258ZM165.257 185.716C163.892 185.716 162.93 184.806 162.93 183.103V178.995H164.074V183.025C164.074 184.169 164.724 184.754 165.66 184.754C166.596 184.754 167.428 183.948 167.428 182.778V178.995H168.572V185.547H167.428V184.533C166.999 185.313 166.18 185.716 165.257 185.716ZM172.286 185.547C171.285 185.547 170.817 185.118 170.817 184.013V179.931H169.777V178.995H170.518C170.7 178.995 170.817 178.878 170.817 178.709V176.824H171.948V178.995H173.391V179.931H171.948V183.844C171.948 184.403 172.104 184.598 172.624 184.598H173.547V185.547H172.286ZM179.799 187.003C176.783 187.003 174.781 184.845 174.781 181.595C174.781 178.54 177.108 176.252 180.241 176.252C183.179 176.252 185.259 178.202 185.259 180.945C185.259 182.999 184.349 184.429 183.036 184.429H182.204C181.671 184.429 181.385 184.156 181.385 183.74V183.597C180.891 184.325 180.176 184.572 179.474 184.572C178.33 184.572 177.576 183.909 177.576 182.895C177.576 181.608 178.72 181.283 179.539 181.179L180.852 180.997C181.294 180.932 181.385 180.698 181.385 180.438C181.385 179.879 181.008 179.476 180.163 179.476C179.383 179.476 178.915 179.879 178.837 180.568H177.771C177.888 179.372 178.798 178.618 180.189 178.618C181.658 178.618 182.399 179.346 182.399 180.776V183.363C182.399 183.48 182.49 183.571 182.62 183.571H183.023C183.79 183.571 184.323 182.479 184.323 180.919C184.323 178.709 182.568 177.058 180.228 177.058C177.615 177.058 175.717 178.956 175.717 181.556C175.717 184.416 177.329 186.197 179.929 186.197H181.775V187.003H179.799ZM178.603 182.856C178.603 183.428 179.045 183.766 179.734 183.766C180.722 183.766 181.385 183.025 181.385 181.933V181.543C181.19 181.634 181.008 181.673 180.813 181.699L179.825 181.855C178.967 181.985 178.603 182.284 178.603 182.856ZM188.715 185.547L186.323 178.995H187.558L189.417 184.377L191.276 178.995H192.524L190.132 185.547H188.715ZM197.944 185.547V183.051H193.186V181.894L197.697 176.447H199.127V182.076H200.505V183.051H199.127V185.547H197.944ZM194.317 182.076H197.944V177.669L194.317 182.076Z" fill="white" fill-opacity="0.7"/>
        <path d="M444.943 186.047V185.059H447.595V179.664H445.489V178.663H447.27C447.452 178.663 447.595 178.52 447.595 178.351V176.947H448.765V185.059H451.404V186.047H444.943ZM456.098 186.216C454.382 186.216 453.316 185.384 453.199 183.993H454.369C454.525 184.864 455.11 185.28 456.124 185.28C457.008 185.28 457.554 184.877 457.554 184.253C457.554 183.772 457.203 183.434 456.527 183.317L455.24 183.057C454.304 182.875 453.381 182.433 453.381 181.237C453.381 180.145 454.408 179.326 455.942 179.326C457.424 179.326 458.503 179.95 458.633 181.38H457.463C457.346 180.652 456.8 180.262 455.929 180.262C455.097 180.262 454.538 180.652 454.538 181.198C454.538 181.718 454.993 181.965 455.513 182.069L456.878 182.329C457.801 182.511 458.737 183.018 458.737 184.188C458.737 185.41 457.658 186.216 456.098 186.216Z" fill="#F4F3EC" fill-opacity="0.5"/>
    </g>
    <g opacity="0.5">
        <rect x="17.5" y="209.547" width="15" height="15" rx="7.5" stroke="#827A89"/>
        <path d="M21.625 217.438L23.625 219.522L28.375 214.572" stroke="#827A89" stroke-width="1.2" stroke-linecap="round" stroke-linejoin="round"/>
        <path d="M47.001 221.547V212.447H50.992C52.591 212.447 53.761 213.422 53.761 215.073C53.761 216.399 53.007 217.283 51.876 217.582L53.904 221.547H52.604L50.641 217.699H48.171V221.547H47.001ZM48.171 216.724H50.797C51.902 216.724 52.539 216.113 52.539 215.073C52.539 214.033 51.902 213.435 50.797 213.435H48.171V216.724ZM57.6537 221.716C56.2887 221.716 55.3267 220.806 55.3267 219.103V214.995H56.4707V219.025C56.4707 220.169 57.1207 220.754 58.0567 220.754C58.9927 220.754 59.8247 219.948 59.8247 218.778V214.995H60.9687V221.547H59.8247V220.533C59.3957 221.313 58.5767 221.716 57.6537 221.716ZM62.7323 221.547V214.995H63.8763V215.983C64.3053 215.255 65.1373 214.826 66.0863 214.826C67.5033 214.826 68.5043 215.723 68.5043 217.465V221.547H67.3603V217.53C67.3603 216.386 66.7103 215.788 65.7483 215.788C64.7213 215.788 63.8763 216.607 63.8763 217.764V221.547H62.7323ZM75.0206 221.716C73.6816 221.716 72.8236 220.936 72.8236 219.779C72.8236 218.245 74.1366 217.907 75.2026 217.764L76.6196 217.582C77.1396 217.504 77.2436 217.205 77.2436 216.906C77.2436 216.269 76.8146 215.749 75.8266 215.749C74.8516 215.749 74.2926 216.204 74.1886 217.01H73.0446C73.1876 215.697 74.2406 214.826 75.8006 214.826C77.5426 214.826 78.3746 215.697 78.3746 217.166V220.351C78.3746 220.494 78.4916 220.598 78.6476 220.598H79.0506V221.547H78.2706C77.6466 221.547 77.3086 221.222 77.3086 220.741V220.585C76.7366 221.43 75.8266 221.716 75.0206 221.716ZM74.0066 219.727C74.0066 220.403 74.5136 220.793 75.3066 220.793C76.4766 220.793 77.2436 219.935 77.2436 218.648V218.18C77.0226 218.297 76.8016 218.336 76.5806 218.375L75.4236 218.557C74.4356 218.713 74.0066 219.064 74.0066 219.727ZM83.0046 221.716C81.0936 221.716 79.8586 220.234 79.8586 218.271C79.8586 216.321 81.0936 214.826 83.0176 214.826C84.5256 214.826 85.6176 215.736 85.8256 217.231H84.6686C84.4866 216.321 83.8496 215.775 83.0046 215.775C81.6396 215.775 81.0416 216.958 81.0416 218.258C81.0416 219.571 81.6396 220.767 83.0046 220.767C83.8626 220.767 84.4346 220.325 84.6686 219.467H85.8126C85.5656 220.806 84.5646 221.716 83.0046 221.716ZM89.1711 221.547C88.1701 221.547 87.7021 221.118 87.7021 220.013V215.931H86.6621V214.995H87.4031C87.5851 214.995 87.7021 214.878 87.7021 214.709V212.824H88.8331V214.995H92.4601V221.547H91.3161V215.931H88.8331V219.844C88.8331 220.403 88.9891 220.598 89.5091 220.598H90.4191V221.547H89.1711ZM91.2511 213.877V212.447H92.5381V213.877H91.2511ZM97.052 221.716C95.063 221.716 93.893 220.234 93.893 218.271C93.893 216.321 95.063 214.826 97.052 214.826C99.041 214.826 100.211 216.321 100.211 218.271C100.211 220.234 99.041 221.716 97.052 221.716ZM95.076 218.258C95.076 219.545 95.609 220.767 97.052 220.767C98.482 220.767 99.028 219.545 99.028 218.258C99.028 216.984 98.482 215.775 97.052 215.775C95.609 215.775 95.076 216.984 95.076 218.258ZM101.598 221.547V214.995H102.742V215.983C103.171 215.255 104.003 214.826 104.952 214.826C106.369 214.826 107.37 215.723 107.37 217.465V221.547H106.226V217.53C106.226 216.386 105.576 215.788 104.614 215.788C103.587 215.788 102.742 216.607 102.742 217.764V221.547H101.598ZM111.588 221.716C109.872 221.716 108.806 220.897 108.689 219.493H109.859C110.015 220.364 110.6 220.793 111.614 220.793C112.498 220.793 113.057 220.39 113.057 219.753C113.057 219.272 112.693 218.934 112.017 218.804L110.743 218.557C109.794 218.375 108.884 217.933 108.884 216.724C108.884 215.645 109.898 214.826 111.432 214.826C112.914 214.826 113.993 215.45 114.123 216.867H112.966C112.836 216.139 112.303 215.749 111.419 215.749C110.587 215.749 110.028 216.139 110.028 216.698C110.028 217.231 110.483 217.465 111.016 217.569L112.368 217.829C113.304 218.011 114.24 218.518 114.24 219.688C114.24 220.91 113.148 221.716 111.588 221.716ZM115.034 222.821L119.038 212.447H120.143L116.139 222.821H115.034ZM123.349 221.716C121.633 221.716 120.567 220.897 120.45 219.493H121.62C121.776 220.364 122.361 220.793 123.375 220.793C124.259 220.793 124.818 220.39 124.818 219.753C124.818 219.272 124.454 218.934 123.778 218.804L122.504 218.557C121.555 218.375 120.645 217.933 120.645 216.724C120.645 215.645 121.659 214.826 123.193 214.826C124.675 214.826 125.754 215.45 125.884 216.867H124.727C124.597 216.139 124.064 215.749 123.18 215.749C122.348 215.749 121.789 216.139 121.789 216.698C121.789 217.231 122.244 217.465 122.777 217.569L124.129 217.829C125.065 218.011 126.001 218.518 126.001 219.688C126.001 220.91 124.909 221.716 123.349 221.716ZM130.176 221.716C128.252 221.716 127.043 220.247 127.043 218.271C127.043 216.308 128.252 214.826 130.176 214.826C131.801 214.826 133.231 215.749 133.075 218.57H128.226C128.304 219.766 128.863 220.767 130.176 220.767C131.047 220.767 131.619 220.325 131.853 219.493H132.997C132.75 220.793 131.749 221.716 130.176 221.716ZM128.252 217.699H131.957C131.879 216.386 131.268 215.762 130.176 215.762C128.98 215.762 128.395 216.62 128.252 217.699ZM136.444 221.547C135.443 221.547 134.975 221.118 134.975 220.013V215.931H133.935V214.995H134.676C134.858 214.995 134.975 214.878 134.975 214.709V212.824H136.106V214.995H137.549V215.931H136.106V219.844C136.106 220.403 136.262 220.598 136.782 220.598H137.705V221.547H136.444ZM141.279 221.716C139.914 221.716 138.952 220.806 138.952 219.103V214.995H140.096V219.025C140.096 220.169 140.746 220.754 141.682 220.754C142.618 220.754 143.45 219.948 143.45 218.778V214.995H144.594V221.547H143.45V220.533C143.021 221.313 142.202 221.716 141.279 221.716ZM146.358 223.705V214.995H147.502V215.983C148.035 215.19 148.776 214.826 149.686 214.826C151.285 214.826 152.546 216.23 152.546 218.284C152.546 220.338 151.285 221.716 149.686 221.716C148.776 221.716 147.97 221.313 147.502 220.572V223.705H146.358ZM147.437 218.271C147.437 219.701 148.178 220.754 149.413 220.754C150.661 220.754 151.363 219.727 151.363 218.284C151.363 216.854 150.661 215.775 149.413 215.775C148.178 215.775 147.437 216.854 147.437 218.271ZM154.057 218.245V217.192H157.567V218.245H154.057ZM159.466 221.547V214.995H160.61V215.983C161.039 215.255 161.871 214.826 162.82 214.826C164.237 214.826 165.238 215.723 165.238 217.465V221.547H164.094V217.53C164.094 216.386 163.444 215.788 162.482 215.788C161.455 215.788 160.61 216.607 160.61 217.764V221.547H159.466ZM169.741 221.716C167.752 221.716 166.582 220.234 166.582 218.271C166.582 216.321 167.752 214.826 169.741 214.826C171.73 214.826 172.9 216.321 172.9 218.271C172.9 220.234 171.73 221.716 169.741 221.716ZM167.765 218.258C167.765 219.545 168.298 220.767 169.741 220.767C171.171 220.767 171.717 219.545 171.717 218.258C171.717 216.984 171.171 215.775 169.741 215.775C168.298 215.775 167.765 216.984 167.765 218.258ZM176.757 221.716C175.184 221.716 173.91 220.312 173.91 218.245C173.91 216.191 175.184 214.826 176.757 214.826C177.693 214.826 178.499 215.216 178.954 215.97V212.447H180.098V221.547H178.954V220.559C178.434 221.339 177.693 221.716 176.757 221.716ZM175.093 218.245C175.093 219.688 175.808 220.754 177.056 220.754C178.291 220.754 179.019 219.688 179.019 218.258C179.019 216.841 178.291 215.775 177.056 215.775C175.808 215.775 175.093 216.815 175.093 218.245ZM184.676 221.716C182.752 221.716 181.543 220.247 181.543 218.271C181.543 216.308 182.752 214.826 184.676 214.826C186.301 214.826 187.731 215.749 187.575 218.57H182.726C182.804 219.766 183.363 220.767 184.676 220.767C185.547 220.767 186.119 220.325 186.353 219.493H187.497C187.25 220.793 186.249 221.716 184.676 221.716ZM182.752 217.699H186.457C186.379 216.386 185.768 215.762 184.676 215.762C183.48 215.762 182.895 216.62 182.752 217.699ZM193.947 223.003C190.931 223.003 188.929 220.845 188.929 217.595C188.929 214.54 191.256 212.252 194.389 212.252C197.327 212.252 199.407 214.202 199.407 216.945C199.407 218.999 198.497 220.429 197.184 220.429H196.352C195.819 220.429 195.533 220.156 195.533 219.74V219.597C195.039 220.325 194.324 220.572 193.622 220.572C192.478 220.572 191.724 219.909 191.724 218.895C191.724 217.608 192.868 217.283 193.687 217.179L195 216.997C195.442 216.932 195.533 216.698 195.533 216.438C195.533 215.879 195.156 215.476 194.311 215.476C193.531 215.476 193.063 215.879 192.985 216.568H191.919C192.036 215.372 192.946 214.618 194.337 214.618C195.806 214.618 196.547 215.346 196.547 216.776V219.363C196.547 219.48 196.638 219.571 196.768 219.571H197.171C197.938 219.571 198.471 218.479 198.471 216.919C198.471 214.709 196.716 213.058 194.376 213.058C191.763 213.058 189.865 214.956 189.865 217.556C189.865 220.416 191.477 222.197 194.077 222.197H195.923V223.003H193.947ZM192.751 218.856C192.751 219.428 193.193 219.766 193.882 219.766C194.87 219.766 195.533 219.025 195.533 217.933V217.543C195.338 217.634 195.156 217.673 194.961 217.699L193.973 217.855C193.115 217.985 192.751 218.284 192.751 218.856ZM202.864 221.547L200.472 214.995H201.707L203.566 220.377L205.425 214.995H206.673L204.281 221.547H202.864ZM212.092 221.547V219.051H207.334V217.894L211.845 212.447H213.275V218.076H214.653V219.051H213.275V221.547H212.092ZM208.465 218.076H212.092V213.669L208.465 218.076Z" fill="white" fill-opacity="0.7"/>
        <path d="M448.999 222.047V219.551H444.761V218.381L448.752 212.947H450.195V218.576H451.573V219.551H450.195V222.047H448.999ZM445.905 218.576H448.999V214.351L445.905 218.576ZM456.098 222.216C454.382 222.216 453.316 221.384 453.199 219.993H454.369C454.525 220.864 455.11 221.28 456.124 221.28C457.008 221.28 457.554 220.877 457.554 220.253C457.554 219.772 457.203 219.434 456.527 219.317L455.24 219.057C454.304 218.875 453.381 218.433 453.381 217.237C453.381 216.145 454.408 215.326 455.942 215.326C457.424 215.326 458.503 215.95 458.633 217.38H457.463C457.346 216.652 456.8 216.262 455.929 216.262C455.097 216.262 454.538 216.652 454.538 217.198C454.538 217.718 454.993 217.965 455.513 218.069L456.878 218.329C457.801 218.511 458.737 219.018 458.737 220.188C458.737 221.41 457.658 222.216 456.098 222.216Z" fill="#F4F3EC" fill-opacity="0.5"/>
    </g>
    <g opacity="0.25">
        <rect x="17.5" y="245.547" width="15" height="15" rx="7.5" stroke="#827A89"/>
        <path d="M21.625 253.438L23.625 255.522L28.375 250.572" stroke="#827A89" stroke-width="1.2" stroke-linecap="round" stroke-linejoin="round"/>
        <path d="M47.001 257.547V248.447H50.992C52.591 248.447 53.761 249.422 53.761 251.073C53.761 252.399 53.007 253.283 51.876 253.582L53.904 257.547H52.604L50.641 253.699H48.171V257.547H47.001ZM48.171 252.724H50.797C51.902 252.724 52.539 252.113 52.539 251.073C52.539 250.033 51.902 249.435 50.797 249.435H48.171V252.724ZM57.6537 257.716C56.2887 257.716 55.3267 256.806 55.3267 255.103V250.995H56.4707V255.025C56.4707 256.169 57.1207 256.754 58.0567 256.754C58.9927 256.754 59.8247 255.948 59.8247 254.778V250.995H60.9687V257.547H59.8247V256.533C59.3957 257.313 58.5767 257.716 57.6537 257.716ZM62.7323 257.547V250.995H63.8763V251.983C64.3053 251.255 65.1373 250.826 66.0863 250.826C67.5033 250.826 68.5043 251.723 68.5043 253.465V257.547H67.3603V253.53C67.3603 252.386 66.7103 251.788 65.7483 251.788C64.7213 251.788 63.8763 252.607 63.8763 253.764V257.547H62.7323ZM75.9176 257.716C74.0066 257.716 72.7716 256.234 72.7716 254.271C72.7716 252.321 74.0066 250.826 75.9306 250.826C77.4386 250.826 78.5306 251.736 78.7386 253.231H77.5816C77.3996 252.321 76.7626 251.775 75.9176 251.775C74.5526 251.775 73.9546 252.958 73.9546 254.258C73.9546 255.571 74.5526 256.767 75.9176 256.767C76.7756 256.767 77.3476 256.325 77.5816 255.467H78.7256C78.4786 256.806 77.4776 257.716 75.9176 257.716ZM82.916 257.716C80.927 257.716 79.757 256.234 79.757 254.271C79.757 252.321 80.927 250.826 82.916 250.826C84.905 250.826 86.075 252.321 86.075 254.271C86.075 256.234 84.905 257.716 82.916 257.716ZM80.94 254.258C80.94 255.545 81.473 256.767 82.916 256.767C84.346 256.767 84.892 255.545 84.892 254.258C84.892 252.984 84.346 251.775 82.916 251.775C81.473 251.775 80.94 252.984 80.94 254.258ZM87.4623 257.547V250.995H88.6063V252.087C89.0093 251.281 89.6333 250.995 90.4003 250.995H90.7643V252.074H90.3093C89.2693 252.074 88.6063 252.724 88.6063 254.076V257.547H87.4623ZM94.5377 257.716C92.6137 257.716 91.4047 256.247 91.4047 254.271C91.4047 252.308 92.6137 250.826 94.5377 250.826C96.1627 250.826 97.5927 251.749 97.4367 254.57H92.5877C92.6657 255.766 93.2247 256.767 94.5377 256.767C95.4087 256.767 95.9807 256.325 96.2147 255.493H97.3587C97.1117 256.793 96.1107 257.716 94.5377 257.716ZM92.6137 253.699H96.3187C96.2407 252.386 95.6297 251.762 94.5377 251.762C93.3417 251.762 92.7567 252.62 92.6137 253.699ZM98.8561 259.705V250.995H100V251.983C100.533 251.19 101.274 250.826 102.184 250.826C103.783 250.826 105.044 252.23 105.044 254.284C105.044 256.338 103.783 257.716 102.184 257.716C101.274 257.716 100.468 257.313 100 256.572V259.705H98.8561ZM99.9351 254.271C99.9351 255.701 100.676 256.754 101.911 256.754C103.159 256.754 103.861 255.727 103.861 254.284C103.861 252.854 103.159 251.775 101.911 251.775C100.676 251.775 99.9351 252.854 99.9351 254.271ZM108.209 257.716C106.87 257.716 106.012 256.936 106.012 255.779C106.012 254.245 107.325 253.907 108.391 253.764L109.808 253.582C110.328 253.504 110.432 253.205 110.432 252.906C110.432 252.269 110.003 251.749 109.015 251.749C108.04 251.749 107.481 252.204 107.377 253.01H106.233C106.376 251.697 107.429 250.826 108.989 250.826C110.731 250.826 111.563 251.697 111.563 253.166V256.351C111.563 256.494 111.68 256.598 111.836 256.598H112.239V257.547H111.459C110.835 257.547 110.497 257.222 110.497 256.741V256.585C109.925 257.43 109.015 257.716 108.209 257.716ZM107.195 255.727C107.195 256.403 107.702 256.793 108.495 256.793C109.665 256.793 110.432 255.935 110.432 254.648V254.18C110.211 254.297 109.99 254.336 109.769 254.375L108.612 254.557C107.624 254.713 107.195 255.064 107.195 255.727ZM116.193 257.716C114.282 257.716 113.047 256.234 113.047 254.271C113.047 252.321 114.282 250.826 116.206 250.826C117.714 250.826 118.806 251.736 119.014 253.231H117.857C117.675 252.321 117.038 251.775 116.193 251.775C114.828 251.775 114.23 252.958 114.23 254.258C114.23 255.571 114.828 256.767 116.193 256.767C117.051 256.767 117.623 256.325 117.857 255.467H119.001C118.754 256.806 117.753 257.716 116.193 257.716ZM120.461 257.547V248.447H121.605V254.076L124.491 250.995H125.921L123.542 253.491L126.363 257.547H124.985L122.749 254.336L121.605 255.532V257.547H120.461ZM132.972 257.716C131.048 257.716 129.839 256.247 129.839 254.271C129.839 252.308 131.048 250.826 132.972 250.826C134.597 250.826 136.027 251.749 135.871 254.57H131.022C131.1 255.766 131.659 256.767 132.972 256.767C133.843 256.767 134.415 256.325 134.649 255.493H135.793C135.546 256.793 134.545 257.716 132.972 257.716ZM131.048 253.699H134.753C134.675 252.386 134.064 251.762 132.972 251.762C131.776 251.762 131.191 252.62 131.048 253.699ZM137.29 257.547V250.995H138.434V251.983C138.863 251.255 139.695 250.826 140.644 250.826C142.061 250.826 143.062 251.723 143.062 253.465V257.547H141.918V253.53C141.918 252.386 141.268 251.788 140.306 251.788C139.279 251.788 138.434 252.607 138.434 253.764V257.547H137.29ZM146.656 257.716C145.317 257.716 144.459 256.936 144.459 255.779C144.459 254.245 145.772 253.907 146.838 253.764L148.255 253.582C148.775 253.504 148.879 253.205 148.879 252.906C148.879 252.269 148.45 251.749 147.462 251.749C146.487 251.749 145.928 252.204 145.824 253.01H144.68C144.823 251.697 145.876 250.826 147.436 250.826C149.178 250.826 150.01 251.697 150.01 253.166V256.351C150.01 256.494 150.127 256.598 150.283 256.598H150.686V257.547H149.906C149.282 257.547 148.944 257.222 148.944 256.741V256.585C148.372 257.43 147.462 257.716 146.656 257.716ZM145.642 255.727C145.642 256.403 146.149 256.793 146.942 256.793C148.112 256.793 148.879 255.935 148.879 254.648V254.18C148.658 254.297 148.437 254.336 148.216 254.375L147.059 254.557C146.071 254.713 145.642 255.064 145.642 255.727ZM155.352 257.716C154.442 257.716 153.701 257.339 153.168 256.559V257.547H152.024V248.447H153.168V251.97C153.636 251.216 154.442 250.826 155.352 250.826C156.938 250.826 158.212 252.191 158.212 254.245C158.212 256.312 156.938 257.716 155.352 257.716ZM153.103 254.258C153.103 255.688 153.844 256.754 155.079 256.754C156.314 256.754 157.029 255.688 157.029 254.245C157.029 252.815 156.314 251.775 155.079 251.775C153.844 251.775 153.103 252.841 153.103 254.258ZM159.657 257.547V248.447H160.801V257.547H159.657ZM165.36 257.716C163.436 257.716 162.227 256.247 162.227 254.271C162.227 252.308 163.436 250.826 165.36 250.826C166.985 250.826 168.415 251.749 168.259 254.57H163.41C163.488 255.766 164.047 256.767 165.36 256.767C166.231 256.767 166.803 256.325 167.037 255.493H168.181C167.934 256.793 166.933 257.716 165.36 257.716ZM163.436 253.699H167.141C167.063 252.386 166.452 251.762 165.36 251.762C164.164 251.762 163.579 252.62 163.436 253.699Z" fill="white" fill-opacity="0.7"/>
        <path d="M448.154 258.216C446.035 258.216 444.696 256.448 444.696 253.497C444.696 250.533 446.035 248.791 448.154 248.791C450.286 248.791 451.625 250.533 451.625 253.497C451.625 256.448 450.286 258.216 448.154 258.216ZM448.154 257.202C449.662 257.202 450.39 255.837 450.39 253.497C450.39 251.144 449.662 249.805 448.154 249.805C446.659 249.805 445.918 251.144 445.918 253.497C445.918 255.837 446.659 257.202 448.154 257.202ZM456.098 258.216C454.382 258.216 453.316 257.384 453.199 255.993H454.369C454.525 256.864 455.11 257.28 456.124 257.28C457.008 257.28 457.554 256.877 457.554 256.253C457.554 255.772 457.203 255.434 456.527 255.317L455.24 255.057C454.304 254.875 453.381 254.433 453.381 253.237C453.381 252.145 454.408 251.326 455.942 251.326C457.424 251.326 458.503 251.95 458.633 253.38H457.463C457.346 252.652 456.8 252.262 455.929 252.262C455.097 252.262 454.538 252.652 454.538 253.198C454.538 253.718 454.993 253.965 455.513 254.069L456.878 254.329C457.801 254.511 458.737 255.018 458.737 256.188C458.737 257.41 457.658 258.216 456.098 258.216Z" fill="#F4F3EC" fill-opacity="0.5"/>
    </g>
</svg>
