<svg width="493" height="230" viewBox="0 0 493 230" fill="none" xmlns="http://www.w3.org/2000/svg">
<path d="M105 6C105 2.68629 107.686 0 111 0H382C385.314 0 388 2.68629 388 6V49C388 52.3137 385.314 55 382 55H111C107.686 55 105 52.3137 105 49V6Z" fill="#08060D" fill-opacity="0.3"/>
<path d="M111 0.5H382C385.038 0.500003 387.5 2.96244 387.5 6V49C387.5 52.0376 385.038 54.5 382 54.5H111C107.962 54.5 105.5 52.0376 105.5 49V6C105.5 2.96243 107.962 0.5 111 0.5Z" stroke="white" stroke-opacity="0.2"/>
<rect x="109" y="4" width="275" height="47" rx="4" fill="#08060D"/>
<path d="M132.186 32L129.27 22.55H130.998L133.199 30.299L135.386 22.55H137.1L134.198 32H132.186ZM138.195 32V30.6095H140.612V23.9405H138.195V22.55H144.648V23.9405H142.232V30.6095H144.648V32H138.195ZM148.848 32V23.9135H145.946V22.55H153.371V23.9135H150.468V32H148.848ZM154.776 32V22.55H161.202V23.9135H156.41V26.465H160.662V27.788H156.41V30.6365H161.202V32H154.776ZM173.517 32L170.777 25.196H172.059L174.287 30.9875L176.514 25.196H177.783L175.043 32H173.517ZM180.782 32L184.805 23.5895H179.216V22.55H186.006V23.8055L182.118 32H180.782ZM190.058 32V30.38H191.624V32H190.058ZM195.73 32V30.974H198.484V25.3715H196.297V24.332H198.146C198.335 24.332 198.484 24.1835 198.484 24.008V22.55H199.699V30.974H202.439V32H195.73ZM206.531 32V30.38H208.097V32H206.531ZM215.51 32.2025C213.472 32.2025 212.243 31.028 212.216 29.3H213.472C213.539 30.083 213.985 31.136 215.497 31.136C216.752 31.136 217.603 30.3125 217.603 28.9355C217.603 27.6935 216.793 26.735 215.51 26.735C214.295 26.735 213.796 27.4235 213.607 27.761H212.419L213.175 22.55H218.386V23.5895H214.214L213.809 26.384C214.349 25.9385 215.024 25.7495 215.767 25.7495C217.535 25.7495 218.885 27.032 218.885 28.9085C218.885 30.7985 217.657 32.2025 215.51 32.2025Z" fill="#C880FF"/>
<path d="M238.182 32V25.196H239.41V26.3435C239.842 25.5875 240.585 25.196 241.354 25.196H242.988V26.3435H241.26C240.18 26.3435 239.41 27.0455 239.41 28.409V32H238.182ZM248.605 32.1755C246.607 32.1755 245.352 30.65 245.352 28.598C245.352 26.5595 246.607 25.0205 248.605 25.0205C250.293 25.0205 251.778 25.979 251.616 28.9085H246.58C246.675 30.164 247.255 31.19 248.605 31.19C249.51 31.19 250.104 30.6365 250.306 30.002H251.494C251.305 31.136 250.239 32.1755 248.605 32.1755ZM246.607 28.004H250.455C250.36 26.6405 249.726 26.006 248.605 26.006C247.377 26.006 246.769 26.897 246.607 28.004ZM255.762 32.1755C254.385 32.1755 253.48 31.3655 253.48 30.164C253.48 28.5845 254.857 28.2065 255.964 28.0715L257.422 27.8825C257.976 27.815 258.07 27.491 258.07 27.1805V27.167C258.07 26.5055 257.625 25.9925 256.599 25.9925C255.613 25.9925 255.033 26.4515 254.925 27.2885H253.723C253.872 25.9115 254.965 25.0205 256.585 25.0205C258.394 25.0205 259.258 25.925 259.258 27.4505V30.7445C259.258 30.9065 259.38 31.0145 259.542 31.0145H259.96V32H259.15C258.489 32 258.151 31.6625 258.151 31.163V31.001C257.557 31.8785 256.612 32.1755 255.762 32.1755ZM256.072 31.2035C257.274 31.2035 258.07 30.3125 258.07 28.9895V28.517C257.854 28.625 257.625 28.679 257.382 28.7195L256.194 28.895C255.168 29.057 254.722 29.4215 254.722 30.11C254.722 30.7985 255.249 31.2035 256.072 31.2035ZM264.606 32.1755C262.972 32.1755 261.649 30.7175 261.649 28.571C261.649 26.438 262.972 25.0205 264.606 25.0205C265.564 25.0205 266.388 25.4255 266.874 26.2085V22.55H268.075V32H266.874V30.974C266.334 31.784 265.564 32.1755 264.606 32.1755ZM264.903 31.1765C266.185 31.1765 266.941 30.0695 266.941 28.5845C266.941 27.113 266.185 26.0195 264.903 26.0195C263.634 26.0195 262.891 27.086 262.891 28.571C262.891 30.0695 263.634 31.1765 264.903 31.1765ZM270.412 34.241V33.269H271.573C272.005 33.269 272.221 33.1745 272.37 32.783L272.694 31.8785L269.967 25.196H271.249L273.288 30.3395L275.191 25.196H276.447L273.382 33.188C273.045 34.0655 272.545 34.241 271.749 34.241H270.412ZM286.535 32V30.9875H289.073V26.2085H286.805V25.196H290.301V30.9875H292.826V32H286.535ZM289.019 24.035V22.55H290.369V24.035H289.019ZM294.96 32V25.196H296.162V26.222C296.594 25.466 297.471 25.0205 298.443 25.0205C299.915 25.0205 300.941 25.952 300.941 27.761V32H299.753V27.8285C299.753 26.6405 299.078 26.0195 298.092 26.0195C297.026 26.0195 296.162 26.87 296.162 28.0715V32H294.96ZM344.015 32V25.196H345.163V25.7765C345.433 25.2905 345.946 25.0205 346.499 25.0205C347.188 25.0205 347.593 25.439 347.728 25.8305C348.119 25.1825 348.7 25.0205 349.24 25.0205C350.117 25.0205 350.711 25.682 350.711 26.8025V32H349.564V27.0185C349.564 26.3705 349.334 26.06 348.916 26.06C348.389 26.06 347.93 26.546 347.93 27.3695V32H346.796V27.0185C346.796 26.3705 346.553 26.06 346.135 26.06C345.608 26.06 345.163 26.546 345.163 27.3695V32H344.015ZM355.708 32.1755C353.926 32.1755 352.819 31.3115 352.697 29.867H353.912C354.074 30.7715 354.682 31.2035 355.735 31.2035C356.653 31.2035 357.22 30.785 357.22 30.137C357.22 29.6375 356.855 29.2865 356.153 29.165L354.817 28.895C353.845 28.706 352.886 28.247 352.886 27.005C352.886 25.871 353.953 25.0205 355.546 25.0205C357.085 25.0205 358.205 25.6685 358.34 27.1535H357.125C357.004 26.3975 356.437 25.9925 355.532 25.9925C354.668 25.9925 354.088 26.3975 354.088 26.9645C354.088 27.5045 354.56 27.761 355.1 27.869L356.518 28.139C357.476 28.328 358.448 28.8545 358.448 30.0695C358.448 31.3385 357.328 32.1755 355.708 32.1755Z" fill="#F4F3EC" fill-opacity="0.5"/>
<path d="M310.947 32V30.6365H313.593V25.6685H311.474V24.2915H313.215C313.445 24.2915 313.593 24.1295 313.593 23.9135V22.55H315.227V30.6365H317.819V32H310.947ZM322.586 32.2025C320.426 32.2025 319.17 31.001 319.143 29.2595H320.804C320.898 30.0155 321.371 30.812 322.599 30.812C323.666 30.812 324.422 30.11 324.422 28.8545C324.435 27.707 323.706 26.897 322.599 26.897C321.56 26.897 321.087 27.491 320.898 27.815H319.305L320.088 22.55H325.569V23.9135H321.438L321.074 26.3435C321.587 25.925 322.235 25.709 323.018 25.709C324.705 25.709 326.109 26.8835 326.109 28.8275C326.109 30.812 324.786 32.2025 322.586 32.2025ZM330.606 32.2025C328.703 32.2025 327.555 30.974 327.515 29.597H329.135C329.27 30.4475 329.891 30.866 330.674 30.866C331.889 30.866 332.753 29.813 332.753 27.6125C332.24 28.463 331.322 28.7735 330.471 28.7735C328.784 28.7735 327.299 27.6395 327.299 25.655C327.299 23.657 328.703 22.3475 330.782 22.3475C332.874 22.3475 334.427 23.7515 334.427 27.2615C334.427 30.6095 332.793 32.2025 330.606 32.2025ZM330.768 27.464C331.781 27.464 332.577 26.7215 332.577 25.5875C332.577 24.4535 331.781 23.711 330.768 23.711C329.769 23.711 328.959 24.4535 328.959 25.5875C328.959 26.7215 329.769 27.464 330.768 27.464Z" fill="#F4F3EC"/>
<path d="M0 73C0 69.6863 2.68629 67 6 67H487C490.314 67 493 69.6863 493 73V224C493 227.314 490.314 230 487 230H5.99999C2.68629 230 0 227.314 0 224V73Z" fill="#08060D" fill-opacity="0.3"/>
<path d="M6 67.5H487C490.038 67.5 492.5 69.9624 492.5 73V224C492.5 227.038 490.038 229.5 487 229.5H6C2.96243 229.5 0.5 227.038 0.5 224V73C0.5 69.9624 2.96243 67.5 6 67.5Z" stroke="white" stroke-opacity="0.2"/>
<rect x="4" y="71" width="485" height="155" rx="4" fill="#08060D"/>
<path d="M66.0469 130V120.55H67.8154L71.1364 127.381V120.55H72.6889V130H70.9204L67.5994 123.169V130H66.0469ZM77.6855 130.176C75.6605 130.176 74.378 128.65 74.378 126.598C74.378 124.559 75.6605 123.02 77.6855 123.02C79.4675 123.02 80.9255 124.046 80.8175 126.989H75.9305C76.052 128.15 76.592 128.947 77.699 128.947C78.4685 128.947 78.9815 128.501 79.1705 127.961H80.7095C80.534 129.109 79.4675 130.176 77.6855 130.176ZM75.9575 125.936H79.2785C79.184 124.735 78.6035 124.235 77.6855 124.235C76.646 124.235 76.133 124.978 75.9575 125.936ZM86.3136 130C85.0851 130 84.4371 129.419 84.4371 128.231V124.478H82.4391V123.196H84.1266C84.3021 123.196 84.4371 123.061 84.4371 122.885V120.941H86.0031V123.196H88.5681V124.478H86.0031V127.988C86.0031 128.461 86.2191 128.717 86.7726 128.717H88.8786V130H86.3136ZM91.4857 130L90.2302 123.196H91.7152L92.4847 128.339L93.4837 124.91H94.6852L95.6707 128.299L96.4537 123.196H97.9252L96.6832 130H95.0632L94.0912 126.571L93.0922 130H91.4857ZM102.314 130.176C100.195 130.176 98.9797 128.65 98.9797 126.598C98.9797 124.559 100.195 123.02 102.314 123.02C104.434 123.02 105.662 124.559 105.662 126.598C105.662 128.65 104.434 130.176 102.314 130.176ZM102.314 128.906C103.57 128.906 104.056 127.813 104.056 126.584C104.056 125.369 103.57 124.289 102.314 124.289C101.059 124.289 100.573 125.369 100.573 126.584C100.573 127.813 101.059 128.906 102.314 128.906ZM108.202 130V123.196H109.795V124.357C110.24 123.574 110.929 123.196 111.752 123.196H113.399V124.64H111.577C110.497 124.64 109.795 125.356 109.795 126.611V130H108.202ZM115.871 130V120.55H117.424V126.287L120.164 123.196H122.027L119.638 125.801L122.459 130H120.637L118.612 126.908L117.424 128.164V130H115.871ZM126.106 130V128.11H127.942V130H126.106ZM126.106 125.41V123.52H127.942V125.41H126.106ZM143.038 130.176C141.567 130.176 140.541 129.244 140.541 127.435V123.196H141.742V127.367C141.742 128.555 142.404 129.176 143.403 129.176C144.456 129.176 145.333 128.326 145.333 127.124V123.196H146.521V130H145.333V128.974C144.888 129.73 144.024 130.176 143.038 130.176ZM151.869 130.176C150.087 130.176 148.98 129.311 148.858 127.867H150.073C150.235 128.771 150.843 129.203 151.896 129.203C152.814 129.203 153.381 128.785 153.381 128.137C153.381 127.637 153.016 127.286 152.314 127.165L150.978 126.895C150.006 126.706 149.047 126.247 149.047 125.005C149.047 123.871 150.114 123.02 151.707 123.02C153.246 123.02 154.366 123.668 154.501 125.153H153.286C153.165 124.397 152.598 123.992 151.693 123.992C150.829 123.992 150.249 124.397 150.249 124.964C150.249 125.504 150.721 125.761 151.261 125.869L152.679 126.139C153.637 126.328 154.609 126.854 154.609 128.069C154.609 129.338 153.489 130.176 151.869 130.176ZM160.078 130.176C158.08 130.176 156.825 128.65 156.825 126.598C156.825 124.559 158.08 123.02 160.078 123.02C161.766 123.02 163.251 123.979 163.089 126.908H158.053C158.148 128.164 158.728 129.19 160.078 129.19C160.983 129.19 161.577 128.636 161.779 128.002H162.967C162.778 129.136 161.712 130.176 160.078 130.176ZM158.08 126.004H161.928C161.833 124.64 161.199 124.006 160.078 124.006C158.85 124.006 158.242 124.897 158.08 126.004ZM234.545 130C233.384 130 232.831 129.527 232.831 128.393V124.181H230.806V123.196H232.52C232.709 123.196 232.831 123.074 232.831 122.899V120.941H234.019V123.196H236.705V124.181H234.019V128.231C234.019 128.717 234.221 129.001 234.829 129.001H237.002V130H234.545ZM242.336 130.176C240.271 130.176 239.056 128.636 239.056 126.598C239.056 124.573 240.271 123.02 242.336 123.02C244.402 123.02 245.617 124.573 245.617 126.598C245.617 128.636 244.402 130.176 242.336 130.176ZM242.336 129.176C243.821 129.176 244.388 127.907 244.388 126.584C244.388 125.275 243.821 124.019 242.336 124.019C240.851 124.019 240.284 125.275 240.284 126.584C240.284 127.907 240.851 129.176 242.336 129.176ZM258.917 130.176C256.919 130.176 255.664 128.65 255.664 126.598C255.664 124.559 256.919 123.02 258.917 123.02C260.605 123.02 262.09 123.979 261.928 126.908H256.892C256.987 128.164 257.567 129.19 258.917 129.19C259.822 129.19 260.416 128.636 260.618 128.002H261.806C261.617 129.136 260.551 130.176 258.917 130.176ZM256.919 126.004H260.767C260.672 124.64 260.038 124.006 258.917 124.006C257.689 124.006 257.081 124.897 256.919 126.004ZM263.927 130L266.317 126.463L264.116 123.196H265.453L267.073 125.639L268.693 123.196H270.029L267.788 126.49L270.164 130H268.814L267.046 127.313L265.277 130H263.927ZM272.177 132.241V123.196H273.365V124.222C273.919 123.412 274.688 123.02 275.647 123.02C277.267 123.02 278.603 124.478 278.603 126.625C278.603 128.758 277.267 130.176 275.647 130.176C274.688 130.176 273.851 129.77 273.365 128.987V132.241H272.177ZM275.35 129.176C276.619 129.176 277.361 128.11 277.361 126.625C277.361 125.126 276.619 124.019 275.35 124.019C274.067 124.019 273.311 125.126 273.311 126.611C273.311 128.083 274.067 129.176 275.35 129.176ZM283.519 130.176C281.454 130.176 280.239 128.636 280.239 126.598C280.239 124.573 281.454 123.02 283.519 123.02C285.585 123.02 286.8 124.573 286.8 126.598C286.8 128.636 285.585 130.176 283.519 130.176ZM283.519 129.176C285.004 129.176 285.571 127.907 285.571 126.584C285.571 125.275 285.004 124.019 283.519 124.019C282.034 124.019 281.467 125.275 281.467 126.584C281.467 127.907 282.034 129.176 283.519 129.176ZM291.891 130.176C290.109 130.176 289.002 129.311 288.88 127.867H290.095C290.257 128.771 290.865 129.203 291.918 129.203C292.836 129.203 293.403 128.785 293.403 128.137C293.403 127.637 293.038 127.286 292.336 127.165L291 126.895C290.028 126.706 289.069 126.247 289.069 125.005C289.069 123.871 290.136 123.02 291.729 123.02C293.268 123.02 294.388 123.668 294.523 125.153H293.308C293.187 124.397 292.62 123.992 291.715 123.992C290.851 123.992 290.271 124.397 290.271 124.964C290.271 125.504 290.743 125.761 291.283 125.869L292.701 126.139C293.659 126.328 294.631 126.854 294.631 128.069C294.631 129.338 293.511 130.176 291.891 130.176ZM300.1 130.176C298.102 130.176 296.847 128.65 296.847 126.598C296.847 124.559 298.102 123.02 300.1 123.02C301.788 123.02 303.273 123.979 303.111 126.908H298.075C298.17 128.164 298.75 129.19 300.1 129.19C301.005 129.19 301.599 128.636 301.801 128.002H302.989C302.8 129.136 301.734 130.176 300.1 130.176ZM298.102 126.004H301.95C301.855 124.64 301.221 124.006 300.1 124.006C298.872 124.006 298.264 124.897 298.102 126.004ZM66.2629 155.241V146.196H67.4509V147.222C68.0044 146.412 68.7739 146.02 69.7324 146.02C71.3524 146.02 72.6889 147.478 72.6889 149.625C72.6889 151.758 71.3524 153.176 69.7324 153.176C68.7739 153.176 67.9369 152.77 67.4509 151.987V155.241H66.2629ZM69.4354 152.176C70.7044 152.176 71.4469 151.11 71.4469 149.625C71.4469 148.126 70.7044 147.019 69.4354 147.019C68.1529 147.019 67.3969 148.126 67.3969 149.611C67.3969 151.083 68.1529 152.176 69.4354 152.176ZM75.5255 153V146.196H76.754V147.343C77.186 146.587 77.9285 146.196 78.698 146.196H80.3315V147.343H78.6035C77.5235 147.343 76.754 148.045 76.754 149.409V153H75.5255ZM85.9491 153.176C83.9511 153.176 82.6956 151.65 82.6956 149.598C82.6956 147.559 83.9511 146.02 85.9491 146.02C87.6366 146.02 89.1216 146.979 88.9596 149.908H83.9241C84.0186 151.164 84.5991 152.19 85.9491 152.19C86.8536 152.19 87.4476 151.636 87.6501 151.002H88.8381C88.6491 152.136 87.5826 153.176 85.9491 153.176ZM83.9511 149.004H87.7986C87.7041 147.64 87.0696 147.006 85.9491 147.006C84.7206 147.006 84.1131 147.897 83.9511 149.004ZM94.2127 153.176C92.4307 153.176 91.3237 152.311 91.2022 150.867H92.4172C92.5792 151.771 93.1867 152.203 94.2397 152.203C95.1577 152.203 95.7247 151.785 95.7247 151.137C95.7247 150.637 95.3602 150.286 94.6582 150.165L93.3217 149.895C92.3497 149.706 91.3912 149.247 91.3912 148.005C91.3912 146.871 92.4577 146.02 94.0507 146.02C95.5897 146.02 96.7102 146.668 96.8452 148.153H95.6302C95.5087 147.397 94.9417 146.992 94.0372 146.992C93.1732 146.992 92.5927 147.397 92.5927 147.964C92.5927 148.504 93.0652 148.761 93.6052 148.869L95.0227 149.139C95.9812 149.328 96.9532 149.854 96.9532 151.069C96.9532 152.338 95.8327 153.176 94.2127 153.176ZM102.449 153.176C100.667 153.176 99.5602 152.311 99.4387 150.867H100.654C100.816 151.771 101.423 152.203 102.476 152.203C103.394 152.203 103.961 151.785 103.961 151.137C103.961 150.637 103.597 150.286 102.895 150.165L101.558 149.895C100.586 149.706 99.6277 149.247 99.6277 148.005C99.6277 146.871 100.694 146.02 102.287 146.02C103.826 146.02 104.947 146.668 105.082 148.153H103.867C103.745 147.397 103.178 146.992 102.274 146.992C101.41 146.992 100.829 147.397 100.829 147.964C100.829 148.504 101.302 148.761 101.842 148.869L103.259 149.139C104.218 149.328 105.19 149.854 105.19 151.069C105.19 152.338 104.069 153.176 102.449 153.176ZM201.599 153C200.438 153 199.884 152.527 199.884 151.393V147.181H197.859V146.196H199.574C199.763 146.196 199.884 146.074 199.884 145.899V143.941H201.072V146.196H203.759V147.181H201.072V151.231C201.072 151.717 201.275 152.001 201.882 152.001H204.056V153H201.599ZM209.39 153.176C207.324 153.176 206.109 151.636 206.109 149.598C206.109 147.573 207.324 146.02 209.39 146.02C211.455 146.02 212.67 147.573 212.67 149.598C212.67 151.636 211.455 153.176 209.39 153.176ZM209.39 152.176C210.875 152.176 211.442 150.907 211.442 149.584C211.442 148.275 210.875 147.019 209.39 147.019C207.905 147.019 207.338 148.275 207.338 149.584C207.338 150.907 207.905 152.176 209.39 152.176ZM225.998 153.176C224.216 153.176 223.109 152.311 222.987 150.867H224.202C224.364 151.771 224.972 152.203 226.025 152.203C226.943 152.203 227.51 151.785 227.51 151.137C227.51 150.637 227.145 150.286 226.443 150.165L225.107 149.895C224.135 149.706 223.176 149.247 223.176 148.005C223.176 146.871 224.243 146.02 225.836 146.02C227.375 146.02 228.495 146.668 228.63 148.153H227.415C227.294 147.397 226.727 146.992 225.822 146.992C224.958 146.992 224.378 147.397 224.378 147.964C224.378 148.504 224.85 148.761 225.39 148.869L226.808 149.139C227.766 149.328 228.738 149.854 228.738 151.069C228.738 152.338 227.618 153.176 225.998 153.176ZM231.143 153V143.55H232.345V147.222C232.777 146.466 233.654 146.02 234.626 146.02C236.098 146.02 237.124 146.952 237.124 148.761V153H235.936V148.828C235.936 147.64 235.261 147.019 234.275 147.019C233.209 147.019 232.345 147.87 232.345 149.071V153H231.143ZM242.336 153.176C240.271 153.176 239.056 151.636 239.056 149.598C239.056 147.573 240.271 146.02 242.336 146.02C244.402 146.02 245.617 147.573 245.617 149.598C245.617 151.636 244.402 153.176 242.336 153.176ZM242.336 152.176C243.821 152.176 244.388 150.907 244.388 149.584C244.388 148.275 243.821 147.019 242.336 147.019C240.851 147.019 240.284 148.275 240.284 149.584C240.284 150.907 240.851 152.176 242.336 152.176ZM248.075 153L246.82 146.196H247.954L248.845 151.812L250.019 148.113H251.14L252.301 151.771L253.205 146.196H254.339L253.084 153H251.734L250.586 149.463L249.425 153H248.075ZM264.089 153V143.55H265.291V147.222C265.723 146.466 266.6 146.02 267.572 146.02C269.044 146.02 270.07 146.952 270.07 148.761V153H268.882V148.828C268.882 147.64 268.207 147.019 267.221 147.019C266.155 147.019 265.291 147.87 265.291 149.071V153H264.089ZM275.39 153.176C273.392 153.176 272.137 151.65 272.137 149.598C272.137 147.559 273.392 146.02 275.39 146.02C277.078 146.02 278.563 146.979 278.401 149.908H273.365C273.46 151.164 274.04 152.19 275.39 152.19C276.295 152.19 276.889 151.636 277.091 151.002H278.279C278.09 152.136 277.024 153.176 275.39 153.176ZM273.392 149.004H277.24C277.145 147.64 276.511 147.006 275.39 147.006C274.162 147.006 273.554 147.897 273.392 149.004ZM280.293 153V152.014H282.925V144.535H280.779V143.55H284.127V152.014H286.746V153H280.293ZM288.651 155.241V146.196H289.839V147.222C290.392 146.412 291.162 146.02 292.12 146.02C293.74 146.02 295.077 147.478 295.077 149.625C295.077 151.758 293.74 153.176 292.12 153.176C291.162 153.176 290.325 152.77 289.839 151.987V155.241H288.651ZM291.823 152.176C293.092 152.176 293.835 151.11 293.835 149.625C293.835 148.126 293.092 147.019 291.823 147.019C290.541 147.019 289.785 148.126 289.785 149.611C289.785 151.083 290.541 152.176 291.823 152.176ZM24.837 199V197.974H27.591V192.371H25.404V191.332H27.2535C27.4425 191.332 27.591 191.183 27.591 191.008V189.55H28.806V197.974H31.5465V199H24.837ZM33.0736 199V197.974H35.8276V192.371H33.6406V191.332H35.4901C35.6791 191.332 35.8276 191.183 35.8276 191.008V189.55H37.0426V197.974H39.7831V199H33.0736ZM43.8752 199V197.38H45.4412V199H43.8752ZM43.8752 194.302V192.682H45.4412V194.302H43.8752ZM49.6682 198.649C49.6682 196.988 50.8427 196.003 52.0577 195.125C53.3672 194.194 54.7442 193.397 54.7442 192.101C54.7442 191.035 53.9882 190.427 52.9217 190.427C51.6932 190.427 51.0182 191.183 51.0317 192.304H49.7762C49.6952 190.522 51.0587 189.347 52.9757 189.347C54.7712 189.347 56.0267 190.454 56.0267 192.034C56.0267 193.168 55.3382 194.005 54.4877 194.72C53.0702 195.868 51.2612 196.705 51.0587 197.974H56.1347V199H49.6682V198.649ZM61.1178 199.176C58.9173 199.176 57.5268 197.339 57.5268 194.275C57.5268 191.197 58.9173 189.388 61.1178 189.388C63.3318 189.388 64.7223 191.197 64.7223 194.275C64.7223 197.339 63.3318 199.176 61.1178 199.176ZM61.1178 198.122C62.6838 198.122 63.4398 196.705 63.4398 194.275C63.4398 191.831 62.6838 190.441 61.1178 190.441C59.5653 190.441 58.7958 191.831 58.7958 194.275C58.7958 196.705 59.5653 198.122 61.1178 198.122ZM68.5849 199V197.38H70.1509V199H68.5849ZM68.5849 194.302V192.682H70.1509V194.302H68.5849ZM77.645 199.203C75.242 199.203 74.3105 197.852 74.2295 196.084H75.485C75.5525 197.11 76.0655 198.149 77.564 198.149C78.833 198.149 79.697 197.609 79.697 196.381C79.697 195.314 78.968 194.612 77.8475 194.612H76.9835V193.613H77.807C78.833 193.613 79.4945 192.857 79.4945 191.899C79.4945 190.967 78.86 190.387 77.699 190.387C76.2545 190.387 75.6605 191.386 75.62 192.344H74.3915C74.405 190.886 75.4175 189.347 77.753 189.347C79.6565 189.347 80.7365 190.319 80.7365 191.791C80.7365 192.911 80.0615 193.735 79.1435 194.045C79.9535 194.234 80.9795 194.95 80.9795 196.408C80.9795 197.947 79.751 199.203 77.645 199.203ZM85.8006 199.203C83.7621 199.203 82.5336 198.028 82.5066 196.3H83.7621C83.8296 197.083 84.2751 198.136 85.7871 198.136C87.0426 198.136 87.8931 197.312 87.8931 195.935C87.8931 194.693 87.0831 193.735 85.8006 193.735C84.5856 193.735 84.0861 194.423 83.8971 194.761H82.7091L83.4651 189.55H88.6761V190.589H84.5046L84.0996 193.384C84.6396 192.938 85.3146 192.749 86.0571 192.749C87.8256 192.749 89.1756 194.032 89.1756 195.908C89.1756 197.798 87.9471 199.203 85.8006 199.203ZM99.2092 201.241V192.196H100.397V193.222C100.951 192.412 101.72 192.02 102.679 192.02C104.299 192.02 105.635 193.478 105.635 195.625C105.635 197.758 104.299 199.176 102.679 199.176C101.72 199.176 100.883 198.77 100.397 197.987V201.241H99.2092ZM102.382 198.176C103.651 198.176 104.393 197.11 104.393 195.625C104.393 194.126 103.651 193.019 102.382 193.019C101.099 193.019 100.343 194.126 100.343 195.611C100.343 197.083 101.099 198.176 102.382 198.176ZM107.23 199V192.196H108.377V192.776C108.647 192.29 109.16 192.02 109.714 192.02C110.402 192.02 110.807 192.439 110.942 192.83C111.334 192.183 111.914 192.02 112.454 192.02C113.332 192.02 113.926 192.682 113.926 193.802V199H112.778V194.018C112.778 193.37 112.549 193.06 112.13 193.06C111.604 193.06 111.145 193.546 111.145 194.369V199H110.011V194.018C110.011 193.37 109.768 193.06 109.349 193.06C108.823 193.06 108.377 193.546 108.377 194.369V199H107.23ZM346.739 200.323L350.897 189.55H352.071L347.913 200.323H346.739ZM357.783 199.176C356.001 199.176 354.894 198.311 354.773 196.867H355.988C356.15 197.771 356.757 198.203 357.81 198.203C358.728 198.203 359.295 197.785 359.295 197.137C359.295 196.637 358.931 196.286 358.229 196.165L356.892 195.895C355.92 195.706 354.962 195.247 354.962 194.005C354.962 192.871 356.028 192.02 357.621 192.02C359.16 192.02 360.281 192.668 360.416 194.153H359.201C359.079 193.397 358.512 192.992 357.608 192.992C356.744 192.992 356.163 193.397 356.163 193.964C356.163 194.504 356.636 194.761 357.176 194.869L358.593 195.139C359.552 195.328 360.524 195.854 360.524 197.069C360.524 198.338 359.403 199.176 357.783 199.176ZM363.806 199V192.196H365.034V193.343C365.466 192.587 366.209 192.196 366.978 192.196H368.612V193.343H366.884C365.804 193.343 365.034 194.045 365.034 195.409V199H363.806ZM374.297 199.176C372.312 199.176 371.016 197.636 371.016 195.598C371.016 193.573 372.312 192.02 374.31 192.02C375.863 192.02 377.01 192.965 377.226 194.531H376.011C375.822 193.573 375.161 193.019 374.297 193.019C372.879 193.019 372.258 194.234 372.258 195.584C372.258 196.948 372.879 198.176 374.297 198.176C375.174 198.176 375.768 197.717 376.011 196.84H377.213C376.956 198.23 375.917 199.176 374.297 199.176ZM379.685 200.323L383.843 189.55H385.018L380.86 200.323H379.685ZM387.395 199V189.55H388.624V193.6H392.566V189.55H393.794V199H392.566V194.639H388.624V199H387.395ZM398.939 199.176C396.941 199.176 395.686 197.65 395.686 195.598C395.686 193.559 396.941 192.02 398.939 192.02C400.627 192.02 402.112 192.979 401.95 195.908H396.914C397.009 197.164 397.589 198.19 398.939 198.19C399.844 198.19 400.438 197.636 400.64 197.002H401.828C401.639 198.136 400.573 199.176 398.939 199.176ZM396.941 195.004H400.789C400.694 193.64 400.06 193.006 398.939 193.006C397.711 193.006 397.103 193.897 396.941 195.004ZM406.096 199.176C404.719 199.176 403.814 198.365 403.814 197.164C403.814 195.584 405.191 195.206 406.298 195.071L407.756 194.882C408.31 194.815 408.404 194.491 408.404 194.18V194.167C408.404 193.505 407.959 192.992 406.933 192.992C405.947 192.992 405.367 193.451 405.259 194.288H404.057C404.206 192.911 405.299 192.02 406.919 192.02C408.728 192.02 409.592 192.925 409.592 194.45V197.744C409.592 197.906 409.714 198.014 409.876 198.014H410.294V199H409.484C408.823 199 408.485 198.662 408.485 198.163V198.001C407.891 198.878 406.946 199.176 406.096 199.176ZM406.406 198.203C407.608 198.203 408.404 197.312 408.404 195.989V195.517C408.188 195.625 407.959 195.679 407.716 195.719L406.528 195.895C405.502 196.057 405.056 196.421 405.056 197.11C405.056 197.798 405.583 198.203 406.406 198.203ZM414.94 199.176C413.306 199.176 411.983 197.717 411.983 195.571C411.983 193.438 413.306 192.02 414.94 192.02C415.898 192.02 416.722 192.425 417.208 193.208V189.55H418.409V199H417.208V197.974C416.668 198.784 415.898 199.176 414.94 199.176ZM415.237 198.176C416.519 198.176 417.275 197.069 417.275 195.584C417.275 194.113 416.519 193.019 415.237 193.019C413.968 193.019 413.225 194.086 413.225 195.571C413.225 197.069 413.968 198.176 415.237 198.176ZM423.649 199.176C421.651 199.176 420.395 197.65 420.395 195.598C420.395 193.559 421.651 192.02 423.649 192.02C425.336 192.02 426.821 192.979 426.659 195.908H421.624C421.718 197.164 422.299 198.19 423.649 198.19C424.553 198.19 425.147 197.636 425.35 197.002H426.538C426.349 198.136 425.282 199.176 423.649 199.176ZM421.651 195.004H425.498C425.404 193.64 424.769 193.006 423.649 193.006C422.42 193.006 421.813 193.897 421.651 195.004ZM429.699 199V192.196H430.927V193.343C431.359 192.587 432.102 192.196 432.871 192.196H434.505V193.343H432.777C431.697 193.343 430.927 194.045 430.927 195.409V199H429.699ZM439.231 199V197.38H440.797V199H439.231ZM447.4 199L444.66 192.196H445.942L448.17 197.987L450.397 192.196H451.666L448.926 199H447.4ZM456.028 199.176C454.557 199.176 453.531 198.244 453.531 196.435V192.196H454.732V196.367C454.732 197.555 455.394 198.176 456.393 198.176C457.446 198.176 458.323 197.326 458.323 196.124V192.196H459.511V199H458.323V197.974C457.878 198.73 457.014 199.176 456.028 199.176ZM464.832 199.176C462.834 199.176 461.578 197.65 461.578 195.598C461.578 193.559 462.834 192.02 464.832 192.02C466.519 192.02 468.004 192.979 467.842 195.908H462.807C462.901 197.164 463.482 198.19 464.832 198.19C465.736 198.19 466.33 197.636 466.533 197.002H467.721C467.532 198.136 466.465 199.176 464.832 199.176ZM462.834 195.004H466.681C466.587 193.64 465.952 193.006 464.832 193.006C463.603 193.006 462.996 193.897 462.834 195.004Z" fill="#F4F3EC" fill-opacity="0.5"/>
<path d="M44.9552 106.149L44.1857 105.393L46.6022 102.963H40.7567V101.856H46.6022L44.1857 99.44L44.9552 98.6705L48.6947 102.41L44.9552 106.149ZM255.853 199V189.55H257.054V193.222C257.486 192.466 258.364 192.02 259.336 192.02C260.807 192.02 261.833 192.952 261.833 194.761V199H260.645V194.828C260.645 193.64 259.97 193.019 258.985 193.019C257.918 193.019 257.054 193.87 257.054 195.071V199H255.853ZM263.725 199V192.196H264.872V192.776C265.142 192.29 265.655 192.02 266.209 192.02C266.897 192.02 267.302 192.439 267.437 192.83C267.829 192.183 268.409 192.02 268.949 192.02C269.827 192.02 270.421 192.682 270.421 193.802V199H269.273V194.018C269.273 193.37 269.044 193.06 268.625 193.06C268.099 193.06 267.64 193.546 267.64 194.369V199H266.506V194.018C266.506 193.37 266.263 193.06 265.844 193.06C265.318 193.06 264.872 193.546 264.872 194.369V199H263.725ZM273.203 199V192.196H274.432V193.343C274.864 192.587 275.606 192.196 276.376 192.196H278.009V193.343H276.281C275.201 193.343 274.432 194.045 274.432 195.409V199H273.203ZM291.297 199.176C289.825 199.176 288.799 198.244 288.799 196.435V192.196H290.001V196.367C290.001 197.555 290.662 198.176 291.661 198.176C292.714 198.176 293.592 197.326 293.592 196.124V192.196H294.78V199H293.592V197.974C293.146 198.73 292.282 199.176 291.297 199.176ZM296.887 201.241V192.196H298.075V193.222C298.629 192.412 299.398 192.02 300.357 192.02C301.977 192.02 303.313 193.478 303.313 195.625C303.313 197.758 301.977 199.176 300.357 199.176C299.398 199.176 298.561 198.77 298.075 197.987V201.241H296.887ZM300.06 198.176C301.329 198.176 302.071 197.11 302.071 195.625C302.071 194.126 301.329 193.019 300.06 193.019C298.777 193.019 298.021 194.126 298.021 195.611C298.021 197.083 298.777 198.176 300.06 198.176ZM307.864 199.176C306.231 199.176 304.908 197.717 304.908 195.571C304.908 193.438 306.231 192.02 307.864 192.02C308.823 192.02 309.646 192.425 310.132 193.208V189.55H311.334V199H310.132V197.974C309.592 198.784 308.823 199.176 307.864 199.176ZM308.161 198.176C309.444 198.176 310.2 197.069 310.2 195.584C310.2 194.113 309.444 193.019 308.161 193.019C306.892 193.019 306.15 194.086 306.15 195.571C306.15 197.069 306.892 198.176 308.161 198.176ZM315.493 199.176C314.116 199.176 313.212 198.365 313.212 197.164C313.212 195.584 314.589 195.206 315.696 195.071L317.154 194.882C317.707 194.815 317.802 194.491 317.802 194.18V194.167C317.802 193.505 317.356 192.992 316.33 192.992C315.345 192.992 314.764 193.451 314.656 194.288H313.455C313.603 192.911 314.697 192.02 316.317 192.02C318.126 192.02 318.99 192.925 318.99 194.45V197.744C318.99 197.906 319.111 198.014 319.273 198.014H319.692V199H318.882C318.22 199 317.883 198.662 317.883 198.163V198.001C317.289 198.878 316.344 199.176 315.493 199.176ZM315.804 198.203C317.005 198.203 317.802 197.312 317.802 195.989V195.517C317.586 195.625 317.356 195.679 317.113 195.719L315.925 195.895C314.899 196.057 314.454 196.421 314.454 197.11C314.454 197.798 314.98 198.203 315.804 198.203ZM325.147 199C323.986 199 323.433 198.527 323.433 197.393V193.181H321.408V192.196H323.122C323.311 192.196 323.433 192.074 323.433 191.899V189.941H324.621V192.196H327.307V193.181H324.621V197.231C324.621 197.717 324.823 198.001 325.431 198.001H327.604V199H325.147ZM333.047 199.176C331.049 199.176 329.793 197.65 329.793 195.598C329.793 193.559 331.049 192.02 333.047 192.02C334.734 192.02 336.219 192.979 336.057 195.908H331.022C331.116 197.164 331.697 198.19 333.047 198.19C333.951 198.19 334.545 197.636 334.748 197.002H335.936C335.747 198.136 334.68 199.176 333.047 199.176ZM331.049 195.004H334.896C334.802 193.64 334.167 193.006 333.047 193.006C331.818 193.006 331.211 193.897 331.049 195.004Z" fill="#C880FF"/>
<path d="M66.4249 107V97.55H68.0449V105.636H72.5539V107H66.4249ZM77.6045 107.176C75.485 107.176 74.27 105.65 74.27 103.598C74.27 101.559 75.485 100.02 77.6045 100.02C79.724 100.02 80.9525 101.559 80.9525 103.598C80.9525 105.65 79.724 107.176 77.6045 107.176ZM77.6045 105.906C78.86 105.906 79.346 104.813 79.346 103.584C79.346 102.369 78.86 101.289 77.6045 101.289C76.349 101.289 75.863 102.369 75.863 103.584C75.863 104.813 76.349 105.906 77.6045 105.906ZM85.9896 107.176C83.9376 107.176 82.6416 105.65 82.6416 103.598C82.6416 101.559 83.9376 100.02 85.9896 100.02C87.6771 100.02 88.8246 100.979 89.0271 102.626H87.4476C87.2856 101.775 86.7321 101.289 85.9761 101.289C84.8016 101.289 84.2481 102.342 84.2481 103.584C84.2481 104.84 84.8016 105.906 85.9761 105.906C86.7456 105.906 87.2451 105.515 87.4611 104.718H89.0271C88.8111 106.176 87.7581 107.176 85.9896 107.176ZM92.9437 107.176C91.5937 107.176 90.7297 106.392 90.7297 105.204C90.7297 103.611 92.1067 103.22 93.2542 103.044L94.5637 102.855C95.0632 102.788 95.1847 102.518 95.1847 102.207V102.194C95.1847 101.64 94.8067 101.208 93.9832 101.208C93.1597 101.208 92.6332 101.586 92.5387 102.329H90.9727C91.1617 100.817 92.3632 100.02 93.9967 100.02C95.8327 100.02 96.7372 100.898 96.7372 102.545V105.461C96.7372 105.65 96.8722 105.771 97.0612 105.771H97.4257V107H96.4267C95.7382 107 95.3062 106.662 95.3062 106.136V105.987C94.7122 106.851 93.8212 107.176 92.9437 107.176ZM93.4432 105.987C94.5232 105.987 95.1847 105.096 95.1847 103.976V103.611C94.9957 103.719 94.7932 103.76 94.5637 103.814L93.5512 103.989C92.7007 104.138 92.3227 104.462 92.3227 105.042C92.3227 105.65 92.7682 105.987 93.4432 105.987ZM99.0742 107V105.717H101.572V98.8325H99.4927V97.55H103.151V105.717H105.554V107H99.0742ZM109.633 107V105.11H111.469V107H109.633ZM109.633 102.41V100.52H111.469V102.41H109.633ZM174.513 126.679V125.302H178.374V126.679H174.513ZM182.75 126.679V125.302H186.611V126.679H182.75ZM189.825 130V120.55H191.391V124.222C191.85 123.452 192.728 123.02 193.646 123.02C195.171 123.02 196.076 124.006 196.076 125.734V130H194.496V125.923C194.496 124.897 193.943 124.33 193.079 124.33C192.12 124.33 191.391 125.113 191.391 126.166V130H189.825ZM201.153 130.176C199.034 130.176 197.819 128.65 197.819 126.598C197.819 124.559 199.034 123.02 201.153 123.02C203.273 123.02 204.501 124.559 204.501 126.598C204.501 128.65 203.273 130.176 201.153 130.176ZM201.153 128.906C202.409 128.906 202.895 127.813 202.895 126.584C202.895 125.369 202.409 124.289 201.153 124.289C199.898 124.289 199.412 125.369 199.412 126.584C199.412 127.813 199.898 128.906 201.153 128.906ZM209.471 130.176C207.608 130.176 206.501 129.284 206.393 127.867H207.972C208.121 128.623 208.647 128.974 209.511 128.974C210.281 128.974 210.78 128.636 210.78 128.11C210.78 127.691 210.47 127.421 209.889 127.3L208.539 127.03C207.527 126.814 206.595 126.314 206.595 125.099C206.595 123.857 207.729 123.02 209.363 123.02C210.969 123.02 212.103 123.695 212.252 125.18H210.672C210.564 124.546 210.105 124.208 209.349 124.208C208.634 124.208 208.148 124.546 208.148 125.018C208.148 125.477 208.526 125.693 209.012 125.788L210.47 126.071C211.374 126.247 212.36 126.773 212.36 128.016C212.36 129.379 211.145 130.176 209.471 130.176ZM218.099 130C216.87 130 216.222 129.419 216.222 128.231V124.478H214.224V123.196H215.912C216.087 123.196 216.222 123.061 216.222 122.885V120.941H217.788V123.196H220.353V124.478H217.788V127.988C217.788 128.461 218.004 128.717 218.558 128.717H220.664V130H218.099ZM115.696 153V143.55H117.262V147.222C117.721 146.452 118.598 146.02 119.516 146.02C121.042 146.02 121.946 147.006 121.946 148.734V153H120.367V148.923C120.367 147.897 119.813 147.33 118.949 147.33C117.991 147.33 117.262 148.113 117.262 149.166V153H115.696ZM134.586 151.906V149.679H132.372V148.342H134.586V146.115H135.922V148.342H138.15V149.679H135.922V151.906H134.586ZM151.815 153.176C149.79 153.176 148.507 151.65 148.507 149.598C148.507 147.559 149.79 146.02 151.815 146.02C153.597 146.02 155.055 147.046 154.947 149.989H150.06C150.181 151.15 150.721 151.947 151.828 151.947C152.598 151.947 153.111 151.501 153.3 150.961H154.839C154.663 152.109 153.597 153.176 151.815 153.176ZM150.087 148.936H153.408C153.313 147.735 152.733 147.235 151.815 147.235C150.775 147.235 150.262 147.978 150.087 148.936ZM156.879 153V146.196H158.445V147.222C158.904 146.452 159.781 146.02 160.699 146.02C162.225 146.02 163.129 147.006 163.129 148.734V153H161.55V148.923C161.55 147.897 160.996 147.33 160.132 147.33C159.174 147.33 158.445 148.113 158.445 149.166V153H156.879ZM168.679 153C167.451 153 166.803 152.419 166.803 151.231V147.478H164.805V146.196H166.492C166.668 146.196 166.803 146.061 166.803 145.885V143.941H168.369V146.196H170.934V147.478H168.369V150.988C168.369 151.461 168.585 151.717 169.138 151.717H171.244V153H168.679ZM176.524 153.176C174.499 153.176 173.217 151.65 173.217 149.598C173.217 147.559 174.499 146.02 176.524 146.02C178.306 146.02 179.764 147.046 179.656 149.989H174.769C174.891 151.15 175.431 151.947 176.538 151.947C177.307 151.947 177.82 151.501 178.009 150.961H179.548C179.373 152.109 178.306 153.176 176.524 153.176ZM174.796 148.936H178.117C178.023 147.735 177.442 147.235 176.524 147.235C175.485 147.235 174.972 147.978 174.796 148.936ZM182.331 153V146.196H183.924V147.357C184.37 146.574 185.058 146.196 185.882 146.196H187.529V147.64H185.706C184.626 147.64 183.924 148.356 183.924 149.611V153H182.331Z" fill="#F4F3EC"/>
<path d="M140.541 107V97.55H141.742V101.222C142.174 100.466 143.052 100.02 144.024 100.02C145.495 100.02 146.521 100.952 146.521 102.761V107H145.333V102.828C145.333 101.64 144.658 101.019 143.673 101.019C142.606 101.019 141.742 101.87 141.742 103.071V107H140.541ZM152.179 107C151.018 107 150.465 106.527 150.465 105.393V101.181H148.44V100.196H150.154C150.343 100.196 150.465 100.074 150.465 99.899V97.9415H151.653V100.196H154.339V101.181H151.653V105.231C151.653 105.717 151.855 106.001 152.463 106.001H154.636V107H152.179ZM160.416 107C159.255 107 158.701 106.527 158.701 105.393V101.181H156.676V100.196H158.391C158.58 100.196 158.701 100.074 158.701 99.899V97.9415H159.889V100.196H162.576V101.181H159.889V105.231C159.889 105.717 160.092 106.001 160.699 106.001H162.873V107H160.416ZM165.102 109.241V100.196H166.29V101.222C166.843 100.412 167.613 100.02 168.571 100.02C170.191 100.02 171.528 101.478 171.528 103.625C171.528 105.758 170.191 107.176 168.571 107.176C167.613 107.176 166.776 106.77 166.29 105.987V109.241H165.102ZM168.274 106.176C169.543 106.176 170.286 105.11 170.286 103.625C170.286 102.126 169.543 101.019 168.274 101.019C166.992 101.019 166.236 102.126 166.236 103.611C166.236 105.083 166.992 106.176 168.274 106.176ZM175.66 107V105.38H177.226V107H175.66ZM175.66 102.302V100.682H177.226V102.302H175.66ZM182.007 108.323L186.165 97.55H187.34L183.182 108.323H182.007ZM190.244 108.323L194.402 97.55H195.576L191.418 108.323H190.244ZM197.927 107V106.014H200.559V98.5355H198.413V97.55H201.761V106.014H204.38V107H197.927ZM209.39 107.176C207.324 107.176 206.109 105.636 206.109 103.598C206.109 101.573 207.324 100.02 209.39 100.02C211.455 100.02 212.67 101.573 212.67 103.598C212.67 105.636 211.455 107.176 209.39 107.176ZM209.39 106.176C210.875 106.176 211.442 104.907 211.442 103.584C211.442 102.275 210.875 101.019 209.39 101.019C207.905 101.019 207.338 102.275 207.338 103.584C207.338 104.907 207.905 106.176 209.39 106.176ZM217.802 107.176C215.817 107.176 214.521 105.636 214.521 103.598C214.521 101.573 215.817 100.02 217.815 100.02C219.368 100.02 220.515 100.965 220.731 102.531H219.516C219.327 101.573 218.666 101.019 217.802 101.019C216.384 101.019 215.763 102.234 215.763 103.584C215.763 104.948 216.384 106.176 217.802 106.176C218.679 106.176 219.273 105.717 219.516 104.84H220.718C220.461 106.23 219.422 107.176 217.802 107.176ZM224.891 107.176C223.514 107.176 222.609 106.365 222.609 105.164C222.609 103.584 223.986 103.206 225.093 103.071L226.551 102.882C227.105 102.815 227.199 102.491 227.199 102.18V102.167C227.199 101.505 226.754 100.992 225.728 100.992C224.742 100.992 224.162 101.451 224.054 102.288H222.852C223.001 100.911 224.094 100.02 225.714 100.02C227.523 100.02 228.387 100.925 228.387 102.45V105.744C228.387 105.906 228.509 106.014 228.671 106.014H229.089V107H228.279C227.618 107 227.28 106.662 227.28 106.163V106.001C226.686 106.878 225.741 107.176 224.891 107.176ZM225.201 106.203C226.403 106.203 227.199 105.312 227.199 103.989V103.517C226.983 103.625 226.754 103.679 226.511 103.719L225.323 103.895C224.297 104.057 223.851 104.421 223.851 105.11C223.851 105.798 224.378 106.203 225.201 106.203ZM230.873 107V106.014H233.506V98.5355H231.359V97.55H234.707V106.014H237.326V107H230.873ZM239.38 107V97.55H240.581V101.222C241.013 100.466 241.891 100.02 242.863 100.02C244.334 100.02 245.36 100.952 245.36 102.761V107H244.172V102.828C244.172 101.64 243.497 101.019 242.512 101.019C241.445 101.019 240.581 101.87 240.581 103.071V107H239.38ZM250.573 107.176C248.507 107.176 247.292 105.636 247.292 103.598C247.292 101.573 248.507 100.02 250.573 100.02C252.638 100.02 253.853 101.573 253.853 103.598C253.853 105.636 252.638 107.176 250.573 107.176ZM250.573 106.176C252.058 106.176 252.625 104.907 252.625 103.584C252.625 102.275 252.058 101.019 250.573 101.019C249.088 101.019 248.521 102.275 248.521 103.584C248.521 104.907 249.088 106.176 250.573 106.176ZM258.944 107.176C257.162 107.176 256.055 106.311 255.934 104.867H257.149C257.311 105.771 257.918 106.203 258.971 106.203C259.889 106.203 260.456 105.785 260.456 105.137C260.456 104.637 260.092 104.286 259.39 104.165L258.053 103.895C257.081 103.706 256.123 103.247 256.123 102.005C256.123 100.871 257.189 100.02 258.782 100.02C260.321 100.02 261.442 100.668 261.577 102.153H260.362C260.24 101.397 259.673 100.992 258.769 100.992C257.905 100.992 257.324 101.397 257.324 101.964C257.324 102.504 257.797 102.761 258.337 102.869L259.754 103.139C260.713 103.328 261.685 103.854 261.685 105.069C261.685 106.338 260.564 107.176 258.944 107.176ZM267.491 107C266.33 107 265.777 106.527 265.777 105.393V101.181H263.752V100.196H265.466C265.655 100.196 265.777 100.074 265.777 99.899V97.9415H266.965V100.196H269.651V101.181H266.965V105.231C266.965 105.717 267.167 106.001 267.775 106.001H269.948V107H267.491ZM274.499 107V105.38H276.065V107H274.499ZM274.499 102.302V100.682H276.065V102.302H274.499ZM283.479 107.203C281.44 107.203 280.212 106.028 280.185 104.3H281.44C281.508 105.083 281.953 106.136 283.465 106.136C284.721 106.136 285.571 105.312 285.571 103.935C285.571 102.693 284.761 101.735 283.479 101.735C282.264 101.735 281.764 102.423 281.575 102.761H280.387L281.143 97.55H286.354V98.5895H282.183L281.778 101.384C282.318 100.938 282.993 100.749 283.735 100.749C285.504 100.749 286.854 102.032 286.854 103.908C286.854 105.798 285.625 107.203 283.479 107.203ZM288.408 107V105.974H291.162V100.371H288.975V99.332H290.824C291.013 99.332 291.162 99.1835 291.162 99.008V97.55H292.377V105.974H295.117V107H288.408ZM298.17 107L302.193 98.5895H296.604V97.55H303.394V98.8055L299.506 107H298.17ZM308.269 107.203C305.866 107.203 304.935 105.852 304.854 104.084H306.109C306.177 105.11 306.69 106.149 308.188 106.149C309.457 106.149 310.321 105.609 310.321 104.381C310.321 103.314 309.592 102.612 308.472 102.612H307.608V101.613H308.431C309.457 101.613 310.119 100.857 310.119 99.899C310.119 98.9675 309.484 98.387 308.323 98.387C306.879 98.387 306.285 99.386 306.244 100.344H305.016C305.029 98.8865 306.042 97.3475 308.377 97.3475C310.281 97.3475 311.361 98.3195 311.361 99.791C311.361 100.911 310.686 101.735 309.768 102.045C310.578 102.234 311.604 102.95 311.604 104.408C311.604 105.947 310.375 107.203 308.269 107.203ZM313.792 108.323L317.95 97.55H319.125L314.967 108.323H313.792ZM125.053 201.241V188.2H129.602V189.442H126.538V199.999H129.602V201.241H125.053ZM134.262 199L131.589 192.196H133.263L135.207 197.555L137.137 192.196H138.825L136.138 199H134.262ZM140.311 199V197.69H142.755V193.505H140.581V192.196H144.348V197.69H146.683V199H140.311ZM142.714 191.183V189.55H144.388V191.183H142.714ZM152.206 199C150.978 199 150.33 198.419 150.33 197.231V193.478H148.332V192.196H150.019C150.195 192.196 150.33 192.061 150.33 191.885V189.941H151.896V192.196H154.461V193.478H151.896V196.988C151.896 197.461 152.112 197.717 152.665 197.717H154.771V199H152.206ZM160.051 199.176C158.026 199.176 156.744 197.65 156.744 195.598C156.744 193.559 158.026 192.02 160.051 192.02C161.833 192.02 163.291 193.046 163.183 195.989H158.296C158.418 197.15 158.958 197.947 160.065 197.947C160.834 197.947 161.347 197.501 161.536 196.961H163.075C162.9 198.109 161.833 199.176 160.051 199.176ZM158.323 194.936H161.644C161.55 193.735 160.969 193.235 160.051 193.235C159.012 193.235 158.499 193.978 158.323 194.936ZM170.178 201.241H165.628V199.999H168.693V189.442H165.628V188.2H170.178V201.241Z" fill="#56C2C9"/>
<path d="M44.9552 129.149L44.1857 128.393L46.6022 125.963H40.7567V124.856H46.6022L44.1857 122.44L44.9552 121.67L48.6947 125.41L44.9552 129.149ZM44.9552 152.149L44.1857 151.393L46.6022 148.963H40.7567V147.856H46.6022L44.1857 145.44L44.9552 144.67L48.6947 148.41L44.9552 152.149Z" fill="#C880FF" fill-opacity="0.5"/>
<path d="M185.733 201.241C184.086 199.176 183.344 197.123 183.344 194.747C183.344 192.317 184.086 190.252 185.733 188.2H186.705C185.234 190.562 184.64 192.439 184.64 194.747C184.64 197.029 185.22 198.892 186.705 201.241H185.733ZM193.092 199.176C191.108 199.176 189.812 197.636 189.812 195.598C189.812 193.573 191.108 192.02 193.106 192.02C194.658 192.02 195.806 192.965 196.022 194.531H194.807C194.618 193.573 193.956 193.019 193.092 193.019C191.675 193.019 191.054 194.234 191.054 195.584C191.054 196.948 191.675 198.176 193.092 198.176C193.97 198.176 194.564 197.717 194.807 196.84H196.008C195.752 198.23 194.712 199.176 193.092 199.176ZM197.927 199V198.014H200.559V190.535H198.413V189.55H201.761V198.014H204.38V199H197.927ZM206.244 199V197.987H208.782V193.208H206.514V192.196H210.011V197.987H212.535V199H206.244ZM208.728 191.035V189.55H210.078V191.035H208.728ZM217.734 199.176C215.736 199.176 214.481 197.65 214.481 195.598C214.481 193.559 215.736 192.02 217.734 192.02C219.422 192.02 220.907 192.979 220.745 195.908H215.709C215.804 197.164 216.384 198.19 217.734 198.19C218.639 198.19 219.233 197.636 219.435 197.002H220.623C220.434 198.136 219.368 199.176 217.734 199.176ZM215.736 195.004H219.584C219.489 193.64 218.855 193.006 217.734 193.006C216.506 193.006 215.898 193.897 215.736 195.004ZM222.906 199V192.196H224.108V193.222C224.54 192.466 225.417 192.02 226.389 192.02C227.861 192.02 228.887 192.952 228.887 194.761V199H227.699V194.828C227.699 193.64 227.024 193.019 226.038 193.019C224.972 193.019 224.108 193.87 224.108 195.071V199H222.906ZM234.545 199C233.384 199 232.831 198.527 232.831 197.393V193.181H230.806V192.196H232.52C232.709 192.196 232.831 192.074 232.831 191.899V189.941H234.019V192.196H236.705V193.181H234.019V197.231C234.019 197.717 234.221 198.001 234.829 198.001H237.002V199H234.545ZM240.311 201.241C241.796 198.892 242.377 197.029 242.377 194.747C242.377 192.439 241.783 190.562 240.311 188.2H241.283C242.93 190.252 243.673 192.317 243.673 194.747C243.673 197.123 242.93 199.176 241.283 201.241H240.311Z" fill="#F4F3EC" fill-opacity="0.3"/>
</svg>
