<svg width="436" height="209" viewBox="0 0 436 209" fill="none" xmlns="http://www.w3.org/2000/svg">
<rect width="436" height="209" rx="6" fill="#08060D" fill-opacity="0.3"/>
<rect x="0.5" y="0.5" width="435" height="208" rx="5.5" stroke="white" stroke-opacity="0.2"/>
<rect x="4" y="4" width="428" height="201" rx="4" fill="#08060D"/>
<path d="M27.78 41.35V40.1485C25.7955 39.9595 24.621 38.6365 24.5535 37.0705H25.8225C25.9845 38.164 26.754 38.866 27.78 39.055V35.653L27.4965 35.572C26.322 35.2615 24.918 34.789 24.918 32.9935C24.918 31.5625 26.106 30.5365 27.78 30.388V29.227H28.752V30.4015C30.4395 30.604 31.452 31.7245 31.5195 33.1825H30.2505C30.0885 32.278 29.5755 31.6705 28.752 31.4815V34.627L29.3865 34.8025C30.9795 35.2345 31.83 35.9905 31.83 37.3405C31.83 38.9605 30.588 40.0135 28.752 40.162V41.35H27.78ZM26.214 32.926C26.214 33.6955 26.7135 34.0735 27.78 34.3705V31.4545C26.862 31.576 26.214 32.1295 26.214 32.926ZM28.752 39.0685C29.724 38.947 30.534 38.4205 30.534 37.435C30.534 36.6925 30.048 36.274 29.0355 35.9905L28.752 35.9095V39.0685ZM43.8077 40L41.0672 33.196H42.3497L44.5772 38.9875L46.8047 33.196H48.0737L45.3332 40H43.8077ZM49.7492 40V38.9875H52.2872V34.2085H50.0192V33.196H53.5157V38.9875H56.0402V40H49.7492ZM52.2332 32.035V30.55H53.5832V32.035H52.2332ZM61.5768 40C60.4158 40 59.8623 39.5275 59.8623 38.3935V34.1815H57.8373V33.196H59.5518C59.7408 33.196 59.8623 33.0745 59.8623 32.899V30.9415H61.0503V33.196H63.7368V34.1815H61.0503V38.2315C61.0503 38.7175 61.2528 39.001 61.8603 39.001H64.0338V40H61.5768ZM69.4759 40.1755C67.4779 40.1755 66.2224 38.65 66.2224 36.598C66.2224 34.5595 67.4779 33.0205 69.4759 33.0205C71.1634 33.0205 72.6484 33.979 72.4864 36.9085H67.4509C67.5454 38.164 68.1259 39.19 69.4759 39.19C70.3804 39.19 70.9744 38.6365 71.1769 38.002H72.3649C72.1759 39.136 71.1094 40.1755 69.4759 40.1755ZM67.4779 36.004H71.3254C71.2309 34.6405 70.5964 34.006 69.4759 34.006C68.2474 34.006 67.6399 34.897 67.4779 36.004ZM86.2056 40.1755C85.2471 40.1755 84.4776 39.784 83.9376 38.974V40H82.7361V30.55H83.9376V34.2085C84.4236 33.4255 85.2471 33.0205 86.2056 33.0205C87.8391 33.0205 89.1621 34.438 89.1621 36.571C89.1621 38.7175 87.8391 40.1755 86.2056 40.1755ZM85.9086 39.1765C87.1776 39.1765 87.9201 38.0695 87.9201 36.571C87.9201 35.086 87.1776 34.0195 85.9086 34.0195C84.6261 34.0195 83.8701 35.113 83.8701 36.5845C83.8701 38.0695 84.6261 39.1765 85.9086 39.1765ZM93.6187 40.1755C92.1472 40.1755 91.1212 39.244 91.1212 37.435V33.196H92.3227V37.3675C92.3227 38.5555 92.9842 39.1765 93.9832 39.1765C95.0362 39.1765 95.9137 38.326 95.9137 37.1245V33.196H97.1017V40H95.9137V38.974C95.4682 39.73 94.6042 40.1755 93.6187 40.1755ZM99.1687 40V38.9875H101.707V34.2085H99.4387V33.196H102.935V38.9875H105.46V40H99.1687ZM101.653 32.035V30.55H103.003V32.035H101.653ZM107.324 40V39.0145H109.957V31.5355H107.81V30.55H111.158V39.0145H113.777V40H107.324ZM118.423 40.1755C116.789 40.1755 115.466 38.7175 115.466 36.571C115.466 34.438 116.789 33.0205 118.423 33.0205C119.381 33.0205 120.205 33.4255 120.691 34.2085V30.55H121.892V40H120.691V38.974C120.151 39.784 119.381 40.1755 118.423 40.1755ZM118.72 39.1765C120.002 39.1765 120.758 38.0695 120.758 36.5845C120.758 35.113 120.002 34.0195 118.72 34.0195C117.451 34.0195 116.708 35.086 116.708 36.571C116.708 38.0695 117.451 39.1765 118.72 39.1765Z" fill="#F4F3EC"/>
<path d="M27.3345 63L24.594 56.196H25.8765L28.104 61.9875L30.3315 56.196H31.6005L28.86 63H27.3345ZM33.2761 63V61.9875H35.8141V57.2085H33.5461V56.196H37.0426V61.9875H39.5671V63H33.2761ZM35.7601 55.035V53.55H37.1101V55.035H35.7601ZM45.1037 63C43.9427 63 43.3892 62.5275 43.3892 61.3935V57.1815H41.3642V56.196H43.0787C43.2677 56.196 43.3892 56.0745 43.3892 55.899V53.9415H44.5772V56.196H47.2637V57.1815H44.5772V61.2315C44.5772 61.7175 44.7797 62.001 45.3872 62.001H47.5607V63H45.1037ZM53.0027 63.1755C51.0047 63.1755 49.7492 61.65 49.7492 59.598C49.7492 57.5595 51.0047 56.0205 53.0027 56.0205C54.6902 56.0205 56.1752 56.979 56.0132 59.9085H50.9777C51.0722 61.164 51.6527 62.19 53.0027 62.19C53.9072 62.19 54.5012 61.6365 54.7037 61.002H55.8917C55.7027 62.136 54.6362 63.1755 53.0027 63.1755ZM51.0047 59.004H54.8522C54.7577 57.6405 54.1232 57.006 53.0027 57.006C51.7742 57.006 51.1667 57.897 51.0047 59.004ZM60.6048 61.9065V59.5845H58.2828V58.5315H60.6048V56.2095H61.6578V58.5315H63.9798V59.5845H61.6578V61.9065H60.6048Z" fill="#B299FF"/>
<path d="M41.4317 85.649C41.4317 83.9885 42.6062 83.003 43.8212 82.1255C45.1307 81.194 46.5077 80.3975 46.5077 79.1015C46.5077 78.035 45.7517 77.4275 44.6852 77.4275C43.4567 77.4275 42.7817 78.1835 42.7952 79.304H41.5397C41.4587 77.522 42.8222 76.3475 44.7392 76.3475C46.5347 76.3475 47.7902 77.4545 47.7902 79.034C47.7902 80.168 47.1017 81.005 46.2512 81.7205C44.8337 82.868 43.0247 83.705 42.8222 84.974H47.8982V86H41.4317V85.649ZM52.8812 86.1755C50.6807 86.1755 49.2902 84.3395 49.2902 81.275C49.2902 78.197 50.6807 76.388 52.8812 76.388C55.0952 76.388 56.4857 78.197 56.4857 81.275C56.4857 84.3395 55.0952 86.1755 52.8812 86.1755ZM52.8812 85.1225C54.4472 85.1225 55.2032 83.705 55.2032 81.275C55.2032 78.8315 54.4472 77.441 52.8812 77.441C51.3287 77.441 50.5592 78.8315 50.5592 81.275C50.5592 83.705 51.3287 85.1225 52.8812 85.1225ZM61.1178 86.1755C58.9173 86.1755 57.5268 84.3395 57.5268 81.275C57.5268 78.197 58.9173 76.388 61.1178 76.388C63.3318 76.388 64.7223 78.197 64.7223 81.275C64.7223 84.3395 63.3318 86.1755 61.1178 86.1755ZM61.1178 85.1225C62.6838 85.1225 63.4398 83.705 63.4398 81.275C63.4398 78.8315 62.6838 77.441 61.1178 77.441C59.5653 77.441 58.7958 78.8315 58.7958 81.275C58.7958 83.705 59.5653 85.1225 61.1178 85.1225ZM66.0199 86V84.974H68.7739V79.3715H66.5869V78.332H68.4364C68.6254 78.332 68.7739 78.1835 68.7739 78.008V76.55H69.9889V84.974H72.7294V86H66.0199ZM78.4685 86V83.408H74.0675V82.193L78.212 76.55H79.7105V82.3955H81.1415V83.408H79.7105V86H78.4685ZM75.2555 82.3955H78.4685V78.008L75.2555 82.3955ZM90.7567 86V79.196H91.9042V79.7765C92.1742 79.2905 92.6872 79.0205 93.2407 79.0205C93.9292 79.0205 94.3342 79.439 94.4692 79.8305C94.8607 79.1825 95.4412 79.0205 95.9812 79.0205C96.8587 79.0205 97.4527 79.682 97.4527 80.8025V86H96.3052V81.0185C96.3052 80.3705 96.0757 80.06 95.6572 80.06C95.1307 80.06 94.6717 80.546 94.6717 81.3695V86H93.5377V81.0185C93.5377 80.3705 93.2947 80.06 92.8762 80.06C92.3497 80.06 91.9042 80.546 91.9042 81.3695V86H90.7567ZM102.314 86.1755C100.249 86.1755 99.0337 84.6365 99.0337 82.598C99.0337 80.573 100.249 79.0205 102.314 79.0205C104.38 79.0205 105.595 80.573 105.595 82.598C105.595 84.6365 104.38 86.1755 102.314 86.1755ZM102.314 85.1765C103.799 85.1765 104.366 83.9075 104.366 82.5845C104.366 81.275 103.799 80.0195 102.314 80.0195C100.829 80.0195 100.262 81.275 100.262 82.5845C100.262 83.9075 100.829 85.1765 102.314 85.1765ZM110.186 86.1755C108.553 86.1755 107.23 84.7175 107.23 82.571C107.23 80.438 108.553 79.0205 110.186 79.0205C111.145 79.0205 111.968 79.4255 112.454 80.2085V76.55H113.656V86H112.454V84.974C111.914 85.784 111.145 86.1755 110.186 86.1755ZM110.483 85.1765C111.766 85.1765 112.522 84.0695 112.522 82.5845C112.522 81.113 111.766 80.0195 110.483 80.0195C109.214 80.0195 108.472 81.086 108.472 82.571C108.472 84.0695 109.214 85.1765 110.483 85.1765ZM118.328 86.1755C116.857 86.1755 115.831 85.244 115.831 83.435V79.196H117.032V83.3675C117.032 84.5555 117.694 85.1765 118.693 85.1765C119.746 85.1765 120.623 84.326 120.623 83.1245V79.196H121.811V86H120.623V84.974C120.178 85.73 119.314 86.1755 118.328 86.1755ZM123.797 86V85.0145H126.43V77.5355H124.283V76.55H127.631V85.0145H130.25V86H123.797ZM135.369 86.1755C133.371 86.1755 132.115 84.65 132.115 82.598C132.115 80.5595 133.371 79.0205 135.369 79.0205C137.056 79.0205 138.541 79.979 138.379 82.9085H133.344C133.438 84.164 134.019 85.19 135.369 85.19C136.273 85.19 136.867 84.6365 137.07 84.002H138.258C138.069 85.136 137.002 86.1755 135.369 86.1755ZM133.371 82.004H137.218C137.124 80.6405 136.489 80.006 135.369 80.006C134.14 80.006 133.533 80.897 133.371 82.004ZM143.632 86.1755C141.85 86.1755 140.743 85.3115 140.622 83.867H141.837C141.999 84.7715 142.606 85.2035 143.659 85.2035C144.577 85.2035 145.144 84.785 145.144 84.137C145.144 83.6375 144.78 83.2865 144.078 83.165L142.741 82.895C141.769 82.706 140.811 82.247 140.811 81.005C140.811 79.871 141.877 79.0205 143.47 79.0205C145.009 79.0205 146.13 79.6685 146.265 81.1535H145.05C144.928 80.3975 144.361 79.9925 143.457 79.9925C142.593 79.9925 142.012 80.3975 142.012 80.9645C142.012 81.5045 142.485 81.761 143.025 81.869L144.442 82.139C145.401 82.328 146.373 82.8545 146.373 84.0695C146.373 85.3385 145.252 86.1755 143.632 86.1755ZM160.416 86C159.255 86 158.701 85.5275 158.701 84.3935V80.1815H156.676V79.196H158.391C158.58 79.196 158.701 79.0745 158.701 78.899V76.9415H159.889V79.196H162.576V80.1815H159.889V84.2315C159.889 84.7175 160.092 85.001 160.699 85.001H162.873V86H160.416ZM166.128 86V79.196H167.356V80.3435C167.788 79.5875 168.531 79.196 169.3 79.196H170.934V80.3435H169.206C168.126 80.3435 167.356 81.0455 167.356 82.409V86H166.128ZM175.471 86.1755C174.094 86.1755 173.19 85.3655 173.19 84.164C173.19 82.5845 174.567 82.2065 175.674 82.0715L177.132 81.8825C177.685 81.815 177.78 81.491 177.78 81.1805V81.167C177.78 80.5055 177.334 79.9925 176.308 79.9925C175.323 79.9925 174.742 80.4515 174.634 81.2885H173.433C173.581 79.9115 174.675 79.0205 176.295 79.0205C178.104 79.0205 178.968 79.925 178.968 81.4505V84.7445C178.968 84.9065 179.089 85.0145 179.251 85.0145H179.67V86H178.86C178.198 86 177.861 85.6625 177.861 85.163V85.001C177.267 85.8785 176.322 86.1755 175.471 86.1755ZM175.782 85.2035C176.983 85.2035 177.78 84.3125 177.78 82.9895V82.517C177.564 82.625 177.334 82.679 177.091 82.7195L175.903 82.895C174.877 83.057 174.432 83.4215 174.432 84.11C174.432 84.7985 174.958 85.2035 175.782 85.2035ZM181.724 86V79.196H182.925V80.222C183.357 79.466 184.235 79.0205 185.207 79.0205C186.678 79.0205 187.704 79.952 187.704 81.761V86H186.516V81.8285C186.516 80.6405 185.841 80.0195 184.856 80.0195C183.789 80.0195 182.925 80.87 182.925 82.0715V86H181.724ZM193.052 86.1755C191.27 86.1755 190.163 85.3115 190.041 83.867H191.256C191.418 84.7715 192.026 85.2035 193.079 85.2035C193.997 85.2035 194.564 84.785 194.564 84.137C194.564 83.6375 194.199 83.2865 193.497 83.165L192.161 82.895C191.189 82.706 190.23 82.247 190.23 81.005C190.23 79.871 191.297 79.0205 192.89 79.0205C194.429 79.0205 195.549 79.6685 195.684 81.1535H194.469C194.348 80.3975 193.781 79.9925 192.876 79.9925C192.012 79.9925 191.432 80.3975 191.432 80.9645C191.432 81.5045 191.904 81.761 192.444 81.869L193.862 82.139C194.82 82.328 195.792 82.8545 195.792 84.0695C195.792 85.3385 194.672 86.1755 193.052 86.1755ZM200.019 86V80.1815H197.994V79.196H199.709C199.898 79.196 200.019 79.0745 200.019 78.899V78.305C200.019 77.1845 200.532 76.55 201.707 76.55H204.123V77.5355H201.936C201.41 77.5355 201.207 77.792 201.207 78.359V79.196H204.029V80.1815H201.207V86H200.019ZM209.39 86.1755C207.324 86.1755 206.109 84.6365 206.109 82.598C206.109 80.573 207.324 79.0205 209.39 79.0205C211.455 79.0205 212.67 80.573 212.67 82.598C212.67 84.6365 211.455 86.1755 209.39 86.1755ZM209.39 85.1765C210.875 85.1765 211.442 83.9075 211.442 82.5845C211.442 81.275 210.875 80.0195 209.39 80.0195C207.905 80.0195 207.338 81.275 207.338 82.5845C207.338 83.9075 207.905 85.1765 209.39 85.1765ZM215.547 86V79.196H216.776V80.3435C217.208 79.5875 217.95 79.196 218.72 79.196H220.353V80.3435H218.625C217.545 80.3435 216.776 81.0455 216.776 82.409V86H215.547ZM222.542 86V79.196H223.689V79.7765C223.959 79.2905 224.472 79.0205 225.026 79.0205C225.714 79.0205 226.119 79.439 226.254 79.8305C226.646 79.1825 227.226 79.0205 227.766 79.0205C228.644 79.0205 229.238 79.682 229.238 80.8025V86H228.09V81.0185C228.09 80.3705 227.861 80.06 227.442 80.06C226.916 80.06 226.457 80.546 226.457 81.3695V86H225.323V81.0185C225.323 80.3705 225.08 80.06 224.661 80.06C224.135 80.06 223.689 80.546 223.689 81.3695V86H222.542ZM234.208 86.1755C232.21 86.1755 230.954 84.65 230.954 82.598C230.954 80.5595 232.21 79.0205 234.208 79.0205C235.895 79.0205 237.38 79.979 237.218 82.9085H232.183C232.277 84.164 232.858 85.19 234.208 85.19C235.112 85.19 235.706 84.6365 235.909 84.002H237.097C236.908 85.136 235.841 86.1755 234.208 86.1755ZM232.21 82.004H236.057C235.963 80.6405 235.328 80.006 234.208 80.006C232.979 80.006 232.372 80.897 232.21 82.004ZM241.972 86.1755C240.338 86.1755 239.015 84.7175 239.015 82.571C239.015 80.438 240.338 79.0205 241.972 79.0205C242.93 79.0205 243.754 79.4255 244.24 80.2085V76.55H245.441V86H244.24V84.974C243.7 85.784 242.93 86.1755 241.972 86.1755ZM242.269 85.1765C243.551 85.1765 244.307 84.0695 244.307 82.5845C244.307 81.113 243.551 80.0195 242.269 80.0195C241 80.0195 240.257 81.086 240.257 82.571C240.257 84.0695 241 85.1765 242.269 85.1765ZM249.79 86V84.38H251.356V86H249.79ZM27.8205 109.176C26.187 109.176 24.864 107.717 24.864 105.571C24.864 103.438 26.187 102.02 27.8205 102.02C28.779 102.02 29.6025 102.425 30.0885 103.208V99.55H31.29V109H30.0885V107.974C29.5485 108.784 28.779 109.176 27.8205 109.176ZM28.1175 108.176C29.4 108.176 30.156 107.069 30.156 105.584C30.156 104.113 29.4 103.019 28.1175 103.019C26.8485 103.019 26.106 104.086 26.106 105.571C26.106 107.069 26.8485 108.176 28.1175 108.176ZM33.2761 109V107.987H35.8141V103.208H33.5461V102.196H37.0426V107.987H39.5671V109H33.2761ZM35.7601 101.035V99.55H37.1101V101.035H35.7601ZM44.7932 109.176C43.0112 109.176 41.9042 108.311 41.7827 106.867H42.9977C43.1597 107.771 43.7672 108.203 44.8202 108.203C45.7382 108.203 46.3052 107.785 46.3052 107.137C46.3052 106.637 45.9407 106.286 45.2387 106.165L43.9022 105.895C42.9302 105.706 41.9717 105.247 41.9717 104.005C41.9717 102.871 43.0382 102.02 44.6312 102.02C46.1702 102.02 47.2907 102.668 47.4257 104.153H46.2107C46.0892 103.397 45.5222 102.992 44.6177 102.992C43.7537 102.992 43.1732 103.397 43.1732 103.964C43.1732 104.504 43.6457 104.761 44.1857 104.869L45.6032 105.139C46.5617 105.328 47.5337 105.854 47.5337 107.069C47.5337 108.338 46.4132 109.176 44.7932 109.176ZM53.3402 109C52.1792 109 51.6257 108.527 51.6257 107.393V103.181H49.6007V102.196H51.3152C51.5042 102.196 51.6257 102.074 51.6257 101.899V99.9415H52.8137V102.196H55.5002V103.181H52.8137V107.231C52.8137 107.717 53.0162 108.001 53.6237 108.001H55.7972V109H53.3402ZM58.4583 110.323L62.6163 99.55H63.7908L59.6328 110.323H58.4583ZM324.688 109.176C322.38 109.176 321.003 107.285 321.003 104.275C321.003 101.251 322.38 99.388 324.688 99.388C326.997 99.388 328.387 101.251 328.387 104.275C328.387 107.285 326.997 109.176 324.688 109.176ZM324.688 107.798C326.092 107.798 326.7 106.435 326.7 104.275C326.7 102.101 326.092 100.765 324.688 100.765C323.298 100.765 322.677 102.101 322.677 104.275C322.677 106.435 323.298 107.798 324.688 107.798ZM332.021 109V107.11H333.857V109H332.021ZM341.823 109V106.556H337.517V104.99L341.634 99.55H343.457V105.193H344.834V106.556H343.457V109H341.823ZM339.015 105.193H341.823V101.44L339.015 105.193ZM349.371 109.203C347.211 109.203 345.956 108.001 345.929 106.259H347.589C347.684 107.016 348.156 107.812 349.385 107.812C350.451 107.812 351.207 107.11 351.207 105.854C351.221 104.707 350.492 103.897 349.385 103.897C348.345 103.897 347.873 104.491 347.684 104.815H346.091L346.874 99.55H352.355V100.913H348.224L347.859 103.343C348.372 102.925 349.02 102.709 349.803 102.709C351.491 102.709 352.895 103.883 352.895 105.827C352.895 107.812 351.572 109.203 349.371 109.203ZM362.969 109V99.55H364.521V105.287L367.262 102.196H369.125L366.735 104.801L369.557 109H367.734L365.709 105.908L364.521 107.164V109H362.969ZM370.841 109V99.55H374.513C376.079 99.55 377.226 100.373 377.24 101.831C377.253 102.925 376.551 103.735 375.566 104.072C376.889 104.302 377.685 105.22 377.685 106.381C377.685 107.92 376.47 109 374.526 109H370.841ZM374.351 107.663C375.242 107.663 375.998 107.191 375.998 106.192C375.998 105.314 375.309 104.761 374.391 104.761H372.461V107.663H374.351ZM374.175 103.492C375.066 103.492 375.593 102.857 375.593 102.115C375.593 101.386 375.147 100.886 374.216 100.886H372.461V103.492H374.175ZM27.8205 132.176C26.187 132.176 24.864 130.717 24.864 128.571C24.864 126.438 26.187 125.02 27.8205 125.02C28.779 125.02 29.6025 125.425 30.0885 126.208V122.55H31.29V132H30.0885V130.974C29.5485 131.784 28.779 132.176 27.8205 132.176ZM28.1175 131.176C29.4 131.176 30.156 130.069 30.156 128.584C30.156 127.113 29.4 126.019 28.1175 126.019C26.8485 126.019 26.106 127.086 26.106 128.571C26.106 130.069 26.8485 131.176 28.1175 131.176ZM33.2761 132V130.987H35.8141V126.208H33.5461V125.196H37.0426V130.987H39.5671V132H33.2761ZM35.7601 124.035V122.55H37.1101V124.035H35.7601ZM44.7932 132.176C43.0112 132.176 41.9042 131.311 41.7827 129.867H42.9977C43.1597 130.771 43.7672 131.203 44.8202 131.203C45.7382 131.203 46.3052 130.785 46.3052 130.137C46.3052 129.637 45.9407 129.286 45.2387 129.165L43.9022 128.895C42.9302 128.706 41.9717 128.247 41.9717 127.005C41.9717 125.871 43.0382 125.02 44.6312 125.02C46.1702 125.02 47.2907 125.668 47.4257 127.153H46.2107C46.0892 126.397 45.5222 125.992 44.6177 125.992C43.7537 125.992 43.1732 126.397 43.1732 126.964C43.1732 127.504 43.6457 127.761 44.1857 127.869L45.6032 128.139C46.5617 128.328 47.5337 128.854 47.5337 130.069C47.5337 131.338 46.4132 132.176 44.7932 132.176ZM53.3402 132C52.1792 132 51.6257 131.527 51.6257 130.393V126.181H49.6007V125.196H51.3152C51.5042 125.196 51.6257 125.074 51.6257 124.899V122.941H52.8137V125.196H55.5002V126.181H52.8137V130.231C52.8137 130.717 53.0162 131.001 53.6237 131.001H55.7972V132H53.3402ZM58.4583 133.323L62.6163 122.55H63.7908L59.6328 133.323H58.4583ZM68.3959 132.176C67.0189 132.176 66.1144 131.365 66.1144 130.164C66.1144 128.584 67.4914 128.206 68.5984 128.071L70.0564 127.882C70.6099 127.815 70.7044 127.491 70.7044 127.18V127.167C70.7044 126.505 70.2589 125.992 69.2329 125.992C68.2474 125.992 67.6669 126.451 67.5589 127.288H66.3574C66.5059 125.911 67.5994 125.02 69.2194 125.02C71.0284 125.02 71.8924 125.925 71.8924 127.45V130.744C71.8924 130.906 72.0139 131.014 72.1759 131.014H72.5944V132H71.7844C71.1229 132 70.7854 131.662 70.7854 131.163V131.001C70.1914 131.878 69.2464 132.176 68.3959 132.176ZM68.7064 131.203C69.9079 131.203 70.7044 130.312 70.7044 128.989V128.517C70.4884 128.625 70.2589 128.679 70.0159 128.719L68.8279 128.895C67.8019 129.057 67.3564 129.421 67.3564 130.11C67.3564 130.798 67.8829 131.203 68.7064 131.203ZM77.7395 132.176C75.9575 132.176 74.8505 131.311 74.729 129.867H75.944C76.106 130.771 76.7135 131.203 77.7665 131.203C78.6845 131.203 79.2515 130.785 79.2515 130.137C79.2515 129.637 78.887 129.286 78.185 129.165L76.8485 128.895C75.8765 128.706 74.918 128.247 74.918 127.005C74.918 125.871 75.9845 125.02 77.5775 125.02C79.1165 125.02 80.237 125.668 80.372 127.153H79.157C79.0355 126.397 78.4685 125.992 77.564 125.992C76.7 125.992 76.1195 126.397 76.1195 126.964C76.1195 127.504 76.592 127.761 77.132 127.869L78.5495 128.139C79.508 128.328 80.48 128.854 80.48 130.069C80.48 131.338 79.3595 132.176 77.7395 132.176ZM85.9761 132.176C84.1941 132.176 83.0871 131.311 82.9656 129.867H84.1806C84.3426 130.771 84.9501 131.203 86.0031 131.203C86.9211 131.203 87.4881 130.785 87.4881 130.137C87.4881 129.637 87.1236 129.286 86.4216 129.165L85.0851 128.895C84.1131 128.706 83.1546 128.247 83.1546 127.005C83.1546 125.871 84.2211 125.02 85.8141 125.02C87.3531 125.02 88.4736 125.668 88.6086 127.153H87.3936C87.2721 126.397 86.7051 125.992 85.8006 125.992C84.9366 125.992 84.3561 126.397 84.3561 126.964C84.3561 127.504 84.8286 127.761 85.3686 127.869L86.7861 128.139C87.7446 128.328 88.7166 128.854 88.7166 130.069C88.7166 131.338 87.5961 132.176 85.9761 132.176ZM94.1857 132.176C92.1877 132.176 90.9322 130.65 90.9322 128.598C90.9322 126.559 92.1877 125.02 94.1857 125.02C95.8732 125.02 97.3582 125.979 97.1962 128.908H92.1607C92.2552 130.164 92.8357 131.19 94.1857 131.19C95.0902 131.19 95.6842 130.636 95.8867 130.002H97.0747C96.8857 131.136 95.8192 132.176 94.1857 132.176ZM92.1877 128.004H96.0352C95.9407 126.64 95.3062 126.006 94.1857 126.006C92.9572 126.006 92.3497 126.897 92.1877 128.004ZM102.76 132C101.599 132 101.045 131.527 101.045 130.393V126.181H99.0202V125.196H100.735C100.924 125.196 101.045 125.074 101.045 124.899V122.941H102.233V125.196H104.92V126.181H102.233V130.231C102.233 130.717 102.436 131.001 103.043 131.001H105.217V132H102.76ZM110.686 132.176C108.904 132.176 107.797 131.311 107.675 129.867H108.89C109.052 130.771 109.66 131.203 110.713 131.203C111.631 131.203 112.198 130.785 112.198 130.137C112.198 129.637 111.833 129.286 111.131 129.165L109.795 128.895C108.823 128.706 107.864 128.247 107.864 127.005C107.864 125.871 108.931 125.02 110.524 125.02C112.063 125.02 113.183 125.668 113.318 127.153H112.103C111.982 126.397 111.415 125.992 110.51 125.992C109.646 125.992 109.066 126.397 109.066 126.964C109.066 127.504 109.538 127.761 110.078 127.869L111.496 128.139C112.454 128.328 113.426 128.854 113.426 130.069C113.426 131.338 112.306 132.176 110.686 132.176ZM116.114 133.323L120.272 122.55H121.447L117.289 133.323H116.114ZM324.688 132.176C322.38 132.176 321.003 130.285 321.003 127.275C321.003 124.251 322.38 122.388 324.688 122.388C326.997 122.388 328.387 124.251 328.387 127.275C328.387 130.285 326.997 132.176 324.688 132.176ZM324.688 130.798C326.092 130.798 326.7 129.435 326.7 127.275C326.7 125.101 326.092 123.765 324.688 123.765C323.298 123.765 322.677 125.101 322.677 127.275C322.677 129.435 323.298 130.798 324.688 130.798ZM332.021 132V130.11H333.857V132H332.021ZM341.162 132.176C338.853 132.176 337.476 130.285 337.476 127.275C337.476 124.251 338.853 122.388 341.162 122.388C343.47 122.388 344.861 124.251 344.861 127.275C344.861 130.285 343.47 132.176 341.162 132.176ZM341.162 130.798C342.566 130.798 343.173 129.435 343.173 127.275C343.173 125.101 342.566 123.765 341.162 123.765C339.771 123.765 339.15 125.101 339.15 127.275C339.15 129.435 339.771 130.798 341.162 130.798ZM349.398 132.176C347.09 132.176 345.713 130.285 345.713 127.275C345.713 124.251 347.09 122.388 349.398 122.388C351.707 122.388 353.097 124.251 353.097 127.275C353.097 130.285 351.707 132.176 349.398 132.176ZM349.398 130.798C350.802 130.798 351.41 129.435 351.41 127.275C351.41 125.101 350.802 123.765 349.398 123.765C348.008 123.765 347.387 125.101 347.387 127.275C347.387 129.435 348.008 130.798 349.398 130.798ZM362.969 132V122.55H364.521V128.287L367.262 125.196H369.125L366.735 127.801L369.557 132H367.734L365.709 128.908L364.521 130.164V132H362.969ZM370.841 132V122.55H374.513C376.079 122.55 377.226 123.373 377.24 124.831C377.253 125.925 376.551 126.735 375.566 127.072C376.889 127.302 377.685 128.22 377.685 129.381C377.685 130.92 376.47 132 374.526 132H370.841ZM374.351 130.663C375.242 130.663 375.998 130.191 375.998 129.192C375.998 128.314 375.309 127.761 374.391 127.761H372.461V130.663H374.351ZM374.175 126.492C375.066 126.492 375.593 125.857 375.593 125.115C375.593 124.386 375.147 123.886 374.216 123.886H372.461V126.492H374.175ZM27.8205 155.176C26.187 155.176 24.864 153.717 24.864 151.571C24.864 149.438 26.187 148.02 27.8205 148.02C28.779 148.02 29.6025 148.425 30.0885 149.208V145.55H31.29V155H30.0885V153.974C29.5485 154.784 28.779 155.176 27.8205 155.176ZM28.1175 154.176C29.4 154.176 30.156 153.069 30.156 151.584C30.156 150.113 29.4 149.019 28.1175 149.019C26.8485 149.019 26.106 150.086 26.106 151.571C26.106 153.069 26.8485 154.176 28.1175 154.176ZM33.2761 155V153.987H35.8141V149.208H33.5461V148.196H37.0426V153.987H39.5671V155H33.2761ZM35.7601 147.035V145.55H37.1101V147.035H35.7601ZM44.7932 155.176C43.0112 155.176 41.9042 154.311 41.7827 152.867H42.9977C43.1597 153.771 43.7672 154.203 44.8202 154.203C45.7382 154.203 46.3052 153.785 46.3052 153.137C46.3052 152.637 45.9407 152.286 45.2387 152.165L43.9022 151.895C42.9302 151.706 41.9717 151.247 41.9717 150.005C41.9717 148.871 43.0382 148.02 44.6312 148.02C46.1702 148.02 47.2907 148.668 47.4257 150.153H46.2107C46.0892 149.397 45.5222 148.992 44.6177 148.992C43.7537 148.992 43.1732 149.397 43.1732 149.964C43.1732 150.504 43.6457 150.761 44.1857 150.869L45.6032 151.139C46.5617 151.328 47.5337 151.854 47.5337 153.069C47.5337 154.338 46.4132 155.176 44.7932 155.176ZM53.3402 155C52.1792 155 51.6257 154.527 51.6257 153.393V149.181H49.6007V148.196H51.3152C51.5042 148.196 51.6257 148.074 51.6257 147.899V145.941H52.8137V148.196H55.5002V149.181H52.8137V153.231C52.8137 153.717 53.0162 154.001 53.6237 154.001H55.7972V155H53.3402ZM58.4583 156.323L62.6163 145.55H63.7908L59.6328 156.323H58.4583ZM68.3959 155.176C67.0189 155.176 66.1144 154.365 66.1144 153.164C66.1144 151.584 67.4914 151.206 68.5984 151.071L70.0564 150.882C70.6099 150.815 70.7044 150.491 70.7044 150.18V150.167C70.7044 149.505 70.2589 148.992 69.2329 148.992C68.2474 148.992 67.6669 149.451 67.5589 150.288H66.3574C66.5059 148.911 67.5994 148.02 69.2194 148.02C71.0284 148.02 71.8924 148.925 71.8924 150.45V153.744C71.8924 153.906 72.0139 154.014 72.1759 154.014H72.5944V155H71.7844C71.1229 155 70.7854 154.662 70.7854 154.163V154.001C70.1914 154.878 69.2464 155.176 68.3959 155.176ZM68.7064 154.203C69.9079 154.203 70.7044 153.312 70.7044 151.989V151.517C70.4884 151.625 70.2589 151.679 70.0159 151.719L68.8279 151.895C67.8019 152.057 67.3564 152.421 67.3564 153.11C67.3564 153.798 67.8829 154.203 68.7064 154.203ZM77.7395 155.176C75.9575 155.176 74.8505 154.311 74.729 152.867H75.944C76.106 153.771 76.7135 154.203 77.7665 154.203C78.6845 154.203 79.2515 153.785 79.2515 153.137C79.2515 152.637 78.887 152.286 78.185 152.165L76.8485 151.895C75.8765 151.706 74.918 151.247 74.918 150.005C74.918 148.871 75.9845 148.02 77.5775 148.02C79.1165 148.02 80.237 148.668 80.372 150.153H79.157C79.0355 149.397 78.4685 148.992 77.564 148.992C76.7 148.992 76.1195 149.397 76.1195 149.964C76.1195 150.504 76.592 150.761 77.132 150.869L78.5495 151.139C79.508 151.328 80.48 151.854 80.48 153.069C80.48 154.338 79.3595 155.176 77.7395 155.176ZM85.9761 155.176C84.1941 155.176 83.0871 154.311 82.9656 152.867H84.1806C84.3426 153.771 84.9501 154.203 86.0031 154.203C86.9211 154.203 87.4881 153.785 87.4881 153.137C87.4881 152.637 87.1236 152.286 86.4216 152.165L85.0851 151.895C84.1131 151.706 83.1546 151.247 83.1546 150.005C83.1546 148.871 84.2211 148.02 85.8141 148.02C87.3531 148.02 88.4736 148.668 88.6086 150.153H87.3936C87.2721 149.397 86.7051 148.992 85.8006 148.992C84.9366 148.992 84.3561 149.397 84.3561 149.964C84.3561 150.504 84.8286 150.761 85.3686 150.869L86.7861 151.139C87.7446 151.328 88.7166 151.854 88.7166 153.069C88.7166 154.338 87.5961 155.176 85.9761 155.176ZM94.1857 155.176C92.1877 155.176 90.9322 153.65 90.9322 151.598C90.9322 149.559 92.1877 148.02 94.1857 148.02C95.8732 148.02 97.3582 148.979 97.1962 151.908H92.1607C92.2552 153.164 92.8357 154.19 94.1857 154.19C95.0902 154.19 95.6842 153.636 95.8867 153.002H97.0747C96.8857 154.136 95.8192 155.176 94.1857 155.176ZM92.1877 151.004H96.0352C95.9407 149.64 95.3062 149.006 94.1857 149.006C92.9572 149.006 92.3497 149.897 92.1877 151.004ZM102.76 155C101.599 155 101.045 154.527 101.045 153.393V149.181H99.0202V148.196H100.735C100.924 148.196 101.045 148.074 101.045 147.899V145.941H102.233V148.196H104.92V149.181H102.233V153.231C102.233 153.717 102.436 154.001 103.043 154.001H105.217V155H102.76ZM110.686 155.176C108.904 155.176 107.797 154.311 107.675 152.867H108.89C109.052 153.771 109.66 154.203 110.713 154.203C111.631 154.203 112.198 153.785 112.198 153.137C112.198 152.637 111.833 152.286 111.131 152.165L109.795 151.895C108.823 151.706 107.864 151.247 107.864 150.005C107.864 148.871 108.931 148.02 110.524 148.02C112.063 148.02 113.183 148.668 113.318 150.153H112.103C111.982 149.397 111.415 148.992 110.51 148.992C109.646 148.992 109.066 149.397 109.066 149.964C109.066 150.504 109.538 150.761 110.078 150.869L111.496 151.139C112.454 151.328 113.426 151.854 113.426 153.069C113.426 154.338 112.306 155.176 110.686 155.176ZM116.114 156.323L120.272 145.55H121.447L117.289 156.323H116.114Z" fill="#F4F3EC" fill-opacity="0.8"/>
<path d="M77.969 63.1755C77.0105 63.1755 76.241 62.784 75.701 61.974V63H74.4995V53.55H75.701V57.2085C76.187 56.4255 77.0105 56.0205 77.969 56.0205C79.6025 56.0205 80.9255 57.438 80.9255 59.571C80.9255 61.7175 79.6025 63.1755 77.969 63.1755ZM77.672 62.1765C78.941 62.1765 79.6835 61.0695 79.6835 59.571C79.6835 58.086 78.941 57.0195 77.672 57.0195C76.3895 57.0195 75.6335 58.113 75.6335 59.5845C75.6335 61.0695 76.3895 62.1765 77.672 62.1765ZM85.3821 63.1755C83.9106 63.1755 82.8846 62.244 82.8846 60.435V56.196H84.0861V60.3675C84.0861 61.5555 84.7476 62.1765 85.7466 62.1765C86.7996 62.1765 87.6771 61.326 87.6771 60.1245V56.196H88.8651V63H87.6771V61.974C87.2316 62.73 86.3676 63.1755 85.3821 63.1755ZM90.9322 63V61.9875H93.4702V57.2085H91.2022V56.196H94.6987V61.9875H97.2232V63H90.9322ZM93.4162 55.035V53.55H94.7662V55.035H93.4162ZM99.0877 63V62.0145H101.72V54.5355H99.5737V53.55H102.922V62.0145H105.541V63H99.0877ZM110.186 63.1755C108.553 63.1755 107.23 61.7175 107.23 59.571C107.23 57.438 108.553 56.0205 110.186 56.0205C111.145 56.0205 111.968 56.4255 112.454 57.2085V53.55H113.656V63H112.454V61.974C111.914 62.784 111.145 63.1755 110.186 63.1755ZM110.483 62.1765C111.766 62.1765 112.522 61.0695 112.522 59.5845C112.522 58.113 111.766 57.0195 110.483 57.0195C109.214 57.0195 108.472 58.086 108.472 59.571C108.472 61.0695 109.214 62.1765 110.483 62.1765ZM115.642 63V61.9875H118.18V57.2085H115.912V56.196H119.408V61.9875H121.933V63H115.642ZM118.126 55.035V53.55H119.476V55.035H118.126ZM124.067 63V56.196H125.269V57.222C125.701 56.466 126.578 56.0205 127.55 56.0205C129.022 56.0205 130.048 56.952 130.048 58.761V63H128.86V58.8285C128.86 57.6405 128.185 57.0195 127.199 57.0195C126.133 57.0195 125.269 57.87 125.269 59.0715V63H124.067ZM135.207 65.376C133.492 65.376 132.412 64.647 132.237 63.351H133.452C133.654 64.0935 134.194 64.404 135.247 64.404C136.219 64.404 137.124 63.9045 137.124 62.5275V61.65C136.611 62.5005 135.801 62.8515 134.91 62.8515C133.276 62.8515 131.94 61.407 131.94 59.4225C131.94 57.438 133.276 56.0205 134.91 56.0205C135.814 56.0205 136.678 56.439 137.124 57.2085V56.196H138.312V62.514C138.312 64.62 136.813 65.376 135.207 65.376ZM135.166 61.8795C136.381 61.8795 137.191 60.8265 137.191 59.409C137.191 57.978 136.381 57.0195 135.166 57.0195C133.951 57.0195 133.155 57.978 133.155 59.409C133.155 60.8265 133.951 61.8795 135.166 61.8795ZM150.6 63V57.1815H148.575V56.196H150.289C150.478 56.196 150.6 56.0745 150.6 55.899V55.305C150.6 54.1845 151.113 53.55 152.287 53.55H154.704V54.5355H152.517C151.99 54.5355 151.788 54.792 151.788 55.359V56.196H154.609V57.1815H151.788V63H150.6ZM159.97 63.1755C157.905 63.1755 156.69 61.6365 156.69 59.598C156.69 57.573 157.905 56.0205 159.97 56.0205C162.036 56.0205 163.251 57.573 163.251 59.598C163.251 61.6365 162.036 63.1755 159.97 63.1755ZM159.97 62.1765C161.455 62.1765 162.022 60.9075 162.022 59.5845C162.022 58.275 161.455 57.0195 159.97 57.0195C158.485 57.0195 157.918 58.275 157.918 59.5845C157.918 60.9075 158.485 62.1765 159.97 62.1765ZM166.128 63V56.196H167.356V57.3435C167.788 56.5875 168.531 56.196 169.3 56.196H170.934V57.3435H169.206C168.126 57.3435 167.356 58.0455 167.356 59.409V63H166.128ZM181.575 65.241V56.196H182.763V57.222C183.317 56.412 184.086 56.0205 185.045 56.0205C186.665 56.0205 188.001 57.4785 188.001 59.625C188.001 61.758 186.665 63.1755 185.045 63.1755C184.086 63.1755 183.249 62.7705 182.763 61.9875V65.241H181.575ZM184.748 62.1765C186.017 62.1765 186.759 61.11 186.759 59.625C186.759 58.1265 186.017 57.0195 184.748 57.0195C183.465 57.0195 182.709 58.1265 182.709 59.6115C182.709 61.083 183.465 62.1765 184.748 62.1765ZM190.838 63V56.196H192.066V57.3435C192.498 56.5875 193.241 56.196 194.01 56.196H195.644V57.3435H193.916C192.836 57.3435 192.066 58.0455 192.066 59.409V63H190.838ZM201.153 63.1755C199.088 63.1755 197.873 61.6365 197.873 59.598C197.873 57.573 199.088 56.0205 201.153 56.0205C203.219 56.0205 204.434 57.573 204.434 59.598C204.434 61.6365 203.219 63.1755 201.153 63.1755ZM201.153 62.1765C202.638 62.1765 203.205 60.9075 203.205 59.5845C203.205 58.275 202.638 57.0195 201.153 57.0195C199.668 57.0195 199.101 58.275 199.101 59.5845C199.101 60.9075 199.668 62.1765 201.153 62.1765ZM209.025 63.1755C207.392 63.1755 206.069 61.7175 206.069 59.571C206.069 57.438 207.392 56.0205 209.025 56.0205C209.984 56.0205 210.807 56.4255 211.293 57.2085V53.55H212.495V63H211.293V61.974C210.753 62.784 209.984 63.1755 209.025 63.1755ZM209.322 62.1765C210.605 62.1765 211.361 61.0695 211.361 59.5845C211.361 58.113 210.605 57.0195 209.322 57.0195C208.053 57.0195 207.311 58.086 207.311 59.571C207.311 61.0695 208.053 62.1765 209.322 62.1765ZM217.167 63.1755C215.696 63.1755 214.67 62.244 214.67 60.435V56.196H215.871V60.3675C215.871 61.5555 216.533 62.1765 217.532 62.1765C218.585 62.1765 219.462 61.326 219.462 60.1245V56.196H220.65V63H219.462V61.974C219.017 62.73 218.153 63.1755 217.167 63.1755ZM226.038 63.1755C224.054 63.1755 222.758 61.6365 222.758 59.598C222.758 57.573 224.054 56.0205 226.052 56.0205C227.604 56.0205 228.752 56.9655 228.968 58.5315H227.753C227.564 57.573 226.902 57.0195 226.038 57.0195C224.621 57.0195 224 58.2345 224 59.5845C224 60.948 224.621 62.1765 226.038 62.1765C226.916 62.1765 227.51 61.7175 227.753 60.84H228.954C228.698 62.2305 227.658 63.1755 226.038 63.1755ZM234.545 63C233.384 63 232.831 62.5275 232.831 61.3935V57.1815H230.806V56.196H232.52C232.709 56.196 232.831 56.0745 232.831 55.899V53.9415H234.019V56.196H236.705V57.1815H234.019V61.2315C234.019 61.7175 234.221 62.001 234.829 62.001H237.002V63H234.545ZM239.191 63V61.9875H241.729V57.2085H239.461V56.196H242.957V61.9875H245.482V63H239.191ZM241.675 55.035V53.55H243.025V55.035H241.675ZM250.573 63.1755C248.507 63.1755 247.292 61.6365 247.292 59.598C247.292 57.573 248.507 56.0205 250.573 56.0205C252.638 56.0205 253.853 57.573 253.853 59.598C253.853 61.6365 252.638 63.1755 250.573 63.1755ZM250.573 62.1765C252.058 62.1765 252.625 60.9075 252.625 59.5845C252.625 58.275 252.058 57.0195 250.573 57.0195C249.088 57.0195 248.521 58.275 248.521 59.5845C248.521 60.9075 249.088 62.1765 250.573 62.1765ZM255.853 63V56.196H257.054V57.222C257.486 56.466 258.364 56.0205 259.336 56.0205C260.807 56.0205 261.833 56.952 261.833 58.761V63H260.645V58.8285C260.645 57.6405 259.97 57.0195 258.985 57.0195C257.918 57.0195 257.054 57.87 257.054 59.0715V63H255.853ZM266.263 63V61.38H267.829V63H266.263ZM274.499 63V61.38H276.065V63H274.499ZM282.736 63V61.38H284.302V63H282.736ZM66.2224 109V107.987H68.7604V103.208H66.4924V102.196H69.9889V107.987H72.5134V109H66.2224ZM68.7064 101.035V99.55H70.0564V101.035H68.7064ZM74.648 109V102.196H75.8495V103.222C76.2815 102.466 77.159 102.02 78.131 102.02C79.6025 102.02 80.6285 102.952 80.6285 104.761V109H79.4405V104.828C79.4405 103.64 78.7655 103.019 77.78 103.019C76.7135 103.019 75.8495 103.87 75.8495 105.071V109H74.648ZM85.4766 109.176C83.8431 109.176 82.5201 107.717 82.5201 105.571C82.5201 103.438 83.8431 102.02 85.4766 102.02C86.4351 102.02 87.2586 102.425 87.7446 103.208V99.55H88.9461V109H87.7446V107.974C87.2046 108.784 86.4351 109.176 85.4766 109.176ZM85.7736 108.176C87.0561 108.176 87.8121 107.069 87.8121 105.584C87.8121 104.113 87.0561 103.019 85.7736 103.019C84.5046 103.019 83.7621 104.086 83.7621 105.571C83.7621 107.069 84.5046 108.176 85.7736 108.176ZM94.1857 109.176C92.1877 109.176 90.9322 107.65 90.9322 105.598C90.9322 103.559 92.1877 102.02 94.1857 102.02C95.8732 102.02 97.3582 102.979 97.1962 105.908H92.1607C92.2552 107.164 92.8357 108.19 94.1857 108.19C95.0902 108.19 95.6842 107.636 95.8867 107.002H97.0747C96.8857 108.136 95.8192 109.176 94.1857 109.176ZM92.1877 105.004H96.0352C95.9407 103.64 95.3062 103.006 94.1857 103.006C92.9572 103.006 92.3497 103.897 92.1877 105.004ZM99.1957 109L101.585 105.463L99.3847 102.196H100.721L102.341 104.639L103.961 102.196H105.298L103.057 105.49L105.433 109H104.083L102.314 106.313L100.546 109H99.1957ZM109.768 109V107.38H111.334V109H109.768ZM115.831 109V99.55H117.032V103.222C117.464 102.466 118.342 102.02 119.314 102.02C120.785 102.02 121.811 102.952 121.811 104.761V109H120.623V104.828C120.623 103.64 119.948 103.019 118.963 103.019C117.896 103.019 117.032 103.87 117.032 105.071V109H115.831ZM127.469 109C126.308 109 125.755 108.527 125.755 107.393V103.181H123.73V102.196H125.444C125.633 102.196 125.755 102.074 125.755 101.899V99.9415H126.943V102.196H129.629V103.181H126.943V107.231C126.943 107.717 127.145 108.001 127.753 108.001H129.926V109H127.469ZM131.94 109V102.196H133.087V102.776C133.357 102.29 133.87 102.02 134.424 102.02C135.112 102.02 135.517 102.439 135.652 102.83C136.044 102.183 136.624 102.02 137.164 102.02C138.042 102.02 138.636 102.682 138.636 103.802V109H137.488V104.018C137.488 103.37 137.259 103.06 136.84 103.06C136.314 103.06 135.855 103.546 135.855 104.369V109H134.721V104.018C134.721 103.37 134.478 103.06 134.059 103.06C133.533 103.06 133.087 103.546 133.087 104.369V109H131.94ZM140.271 109V108.014H142.903V100.535H140.757V99.55H144.105V108.014H146.724V109H140.271ZM45.0227 178.176C44.0642 178.176 43.2947 177.784 42.7547 176.974V178H41.5532V168.55H42.7547V172.208C43.2407 171.425 44.0642 171.02 45.0227 171.02C46.6562 171.02 47.9792 172.438 47.9792 174.571C47.9792 176.717 46.6562 178.176 45.0227 178.176ZM44.7257 177.176C45.9947 177.176 46.7372 176.069 46.7372 174.571C46.7372 173.086 45.9947 172.019 44.7257 172.019C43.4432 172.019 42.6872 173.113 42.6872 174.584C42.6872 176.069 43.4432 177.176 44.7257 177.176ZM52.4357 178.176C50.9642 178.176 49.9382 177.244 49.9382 175.435V171.196H51.1397V175.367C51.1397 176.555 51.8012 177.176 52.8002 177.176C53.8532 177.176 54.7307 176.326 54.7307 175.124V171.196H55.9187V178H54.7307V176.974C54.2852 177.73 53.4212 178.176 52.4357 178.176ZM57.9858 178V176.987H60.5238V172.208H58.2558V171.196H61.7523V176.987H64.2768V178H57.9858ZM60.4698 170.035V168.55H61.8198V170.035H60.4698ZM66.1414 178V177.014H68.7739V169.535H66.6274V168.55H69.9754V177.014H72.5944V178H66.1414ZM78.05 178C76.889 178 76.3355 177.527 76.3355 176.393V172.181H74.3105V171.196H76.025C76.214 171.196 76.3355 171.074 76.3355 170.899V168.941H77.5235V171.196H80.21V172.181H77.5235V176.231C77.5235 176.717 77.726 177.001 78.3335 177.001H80.507V178H78.05ZM90.9322 178V176.987H93.4702V172.208H91.2022V171.196H94.6987V176.987H97.2232V178H90.9322ZM93.4162 170.035V168.55H94.7662V170.035H93.4162ZM99.3577 178V171.196H100.559V172.222C100.991 171.466 101.869 171.02 102.841 171.02C104.312 171.02 105.338 171.952 105.338 173.761V178H104.15V173.828C104.15 172.64 103.475 172.019 102.49 172.019C101.423 172.019 100.559 172.87 100.559 174.071V178H99.3577ZM118.787 178.203C117.005 178.203 115.372 177.163 115.372 175.34C115.372 174.031 116.344 173.167 117.289 172.924C116.438 172.627 115.736 171.817 115.75 170.831C115.777 169.292 117.194 168.347 118.787 168.347C120.367 168.347 121.784 169.292 121.811 170.831C121.825 171.817 121.096 172.627 120.272 172.924C121.204 173.167 122.189 174.031 122.189 175.34C122.189 177.163 120.556 178.203 118.787 178.203ZM118.787 177.176C119.894 177.176 120.92 176.488 120.92 175.313C120.92 174.112 119.894 173.464 118.787 173.464C117.667 173.464 116.641 174.112 116.641 175.313C116.641 176.488 117.667 177.176 118.787 177.176ZM118.787 172.492C119.732 172.492 120.569 171.857 120.569 170.885C120.569 169.927 119.732 169.36 118.787 169.36C117.829 169.36 116.992 169.927 116.992 170.885C116.992 171.857 117.829 172.492 118.787 172.492ZM123.676 178V176.974H126.43V171.371H124.243V170.332H126.092C126.281 170.332 126.43 170.183 126.43 170.008V168.55H127.645V176.974H130.385V178H123.676ZM135.22 178.203C133.182 178.203 131.953 177.028 131.926 175.3H133.182C133.249 176.083 133.695 177.136 135.207 177.136C136.462 177.136 137.313 176.312 137.313 174.935C137.313 173.693 136.503 172.735 135.22 172.735C134.005 172.735 133.506 173.423 133.317 173.761H132.129L132.885 168.55H138.096V169.589H133.924L133.519 172.384C134.059 171.938 134.734 171.749 135.477 171.749C137.245 171.749 138.595 173.032 138.595 174.908C138.595 176.798 137.367 178.203 135.22 178.203ZM140.176 178V171.196H141.324V171.776C141.594 171.29 142.107 171.02 142.66 171.02C143.349 171.02 143.754 171.439 143.889 171.83C144.28 171.183 144.861 171.02 145.401 171.02C146.278 171.02 146.872 171.682 146.872 172.802V178H145.725V173.018C145.725 172.37 145.495 172.06 145.077 172.06C144.55 172.06 144.091 172.546 144.091 173.369V178H142.957V173.018C142.957 172.37 142.714 172.06 142.296 172.06C141.769 172.06 141.324 172.546 141.324 173.369V178H140.176ZM151.869 178.176C150.087 178.176 148.98 177.311 148.858 175.867H150.073C150.235 176.771 150.843 177.203 151.896 177.203C152.814 177.203 153.381 176.785 153.381 176.137C153.381 175.637 153.016 175.286 152.314 175.165L150.978 174.895C150.006 174.706 149.047 174.247 149.047 173.005C149.047 171.871 150.114 171.02 151.707 171.02C153.246 171.02 154.366 171.668 154.501 173.153H153.286C153.165 172.397 152.598 171.992 151.693 171.992C150.829 171.992 150.249 172.397 150.249 172.964C150.249 173.504 150.721 173.761 151.261 173.869L152.679 174.139C153.637 174.328 154.609 174.854 154.609 176.069C154.609 177.338 153.489 178.176 151.869 178.176Z" fill="#5DE5BD"/>
<path d="M26.889 84.785L24.4995 82.166L25.3095 81.383L26.916 83.138L30.9525 79.169L31.7355 79.952L26.889 84.785ZM26.889 176.785L24.4995 174.166L25.3095 173.383L26.916 175.138L30.9525 171.169L31.7355 171.952L26.889 176.785Z" fill="#5DE591"/>
<path d="M123.878 132V130.987H126.416V126.208H124.148V125.196H127.645V130.987H130.169V132H123.878ZM126.362 124.035V122.55H127.712V124.035H126.362ZM132.304 132V125.196H133.506V126.222C133.938 125.466 134.815 125.02 135.787 125.02C137.259 125.02 138.285 125.952 138.285 127.761V132H137.097V127.828C137.097 126.64 136.422 126.019 135.436 126.019C134.37 126.019 133.506 126.87 133.506 128.071V132H132.304ZM143.133 132.176C141.499 132.176 140.176 130.717 140.176 128.571C140.176 126.438 141.499 125.02 143.133 125.02C144.091 125.02 144.915 125.425 145.401 126.208V122.55H146.602V132H145.401V130.974C144.861 131.784 144.091 132.176 143.133 132.176ZM143.43 131.176C144.712 131.176 145.468 130.069 145.468 128.584C145.468 127.113 144.712 126.019 143.43 126.019C142.161 126.019 141.418 127.086 141.418 128.571C141.418 130.069 142.161 131.176 143.43 131.176ZM151.842 132.176C149.844 132.176 148.588 130.65 148.588 128.598C148.588 126.559 149.844 125.02 151.842 125.02C153.529 125.02 155.014 125.979 154.852 128.908H149.817C149.911 130.164 150.492 131.19 151.842 131.19C152.746 131.19 153.34 130.636 153.543 130.002H154.731C154.542 131.136 153.475 132.176 151.842 132.176ZM149.844 128.004H153.691C153.597 126.64 152.962 126.006 151.842 126.006C150.613 126.006 150.006 126.897 149.844 128.004ZM156.852 132L159.241 128.463L157.041 125.196H158.377L159.997 127.639L161.617 125.196H162.954L160.713 128.49L163.089 132H161.739L159.97 129.313L158.202 132H156.852ZM166.384 128.571V127.477H170.029V128.571H166.384ZM173.325 132L175.714 128.463L173.514 125.196H174.85L176.47 127.639L178.09 125.196H179.427L177.186 128.49L179.562 132H178.212L176.443 129.313L174.675 132H173.325ZM181.332 132V130.974H184.086V125.371H181.899V124.332H183.749C183.938 124.332 184.086 124.183 184.086 124.008V122.55H185.301V130.974H188.042V132H181.332ZM189.015 132L192.255 127.14L189.312 122.55H190.703L192.957 126.154L195.239 122.55H196.629L193.605 127.126L196.818 132H195.414L192.944 128.098L190.406 132H189.015ZM201.072 132.176C198.98 132.176 197.603 130.447 197.603 127.261C197.603 124.075 198.993 122.374 201.261 122.374C203.192 122.374 204.407 123.67 204.609 125.763H203.327C203.178 124.44 202.49 123.441 201.234 123.441C199.668 123.441 198.885 124.858 198.885 127.261C198.885 129.664 199.682 131.109 201.234 131.109C202.368 131.109 203.327 130.218 203.421 128.193H201.005V127.18H204.623V132H203.448V130.798C203.016 131.635 202.247 132.176 201.072 132.176ZM208.931 132.176C207.459 132.176 206.433 131.244 206.433 129.435V125.196H207.635V129.367C207.635 130.555 208.296 131.176 209.295 131.176C210.348 131.176 211.226 130.326 211.226 129.124V125.196H212.414V132H211.226V130.974C210.78 131.73 209.916 132.176 208.931 132.176ZM214.427 132V122.55H215.871L219.638 130.083V122.55H220.826V132H219.381L215.615 124.467V132H214.427ZM222.636 132V131.014H225.269V123.535H223.122V122.55H226.47V131.014H229.089V132H222.636ZM234.086 132.176C231.886 132.176 230.495 130.339 230.495 127.275C230.495 124.197 231.886 122.388 234.086 122.388C236.3 122.388 237.691 124.197 237.691 127.275C237.691 130.339 236.3 132.176 234.086 132.176ZM234.086 131.122C235.652 131.122 236.408 129.705 236.408 127.275C236.408 124.831 235.652 123.441 234.086 123.441C232.534 123.441 231.764 124.831 231.764 127.275C231.764 129.705 232.534 131.122 234.086 131.122ZM241.553 132V130.38H243.119V132H241.553ZM250.748 132.176C248.764 132.176 247.468 130.636 247.468 128.598C247.468 126.573 248.764 125.02 250.762 125.02C252.314 125.02 253.462 125.965 253.678 127.531H252.463C252.274 126.573 251.612 126.019 250.748 126.019C249.331 126.019 248.71 127.234 248.71 128.584C248.71 129.948 249.331 131.176 250.748 131.176C251.626 131.176 252.22 130.717 252.463 129.84H253.664C253.408 131.23 252.368 132.176 250.748 132.176ZM258.944 132.176C257.162 132.176 256.055 131.311 255.934 129.867H257.149C257.311 130.771 257.918 131.203 258.971 131.203C259.889 131.203 260.456 130.785 260.456 130.137C260.456 129.637 260.092 129.286 259.39 129.165L258.053 128.895C257.081 128.706 256.123 128.247 256.123 127.005C256.123 125.871 257.189 125.02 258.782 125.02C260.321 125.02 261.442 125.668 261.577 127.153H260.362C260.24 126.397 259.673 125.992 258.769 125.992C257.905 125.992 257.324 126.397 257.324 126.964C257.324 127.504 257.797 127.761 258.337 127.869L259.754 128.139C260.713 128.328 261.685 128.854 261.685 130.069C261.685 131.338 260.564 132.176 258.944 132.176ZM267.181 132.176C265.399 132.176 264.292 131.311 264.17 129.867H265.385C265.547 130.771 266.155 131.203 267.208 131.203C268.126 131.203 268.693 130.785 268.693 130.137C268.693 129.637 268.328 129.286 267.626 129.165L266.29 128.895C265.318 128.706 264.359 128.247 264.359 127.005C264.359 125.871 265.426 125.02 267.019 125.02C268.558 125.02 269.678 125.668 269.813 127.153H268.598C268.477 126.397 267.91 125.992 267.005 125.992C266.141 125.992 265.561 126.397 265.561 126.964C265.561 127.504 266.033 127.761 266.573 127.869L267.991 128.139C268.949 128.328 269.921 128.854 269.921 130.069C269.921 131.338 268.801 132.176 267.181 132.176Z" fill="#DA8BFF"/>
<path d="M123.878 155V153.987H126.416V149.208H124.148V148.196H127.645V153.987H130.169V155H123.878ZM126.362 147.035V145.55H127.712V147.035H126.362ZM132.304 155V148.196H133.506V149.222C133.938 148.466 134.815 148.02 135.787 148.02C137.259 148.02 138.285 148.952 138.285 150.761V155H137.097V150.828C137.097 149.64 136.422 149.019 135.436 149.019C134.37 149.019 133.506 149.87 133.506 151.071V155H132.304ZM143.133 155.176C141.499 155.176 140.176 153.717 140.176 151.571C140.176 149.438 141.499 148.02 143.133 148.02C144.091 148.02 144.915 148.425 145.401 149.208V145.55H146.602V155H145.401V153.974C144.861 154.784 144.091 155.176 143.133 155.176ZM143.43 154.176C144.712 154.176 145.468 153.069 145.468 151.584C145.468 150.113 144.712 149.019 143.43 149.019C142.161 149.019 141.418 150.086 141.418 151.571C141.418 153.069 142.161 154.176 143.43 154.176ZM151.842 155.176C149.844 155.176 148.588 153.65 148.588 151.598C148.588 149.559 149.844 148.02 151.842 148.02C153.529 148.02 155.014 148.979 154.852 151.908H149.817C149.911 153.164 150.492 154.19 151.842 154.19C152.746 154.19 153.34 153.636 153.543 153.002H154.731C154.542 154.136 153.475 155.176 151.842 155.176ZM149.844 151.004H153.691C153.597 149.64 152.962 149.006 151.842 149.006C150.613 149.006 150.006 149.897 149.844 151.004ZM156.852 155L159.241 151.463L157.041 148.196H158.377L159.997 150.639L161.617 148.196H162.954L160.713 151.49L163.089 155H161.739L159.97 152.313L158.202 155H156.852ZM166.384 151.571V150.477H170.029V151.571H166.384ZM173.244 155V145.55H175.836C178.414 145.55 180.007 147.534 180.007 150.275C180.007 153.016 178.414 155 175.836 155H173.244ZM175.768 153.96C177.631 153.96 178.711 152.489 178.711 150.275C178.711 148.061 177.631 146.589 175.768 146.589H174.472V153.96H175.768ZM181.481 155V145.55H182.925L186.692 153.083V145.55H187.88V155H186.435L182.669 147.467V155H181.481ZM191.783 155V149.181H189.758V148.196H191.472C191.661 148.196 191.783 148.074 191.783 147.899V147.305C191.783 146.184 192.296 145.55 193.47 145.55H195.887V146.535H193.7C193.173 146.535 192.971 146.792 192.971 147.359V148.196H195.792V149.181H192.971V155H191.783ZM200.789 155.176C199.155 155.176 197.832 153.717 197.832 151.571C197.832 149.438 199.155 148.02 200.789 148.02C201.747 148.02 202.571 148.425 203.057 149.208V145.55H204.258V155H203.057V153.974C202.517 154.784 201.747 155.176 200.789 155.176ZM201.086 154.176C202.368 154.176 203.124 153.069 203.124 151.584C203.124 150.113 202.368 149.019 201.086 149.019C199.817 149.019 199.074 150.086 199.074 151.571C199.074 153.069 199.817 154.176 201.086 154.176ZM209.309 155.176C207.216 155.176 205.839 153.447 205.839 150.261C205.839 147.075 207.23 145.374 209.498 145.374C211.428 145.374 212.643 146.67 212.846 148.763H211.563C211.415 147.44 210.726 146.441 209.471 146.441C207.905 146.441 207.122 147.858 207.122 150.261C207.122 152.664 207.918 154.109 209.471 154.109C210.605 154.109 211.563 153.218 211.658 151.193H209.241V150.18H212.859V155H211.685V153.798C211.253 154.635 210.483 155.176 209.309 155.176ZM214.427 155V145.55H217.991C219.449 145.55 220.596 146.333 220.61 147.804C220.623 148.871 219.908 149.735 218.909 150.032C220.245 150.261 221.096 151.166 221.096 152.381C221.096 153.825 219.908 155 218.004 155H214.427ZM217.842 153.974C218.922 153.974 219.813 153.393 219.813 152.246C219.813 151.274 219.017 150.599 217.896 150.599H215.655V153.974H217.842ZM217.694 149.613C218.72 149.613 219.354 148.857 219.354 147.993C219.354 147.143 218.841 146.576 217.761 146.576H215.655V149.613H217.694ZM222.542 155V148.196H223.689V148.776C223.959 148.29 224.472 148.02 225.026 148.02C225.714 148.02 226.119 148.439 226.254 148.83C226.646 148.183 227.226 148.02 227.766 148.02C228.644 148.02 229.238 148.682 229.238 149.802V155H228.09V150.018C228.09 149.37 227.861 149.06 227.442 149.06C226.916 149.06 226.457 149.546 226.457 150.369V155H225.323V150.018C225.323 149.37 225.08 149.06 224.661 149.06C224.135 149.06 223.689 149.546 223.689 150.369V155H222.542ZM231.143 155V145.55H232.345V149.222C232.777 148.466 233.654 148.02 234.626 148.02C236.098 148.02 237.124 148.952 237.124 150.761V155H235.936V150.828C235.936 149.64 235.261 149.019 234.275 149.019C233.209 149.019 232.345 149.87 232.345 151.071V155H231.143ZM241.553 155V153.38H243.119V155H241.553ZM247.994 157.241V156.283H250.411C250.816 156.283 251.005 156.161 251.005 155.716V149.208H248.723V148.196H252.22V155.675C252.22 156.836 251.653 157.241 250.586 157.241H247.994ZM250.937 147.035V145.55H252.287V147.035H250.937ZM258.944 155.176C257.162 155.176 256.055 154.311 255.934 152.867H257.149C257.311 153.771 257.918 154.203 258.971 154.203C259.889 154.203 260.456 153.785 260.456 153.137C260.456 152.637 260.092 152.286 259.39 152.165L258.053 151.895C257.081 151.706 256.123 151.247 256.123 150.005C256.123 148.871 257.189 148.02 258.782 148.02C260.321 148.02 261.442 148.668 261.577 150.153H260.362C260.24 149.397 259.673 148.992 258.769 148.992C257.905 148.992 257.324 149.397 257.324 149.964C257.324 150.504 257.797 150.761 258.337 150.869L259.754 151.139C260.713 151.328 261.685 151.854 261.685 153.069C261.685 154.338 260.564 155.176 258.944 155.176Z" fill="#96D2EB"/>
<path d="M324.661 155.203C322.501 155.203 321.246 154.001 321.219 152.259H322.879C322.974 153.016 323.446 153.812 324.675 153.812C325.741 153.812 326.497 153.11 326.497 151.854C326.511 150.707 325.782 149.897 324.675 149.897C323.635 149.897 323.163 150.491 322.974 150.815H321.381L322.164 145.55H327.645V146.913H323.514L323.149 149.343C323.662 148.925 324.31 148.709 325.093 148.709C326.781 148.709 328.185 149.883 328.185 151.827C328.185 153.812 326.862 155.203 324.661 155.203ZM332.034 156.782V156.094H332.237C332.736 156.094 332.939 155.824 332.939 155.405V155H332.021V153.11H333.857V155.365C333.857 156.323 333.263 156.782 332.264 156.782H332.034ZM341.27 155.203C339.164 155.203 337.611 153.798 337.611 150.288C337.611 146.94 339.258 145.347 341.445 145.347C343.349 145.347 344.496 146.576 344.537 147.953H342.903C342.768 147.102 342.161 146.684 341.378 146.684C340.163 146.684 339.285 147.75 339.285 149.937C339.812 149.087 340.73 148.776 341.58 148.776C343.254 148.776 344.739 149.91 344.739 151.895C344.739 153.893 343.335 155.203 341.27 155.203ZM341.27 153.839C342.282 153.839 343.092 153.096 343.092 151.962C343.092 150.828 342.282 150.086 341.27 150.086C340.271 150.086 339.474 150.828 339.474 151.962C339.474 153.096 340.271 153.839 341.27 153.839ZM349.371 155.203C347.211 155.203 345.956 154.001 345.929 152.259H347.589C347.684 153.016 348.156 153.812 349.385 153.812C350.451 153.812 351.207 153.11 351.207 151.854C351.221 150.707 350.492 149.897 349.385 149.897C348.345 149.897 347.873 150.491 347.684 150.815H346.091L346.874 145.55H352.355V146.913H348.224L347.859 149.343C348.372 148.925 349.02 148.709 349.803 148.709C351.491 148.709 352.895 149.883 352.895 151.827C352.895 153.812 351.572 155.203 349.371 155.203ZM354.206 155V153.636H356.852V148.668H354.732V147.291H356.474C356.703 147.291 356.852 147.129 356.852 146.913V145.55H358.485V153.636H361.077V155H354.206ZM364.967 155V153.11H366.803V155H364.967ZM374.081 155.203C371.921 155.203 370.665 154.001 370.638 152.259H372.299C372.393 153.016 372.866 153.812 374.094 153.812C375.161 153.812 375.917 153.11 375.917 151.854C375.93 150.707 375.201 149.897 374.094 149.897C373.055 149.897 372.582 150.491 372.393 150.815H370.8L371.583 145.55H377.064V146.913H372.933L372.569 149.343C373.082 148.925 373.73 148.709 374.513 148.709C376.2 148.709 377.604 149.883 377.604 151.827C377.604 153.812 376.281 155.203 374.081 155.203ZM378.916 155V153.636H381.562V148.668H379.442V147.291H381.184C381.413 147.291 381.562 147.129 381.562 146.913V145.55H383.195V153.636H385.787V155H378.916ZM395.915 155V145.55H397.468V151.287L400.208 148.196H402.071L399.682 150.801L402.503 155H400.681L398.656 151.908L397.468 153.164V155H395.915ZM403.787 155V145.55H407.459C409.025 145.55 410.173 146.373 410.186 147.831C410.2 148.925 409.498 149.735 408.512 150.072C409.835 150.302 410.632 151.22 410.632 152.381C410.632 153.92 409.417 155 407.473 155H403.787ZM407.297 153.663C408.188 153.663 408.944 153.191 408.944 152.192C408.944 151.314 408.256 150.761 407.338 150.761H405.407V153.663H407.297ZM407.122 149.492C408.013 149.492 408.539 148.857 408.539 148.115C408.539 147.386 408.094 146.886 407.162 146.886H405.407V149.492H407.122Z" fill="#F7EAB6"/>
</svg>
